<svg xmlns="http://www.w3.org/2000/svg" width="375" viewBox="0 0 375 375" height="375" version="1.0"><defs><clipPath id="a"><path d="M 0 25.105469 L 365.707031 25.105469 L 365.707031 375 L 0 375 Z M 0 25.105469"/></clipPath><clipPath id="b"><path d="M 51 32.472656 L 315 32.472656 L 315 269.261719 L 51 269.261719 Z M 51 32.472656"/></clipPath><clipPath id="c"><path d="M 319 192 L 334.878906 192 L 334.878906 245 L 319 245 Z M 319 192"/></clipPath></defs><g clip-path="url(#a)"><path fill="#FFF" d="M 365.625 207.890625 C 365.625 308.875 283.769531 390.730469 182.785156 390.730469 C 81.800781 390.730469 -0.0546875 308.875 -0.0546875 207.890625 C -0.0585938 106.90625 81.800781 25.050781 182.785156 25.050781 C 283.769531 25.046875 365.625 106.90625 365.625 207.890625"/></g><path fill="#FFF" d="M 144.832031 314.25 C 125.636719 314.25 109.65625 300.390625 106.796875 281.6875 C 106.496094 281.703125 106.183594 281.703125 105.882812 281.703125 C 81.898438 281.703125 62.386719 262.191406 62.386719 238.222656 C 62.386719 229.300781 65.042969 220.804688 70.0625 213.542969 C 61.976562 205.429688 57.378906 194.347656 57.378906 182.855469 C 57.378906 160.621094 74.25 141.988281 96.140625 139.621094 C 98.945312 118.113281 117.632812 101.53125 139.539062 101.53125 C 163.671875 101.53125 183.304688 121.164062 183.304688 145.296875 L 183.304688 275.777344 C 183.304688 296.984375 166.039062 314.25 144.832031 314.25"/><path d="M 139.539062 99.230469 C 127.921875 99.230469 116.8125 103.570312 108.289062 111.449219 C 100.75 118.398438 95.8125 127.566406 94.113281 137.554688 C 71.9375 140.835938 55.066406 160.03125 55.066406 182.855469 C 55.066406 194.332031 59.417969 205.402344 67.121094 213.800781 C 62.511719 221.09375 60.074219 229.453125 60.074219 238.222656 C 60.074219 263.125 80.078125 283.46875 104.867188 284 C 108.671875 302.839844 125.160156 316.5625 144.832031 316.5625 C 167.3125 316.5625 185.601562 298.257812 185.601562 275.777344 L 185.601562 145.296875 C 185.601562 119.890625 164.945312 99.230469 139.539062 99.230469 Z M 139.539062 103.84375 C 162.425781 103.84375 180.992188 122.394531 180.992188 145.296875 L 180.992188 275.777344 C 180.992188 295.753906 164.792969 311.9375 144.832031 311.9375 C 126.035156 311.9375 110.585938 297.613281 108.824219 279.28125 C 107.851562 279.347656 106.867188 279.390625 105.882812 279.390625 C 83.140625 279.390625 64.699219 260.960938 64.699219 238.222656 C 64.699219 228.835938 67.832031 220.191406 73.113281 213.269531 C 64.863281 205.742188 59.691406 194.90625 59.691406 182.855469 C 59.691406 160.992188 76.726562 143.121094 98.234375 141.769531 C 100.027344 120.519531 117.824219 103.84375 139.539062 103.84375"/><path stroke-linecap="round" transform="matrix(.13681 0 0 -.13681 -108.084 498.76)" fill="none" stroke-linejoin="round" d="M 1813.193215 1842.001882 C 1813.193215 1998.891321 1940.389293 2126.001746 2097.193078 2126.001746" stroke="#040505" stroke-width="33.737" stroke-miterlimit="10"/><path stroke-linecap="round" transform="matrix(.13681 0 0 -.13681 -108.084 498.76)" fill="none" stroke-linejoin="round" d="M 1699.587559 2236.809373 C 1800.088164 2236.809373 1881.602149 2155.295388 1881.602149 2054.794783" stroke="#040505" stroke-width="33.737" stroke-miterlimit="10"/><path stroke-linecap="round" transform="matrix(.13681 0 0 -.13681 -108.084 498.76)" fill="none" stroke-linejoin="round" d="M 1819.788567 2195.809694 C 1750.608747 2336.510542 1808.596454 2506.790544 1949.297301 2575.998915" stroke="#040505" stroke-width="33.737" stroke-miterlimit="10"/><path stroke-linecap="round" transform="matrix(.13681 0 0 -.13681 -108.084 498.76)" fill="none" stroke-linejoin="round" d="M 1790.209412 1513.005157 C 1633.405627 1513.005157 1506.209548 1640.08703 1506.209548 1797.00502" stroke="#040505" stroke-width="33.737" stroke-miterlimit="10"/><path stroke-linecap="round" transform="matrix(.13681 0 0 -.13681 -108.084 498.76)" fill="none" stroke-linejoin="round" d="M 1423.09669 1875.406913 C 1312.203408 1986.300194 1312.203408 2166.087783 1423.09669 2277.009615" stroke="#040505" stroke-width="33.737" stroke-miterlimit="10"/><path stroke-linecap="round" transform="matrix(.13681 0 0 -.13681 -108.084 498.76)" fill="none" stroke-linejoin="round" d="M 1953.808408 1399.79922 C 1861.187964 1399.79922 1786.098023 1474.803507 1786.098023 1567.395399 C 1786.098023 1659.987292 1861.187964 1735.105784 1953.808408 1735.105784" stroke="#040505" stroke-width="33.737" stroke-miterlimit="10"/><path stroke-linecap="round" transform="matrix(.13681 0 0 -.13681 -108.084 498.76)" fill="#FFF" stroke-linejoin="round" d="M 1800.00251 2426.39006 C 1738.103274 2426.39006 1687.910074 2476.611811 1687.910074 2538.511048 C 1687.910074 2600.410284 1738.103274 2650.603484 1800.00251 2650.603484" stroke="#040505" stroke-width="33.737" stroke-miterlimit="10"/><path fill="#FFF" d="M 220.75 314.25 C 199.53125 314.25 182.277344 296.984375 182.277344 275.777344 L 182.277344 145.296875 C 182.277344 121.164062 201.898438 101.53125 226.03125 101.53125 C 247.9375 101.53125 266.625 118.113281 269.429688 139.621094 C 291.320312 141.988281 308.191406 160.621094 308.191406 182.855469 C 308.191406 194.347656 303.59375 205.429688 295.507812 213.542969 C 300.527344 220.820312 303.183594 229.300781 303.183594 238.222656 C 303.183594 262.191406 283.671875 281.703125 259.703125 281.703125 C 259.386719 281.703125 259.085938 281.703125 258.773438 281.6875 C 255.914062 300.390625 239.933594 314.25 220.75 314.25"/><path d="M 226.03125 99.230469 C 200.625 99.230469 179.964844 119.890625 179.964844 145.296875 L 179.964844 275.777344 C 179.964844 298.257812 198.257812 316.5625 220.75 316.5625 C 240.410156 316.5625 256.898438 302.828125 260.703125 284 C 285.492188 283.46875 305.496094 263.125 305.496094 238.222656 C 305.496094 229.464844 303.074219 221.09375 298.449219 213.800781 C 306.152344 205.402344 310.5 194.332031 310.5 182.855469 C 310.5 160.03125 293.632812 140.835938 271.453125 137.554688 C 269.757812 127.566406 264.820312 118.398438 257.28125 111.449219 C 248.757812 103.570312 237.648438 99.230469 226.03125 99.230469 Z M 226.03125 103.84375 C 247.730469 103.84375 265.542969 120.519531 267.335938 141.769531 C 288.84375 143.121094 305.878906 160.992188 305.878906 182.855469 C 305.878906 194.90625 300.707031 205.742188 292.457031 213.269531 C 297.738281 220.191406 300.871094 228.835938 300.871094 238.222656 C 300.871094 260.960938 282.441406 279.390625 259.703125 279.390625 C 258.703125 279.390625 257.71875 279.347656 256.746094 279.28125 C 254.980469 297.613281 239.535156 311.9375 220.75 311.9375 C 200.777344 311.9375 184.578125 295.753906 184.578125 275.777344 L 184.578125 145.296875 C 184.578125 122.394531 203.144531 103.84375 226.03125 103.84375"/><path stroke-linecap="round" transform="matrix(.13681 0 0 -.13681 -108.084 498.76)" fill="none" stroke-linejoin="round" d="M 2582.394011 2063.103214 C 2434.41258 2114.895287 2272.298252 2036.893113 2220.506179 1888.911682" stroke="#040505" stroke-width="33.737" stroke-miterlimit="10"/><path stroke-linecap="round" transform="matrix(.13681 0 0 -.13681 -108.084 498.76)" fill="none" stroke-linejoin="round" d="M 2552.386586 2236.809373 C 2451.885981 2236.809373 2370.400547 2155.295388 2370.400547 2054.794783" stroke="#040505" stroke-width="33.737" stroke-miterlimit="10"/><path stroke-linecap="round" transform="matrix(.13681 0 0 -.13681 -108.084 498.76)" fill="none" stroke-linejoin="round" d="M 2432.214129 2195.809694 C 2501.393949 2336.510542 2443.491896 2506.790544 2302.705395 2575.998915" stroke="#040505" stroke-width="33.737" stroke-miterlimit="10"/><path stroke-linecap="round" transform="matrix(.13681 0 0 -.13681 -108.084 498.76)" fill="none" stroke-linejoin="round" d="M 2461.793285 1513.005157 C 2618.59707 1513.005157 2745.707494 1640.08703 2745.707494 1797.00502" stroke="#040505" stroke-width="33.737" stroke-miterlimit="10"/><path stroke-linecap="round" transform="matrix(.13681 0 0 -.13681 -108.084 498.76)" fill="none" stroke-linejoin="round" d="M 2828.906007 1875.406913 C 2939.799288 1986.300194 2939.799288 2166.087783 2828.906007 2277.009615" stroke="#040505" stroke-width="33.737" stroke-miterlimit="10"/><path stroke-linecap="round" transform="matrix(.13681 0 0 -.13681 -108.084 498.76)" fill="none" stroke-linejoin="round" d="M 2298.194288 1399.79922 C 2390.900386 1399.79922 2465.904673 1474.803507 2465.904673 1567.395399 C 2465.904673 1659.987292 2390.900386 1735.105784 2298.194288 1735.105784" stroke="#040505" stroke-width="33.737" stroke-miterlimit="10"/><path stroke-linecap="round" transform="matrix(.13681 0 0 -.13681 -108.084 498.76)" fill="#FFF" stroke-linejoin="round" d="M 2452.000186 2426.39006 C 2513.899422 2426.39006 2564.092622 2476.611811 2564.092622 2538.511048 C 2564.092622 2600.410284 2513.899422 2650.603484 2452.000186 2650.603484" stroke="#040505" stroke-width="33.737" stroke-miterlimit="10"/><g clip-path="url(#b)"><path fill="#004AAD" d="M 313.902344 185.472656 C 314.785156 172.945312 317.121094 109.875 278.839844 68.398438 C 256.25 43.914062 224.128906 31.886719 183.355469 32.6875 C 142.601562 31.917969 110.460938 43.917969 87.867188 68.398438 C 50.5625 108.824219 51.832031 169.761719 52.742188 184.425781 C 52.203125 186.453125 51.910156 188.585938 51.910156 190.785156 L 51.910156 247.027344 C 51.910156 260.664062 62.957031 271.71875 76.589844 271.71875 L 93.726562 271.71875 C 107.359375 271.71875 118.40625 260.664062 118.40625 247.027344 L 118.40625 190.785156 C 118.40625 177.148438 107.359375 166.09375 93.726562 166.09375 L 76.589844 166.09375 C 74.730469 166.09375 72.917969 166.308594 71.175781 166.695312 C 72.109375 144.273438 77.550781 106.824219 101.535156 80.890625 C 120.414062 60.480469 147.929688 50.46875 183.171875 51.207031 L 183.355469 51.210938 L 183.542969 51.207031 C 218.800781 50.5 246.300781 60.480469 265.179688 80.890625 C 289.191406 106.851562 294.617188 144.355469 295.542969 166.773438 C 293.699219 166.332031 291.777344 166.09375 289.800781 166.09375 L 272.660156 166.09375 C 259.03125 166.09375 247.984375 177.148438 247.984375 190.785156 L 247.984375 247.027344 C 247.984375 260.664062 259.03125 271.71875 272.660156 271.71875 L 289.800781 271.71875 C 303.429688 271.71875 314.480469 260.664062 314.480469 247.027344 L 314.480469 190.785156 C 314.480469 188.960938 314.277344 187.183594 313.902344 185.472656 Z M 313.902344 185.472656"/></g><path fill="#004AAD" d="M 45.910156 192.15625 L 31 200.898438 L 31 234.335938 L 45.910156 244.109375"/><g clip-path="url(#c)"><path fill="#004AAD" d="M 319.96875 192.15625 L 334.878906 200.898438 L 334.878906 234.335938 L 319.96875 244.109375"/></g></svg>