<svg xmlns="http://www.w3.org/2000/svg" width="375" viewBox="0 0 375 375" height="375" version="1.0"><defs><clipPath id="a"><path d="M 0 157.3125 L 187.671875 157.3125 L 187.671875 355.519531 L 0 355.519531 Z M 0 157.3125"/></clipPath><clipPath id="b"><path d="M 17 161.304688 L 160 161.304688 L 160 289.640625 L 17 289.640625 Z M 17 161.304688"/></clipPath><clipPath id="c"><path d="M 6.265625 247 L 15 247 L 15 277 L 6.265625 277 Z M 6.265625 247"/></clipPath><clipPath id="d"><path d="M 162 247 L 170.964844 247 L 170.964844 277 L 162 277 Z M 162 247"/></clipPath><clipPath id="e"><path d="M 183.28125 197.859375 L 291 197.859375 L 291 305.597656 L 183.28125 305.597656 Z M 183.28125 197.859375"/></clipPath><clipPath id="f"><path d="M 198 200.027344 L 276 200.027344 L 276 269.789062 L 198 269.789062 Z M 198 200.027344"/></clipPath><clipPath id="g"><path d="M 192.414062 247 L 197 247 L 197 263 L 192.414062 263 Z M 192.414062 247"/></clipPath><clipPath id="h"><path d="M 277 247 L 281.9375 247 L 281.9375 263 L 277 263 Z M 277 247"/></clipPath><clipPath id="i"><path d="M 297.566406 225.84375 L 358.589844 225.84375 L 358.589844 286.867188 L 297.566406 286.867188 Z M 297.566406 225.84375"/></clipPath><clipPath id="j"><path d="M 306 227.074219 L 351 227.074219 L 351 266.585938 L 306 266.585938 Z M 306 227.074219"/></clipPath><clipPath id="k"><path d="M 302.738281 253 L 306 253 L 306 263 L 302.738281 263 Z M 302.738281 253"/></clipPath><clipPath id="l"><path d="M 350 253 L 353.445312 253 L 353.445312 263 L 350 263 Z M 350 253"/></clipPath><clipPath id="m"><path d="M 50.382812 83.339844 L 111.40625 83.339844 L 111.40625 144.363281 L 50.382812 144.363281 Z M 50.382812 83.339844"/></clipPath><clipPath id="n"><path d="M 59 84.570312 L 103 84.570312 L 103 124.082031 L 59 124.082031 Z M 59 84.570312"/></clipPath><clipPath id="o"><path d="M 55.554688 111 L 59 111 L 59 120 L 55.554688 120 Z M 55.554688 111"/></clipPath><clipPath id="p"><path d="M 103 111 L 106.261719 111 L 106.261719 120 L 103 120 Z M 103 111"/></clipPath></defs><path fill="#FFF" d="M-37.5 -37.5H412.5V412.5H-37.5z"/><path fill="#FFF" d="M-37.5 -37.5H412.5V412.5H-37.5z"/><path fill="#FFF" d="M-37.5 -37.5H412.5V412.5H-37.5z"/><g clip-path="url(#a)"><path fill="#FFF" d="M 187.628906 256.378906 C 187.628906 311.109375 143.261719 355.472656 88.53125 355.472656 C 33.800781 355.472656 -10.5625 311.109375 -10.5625 256.378906 C -10.566406 201.648438 33.800781 157.28125 88.53125 157.28125 C 143.261719 157.28125 187.628906 201.648438 187.628906 256.378906"/></g><path fill="#FFF" d="M 67.960938 314.023438 C 57.558594 314.023438 48.898438 306.511719 47.347656 296.375 C 47.183594 296.382812 47.015625 296.382812 46.851562 296.382812 C 33.851562 296.382812 23.277344 285.808594 23.277344 272.816406 C 23.277344 267.984375 24.71875 263.378906 27.4375 259.441406 C 23.054688 255.042969 20.5625 249.035156 20.5625 242.808594 C 20.5625 230.757812 29.707031 220.660156 41.570312 219.375 C 43.089844 207.71875 53.21875 198.734375 65.09375 198.734375 C 78.171875 198.734375 88.8125 209.375 88.8125 222.453125 L 88.8125 293.171875 C 88.8125 304.664062 79.457031 314.023438 67.960938 314.023438"/><path d="M 65.09375 197.488281 C 58.796875 197.488281 52.777344 199.835938 48.15625 204.109375 C 44.070312 207.875 41.394531 212.84375 40.472656 218.257812 C 28.453125 220.035156 19.3125 230.441406 19.3125 242.808594 C 19.3125 249.03125 21.667969 255.027344 25.84375 259.582031 C 23.34375 263.535156 22.023438 268.0625 22.023438 272.816406 C 22.023438 286.3125 32.867188 297.339844 46.300781 297.628906 C 48.363281 307.839844 57.300781 315.277344 67.960938 315.277344 C 80.144531 315.277344 90.058594 305.355469 90.058594 293.171875 L 90.058594 222.453125 C 90.058594 208.683594 78.863281 197.488281 65.09375 197.488281 Z M 65.09375 199.984375 C 77.496094 199.984375 87.558594 210.039062 87.558594 222.453125 L 87.558594 293.171875 C 87.558594 303.996094 78.78125 312.769531 67.960938 312.769531 C 57.773438 312.769531 49.402344 305.007812 48.445312 295.070312 C 47.917969 295.105469 47.386719 295.128906 46.851562 295.128906 C 34.527344 295.128906 24.53125 285.140625 24.53125 272.816406 C 24.53125 267.730469 26.230469 263.042969 29.09375 259.292969 C 24.621094 255.214844 21.816406 249.339844 21.816406 242.808594 C 21.816406 230.957031 31.050781 221.273438 42.707031 220.539062 C 43.675781 209.023438 53.324219 199.984375 65.09375 199.984375"/><path stroke-linecap="round" transform="matrix(.07415 0 0 -.07415 -69.114 414.023)" fill="none" stroke-linejoin="round" d="M 1813.186054 1841.991261 C 1813.186054 1998.923472 1940.407031 2125.98641 2097.181203 2125.98641" stroke="#040505" stroke-width="33.737" stroke-miterlimit="10"/><path stroke-linecap="round" transform="matrix(.07415 0 0 -.07415 -69.114 414.023)" fill="none" stroke-linejoin="round" d="M 1699.609067 2236.824064 C 1800.12154 2236.824064 1881.616716 2155.276208 1881.616716 2054.816414" stroke="#040505" stroke-width="33.737" stroke-miterlimit="10"/><path stroke-linecap="round" transform="matrix(.07415 0 0 -.07415 -69.114 414.023)" fill="none" stroke-linejoin="round" d="M 1819.823671 2195.786738 C 1750.602816 2336.493665 1808.602938 2506.806467 1949.309865 2575.974642" stroke="#040505" stroke-width="33.737" stroke-miterlimit="10"/><path stroke-linecap="round" transform="matrix(.07415 0 0 -.07415 -69.114 414.023)" fill="none" stroke-linejoin="round" d="M 1790.217795 1513.007826 C 1633.390944 1513.007826 1506.222647 1640.123443 1506.222647 1797.002974" stroke="#040505" stroke-width="33.737" stroke-miterlimit="10"/><path stroke-linecap="round" transform="matrix(.07415 0 0 -.07415 -69.114 414.023)" fill="none" stroke-linejoin="round" d="M 1423.094407 1875.39006 C 1312.204073 1986.280394 1312.204073 2166.075504 1423.094407 2277.018517" stroke="#040505" stroke-width="33.737" stroke-miterlimit="10"/><path stroke-linecap="round" transform="matrix(.07415 0 0 -.07415 -69.114 414.023)" fill="none" stroke-linejoin="round" d="M 1953.787622 1399.799595 C 1861.177073 1399.799595 1786.108795 1474.815193 1786.108795 1567.425742 C 1786.108795 1659.983612 1861.177073 1735.104569 1953.787622 1735.104569" stroke="#040505" stroke-width="33.737" stroke-miterlimit="10"/><path stroke-linecap="round" transform="matrix(.07415 0 0 -.07415 -69.114 414.023)" fill="#FFF" stroke-linejoin="round" d="M 1800.016181 2426.41756 C 1738.117776 2426.41756 1687.914219 2476.621117 1687.914219 2538.519522 C 1687.914219 2600.417926 1738.117776 2650.621484 1800.016181 2650.621484" stroke="#040505" stroke-width="33.737" stroke-miterlimit="10"/><path fill="#FFF" d="M 109.109375 314.023438 C 97.609375 314.023438 88.257812 304.664062 88.257812 293.171875 L 88.257812 222.453125 C 88.257812 209.375 98.890625 198.734375 111.96875 198.734375 C 123.84375 198.734375 133.972656 207.71875 135.492188 219.375 C 147.355469 220.660156 156.5 230.757812 156.5 242.808594 C 156.5 249.035156 154.007812 255.042969 149.625 259.441406 C 152.347656 263.386719 153.785156 267.984375 153.785156 272.816406 C 153.785156 285.808594 143.210938 296.382812 130.21875 296.382812 C 130.046875 296.382812 129.886719 296.382812 129.714844 296.375 C 128.164062 306.511719 119.503906 314.023438 109.109375 314.023438"/><path d="M 111.96875 197.488281 C 98.199219 197.488281 87.003906 208.683594 87.003906 222.453125 L 87.003906 293.171875 C 87.003906 305.355469 96.917969 315.277344 109.109375 315.277344 C 119.765625 315.277344 128.699219 307.832031 130.761719 297.628906 C 144.195312 297.339844 155.039062 286.3125 155.039062 272.816406 C 155.039062 268.070312 153.726562 263.535156 151.21875 259.582031 C 155.394531 255.027344 157.75 249.03125 157.75 242.808594 C 157.75 230.441406 148.609375 220.035156 136.589844 218.257812 C 135.667969 212.84375 132.992188 207.875 128.90625 204.109375 C 124.289062 199.835938 118.265625 197.488281 111.972656 197.488281 Z M 111.96875 199.984375 C 123.730469 199.984375 133.386719 209.023438 134.355469 220.539062 C 146.011719 221.273438 155.246094 230.957031 155.246094 242.808594 C 155.246094 249.339844 152.441406 255.214844 147.972656 259.292969 C 150.832031 263.042969 152.53125 267.730469 152.53125 272.816406 C 152.53125 285.140625 142.542969 295.128906 130.21875 295.128906 C 129.679688 295.128906 129.144531 295.105469 128.617188 295.070312 C 127.660156 305.007812 119.289062 312.769531 109.109375 312.769531 C 98.28125 312.769531 89.503906 303.996094 89.503906 293.171875 L 89.503906 222.453125 C 89.503906 210.039062 99.566406 199.984375 111.96875 199.984375"/><path stroke-linecap="round" transform="matrix(.07415 0 0 -.07415 -69.114 414.023)" fill="none" stroke-linejoin="round" d="M 2582.412016 2063.087095 C 2434.382639 2114.923716 2272.287839 2036.905387 2220.503897 1888.87601" stroke="#040505" stroke-width="33.737" stroke-miterlimit="10"/><path stroke-linecap="round" transform="matrix(.07415 0 0 -.07415 -69.114 414.023)" fill="none" stroke-linejoin="round" d="M 2552.384704 2236.824064 C 2451.924911 2236.824064 2370.377055 2155.276208 2370.377055 2054.816414" stroke="#040505" stroke-width="33.737" stroke-miterlimit="10"/><path stroke-linecap="round" transform="matrix(.07415 0 0 -.07415 -69.114 414.023)" fill="none" stroke-linejoin="round" d="M 2432.22278 2195.786738 C 2501.390955 2336.493665 2443.496192 2506.806467 2302.683906 2575.974642" stroke="#040505" stroke-width="33.737" stroke-miterlimit="10"/><path stroke-linecap="round" transform="matrix(.07415 0 0 -.07415 -69.114 414.023)" fill="none" stroke-linejoin="round" d="M 2461.775976 1513.007826 C 2618.602827 1513.007826 2745.718445 1640.123443 2745.718445 1797.002974" stroke="#040505" stroke-width="33.737" stroke-miterlimit="10"/><path stroke-linecap="round" transform="matrix(.07415 0 0 -.07415 -69.114 414.023)" fill="none" stroke-linejoin="round" d="M 2828.899365 1875.39006 C 2939.789698 1986.280394 2939.789698 2166.075504 2828.899365 2277.018517" stroke="#040505" stroke-width="33.737" stroke-miterlimit="10"/><path stroke-linecap="round" transform="matrix(.07415 0 0 -.07415 -69.114 414.023)" fill="none" stroke-linejoin="round" d="M 2298.206149 1399.799595 C 2390.922057 1399.799595 2465.884976 1474.815193 2465.884976 1567.425742 C 2465.884976 1659.983612 2390.922057 1735.104569 2298.206149 1735.104569" stroke="#040505" stroke-width="33.737" stroke-miterlimit="10"/><path stroke-linecap="round" transform="matrix(.07415 0 0 -.07415 -69.114 414.023)" fill="#FFF" stroke-linejoin="round" d="M 2451.97759 2426.41756 C 2513.875995 2426.41756 2564.079552 2476.621117 2564.079552 2538.519522 C 2564.079552 2600.417926 2513.875995 2650.621484 2451.97759 2650.621484" stroke="#040505" stroke-width="33.737" stroke-miterlimit="10"/><g clip-path="url(#b)"><path fill="#004AAD" d="M 159.59375 244.226562 C 160.074219 237.4375 161.339844 203.257812 140.59375 180.777344 C 128.347656 167.507812 110.9375 160.988281 88.839844 161.421875 C 66.753906 161.003906 49.332031 167.507812 37.089844 180.777344 C 16.867188 202.683594 17.558594 235.710938 18.050781 243.660156 C 17.757812 244.761719 17.601562 245.914062 17.601562 247.105469 L 17.601562 277.589844 C 17.601562 284.980469 23.585938 290.96875 30.976562 290.96875 L 40.265625 290.96875 C 47.652344 290.96875 53.640625 284.980469 53.640625 277.589844 L 53.640625 247.105469 C 53.640625 239.714844 47.652344 233.722656 40.265625 233.722656 L 30.976562 233.722656 C 29.96875 233.722656 28.984375 233.839844 28.039062 234.050781 C 28.546875 221.898438 31.496094 201.601562 44.496094 187.546875 C 54.726562 176.484375 69.640625 171.058594 88.742188 171.457031 L 88.839844 171.460938 L 88.941406 171.457031 C 108.050781 171.074219 122.957031 176.484375 133.1875 187.546875 C 146.203125 201.617188 149.144531 221.941406 149.644531 234.09375 C 148.644531 233.855469 147.605469 233.722656 146.53125 233.722656 L 137.242188 233.722656 C 129.855469 233.722656 123.867188 239.714844 123.867188 247.105469 L 123.867188 277.589844 C 123.867188 284.980469 129.855469 290.96875 137.242188 290.96875 L 146.53125 290.96875 C 153.917969 290.96875 159.910156 284.980469 159.910156 277.589844 L 159.910156 247.105469 C 159.910156 246.117188 159.796875 245.15625 159.59375 244.226562 Z M 159.59375 244.226562"/></g><g clip-path="url(#c)"><path fill="#004AAD" d="M 14.347656 247.851562 L 6.265625 252.589844 L 6.265625 270.710938 L 14.347656 276.007812"/></g><g clip-path="url(#d)"><path fill="#004AAD" d="M 162.882812 247.851562 L 170.964844 252.589844 L 170.964844 270.710938 L 162.882812 276.007812"/></g><path transform="matrix(.75 0 0 .75 86.66 36.676)" fill="none" d="M 20.666671 26.124567 L 6.380212 10.218316 L 4.057295 10.218316 L 4.057295 46.999569 L 11.401045 46.999569 L 11.401045 26.791234 L 20.666671 36.509985 L 29.942713 26.791234 L 29.895838 46.999569 L 37.239589 46.999569 L 37.239589 10.218316 L 34.95313 10.218316 Z M 71.380216 34.384984 L 71.380216 10.775608 L 64.177091 10.775608 L 64.177091 34.332901 C 64.177091 41.926652 52.432298 41.926652 52.432298 34.332901 L 52.432298 10.775608 L 45.182298 10.775608 L 45.182298 34.384984 C 45.182298 51.614152 71.380216 51.614152 71.380216 34.384984 Z M 77.71355 44.676652 C 82.625008 47.197485 87.125009 47.457902 89.151051 47.30686 C 95.942718 46.952694 100.098968 42.33811 100.098968 36.312068 C 100.098968 30.536026 95.239593 27.296442 89.609384 25.218317 C 87.531259 24.504775 85.765634 23.598525 85.552092 21.572484 C 85.406259 19.541233 86.567717 17.661025 89.151051 17.515192 C 90.265634 17.463108 92.557301 17.416233 96.552093 19.036025 L 97.463551 12.046441 C 92.802092 10.42665 90.317717 10.42665 88.447925 10.525608 C 82.411467 10.822483 78.208341 15.483942 78.208341 21.572484 C 78.208341 27.645401 83.281258 30.536026 88.953134 32.614151 C 90.984384 33.322484 92.557301 34.233943 92.703134 36.312068 C 92.901051 38.280818 91.083342 39.801651 88.953134 39.96311 C 87.286467 40.108943 82.770842 40.009985 78.614591 37.067276 Z M 113.416677 46.999569 L 113.416677 10.775608 L 106.182302 10.775608 L 106.182302 46.999569 Z M 113.416677 46.999569" stroke="#004AAD" stroke-width="1.9"/><g fill="#004AAD"><g><g><path d="M 12.957031 0 L 12.957031 -21.734375 L 19.71875 -21.734375 L 19.71875 -27.128906 L 0.761719 -27.128906 L 0.761719 -21.734375 L 7.523438 -21.734375 L 7.523438 0 Z M 12.957031 0" transform="translate(174.809 71.926)"/></g></g></g><g fill="#004AAD"><g><g><path d="M 8.472656 0 L 8.472656 -27.167969 L 3.039062 -27.167969 L 3.039062 0 Z M 8.472656 0" transform="translate(195.59 71.926)"/></g></g></g><g fill="#004AAD"><g><g><path d="M 11.472656 0.570312 L 12.691406 0.570312 L 23.9375 -27.167969 L 17.667969 -27.167969 L 14.019531 -17.933594 L 12.082031 -12.5 L 10.105469 -18.125 L 6.496094 -27.167969 L 0.226562 -27.167969 Z M 11.472656 0.570312" transform="translate(207.14 71.926)"/></g></g></g><g fill="#004AAD"><g><g><path d="M 8.472656 0 L 8.472656 -27.167969 L 3.039062 -27.167969 L 3.039062 0 Z M 8.472656 0" transform="translate(231.341 71.926)"/></g></g></g><g fill="#004AAD"><g><g><path d="M 12.957031 0 L 12.957031 -21.734375 L 19.71875 -21.734375 L 19.71875 -27.128906 L 0.761719 -27.128906 L 0.761719 -21.734375 L 7.523438 -21.734375 L 7.523438 0 Z M 12.957031 0" transform="translate(242.89 71.926)"/></g></g></g><g fill="#004AAD"><g><g><path d="M 9.6875 0 L 15.085938 0 L 15.085938 -12.234375 L 24.582031 -27.167969 L 17.933594 -27.167969 L 12.386719 -17.820312 L 6.839844 -27.167969 L 0.226562 -27.167969 L 9.6875 -12.234375 Z M 9.6875 0" transform="translate(263.672 71.926)"/></g></g></g><path transform="matrix(.75 0 0 .75 19.514 -1.5)" fill="none" d="M 22.711034 21.515596 L 11.429783 8.958304 L 9.591241 8.958304 L 9.591241 37.999972 L 15.393325 37.999972 L 15.393325 22.041638 L 22.711034 29.718722 L 30.033951 22.041638 L 29.992284 37.999972 L 35.794368 37.999972 L 35.794368 8.958304 L 33.987076 8.958304 Z M 62.752703 28.041638 L 62.752703 9.395804 L 57.065203 9.395804 L 57.065203 27.999972 C 57.065203 33.994764 47.789161 33.994764 47.789161 27.999972 L 47.789161 9.395804 L 42.065202 9.395804 L 42.065202 28.041638 C 42.065202 41.640598 62.752703 41.640598 62.752703 28.041638 Z M 67.757912 36.166639 C 71.632912 38.156222 75.184996 38.359347 76.789162 38.244764 C 82.148538 37.963514 85.429788 34.31768 85.429788 29.562472 C 85.429788 24.999971 81.591246 22.44268 77.148538 20.802055 C 75.507912 20.234346 74.112079 19.526013 73.945412 17.921846 C 73.830829 16.322888 74.747496 14.838512 76.789162 14.718721 C 77.669371 14.682262 79.476663 14.640596 82.627705 15.921846 L 83.351663 10.401012 C 79.669371 9.12497 77.705829 9.12497 76.231871 9.203095 C 71.466245 9.43747 68.148537 13.119762 68.148537 17.921846 C 68.148537 22.718721 72.148537 24.999971 76.632912 26.640597 C 78.231871 27.197888 79.476663 27.921847 79.591246 29.562472 C 79.747496 31.114555 78.309996 32.31768 76.632912 32.44268 C 75.315204 32.562472 71.747495 32.484347 68.466245 30.156222 Z M 95.945414 37.999972 L 95.945414 9.395804 L 90.231872 9.395804 L 90.231872 37.999972 Z M 120.58604 16.036429 L 121.268332 10.15622 C 119.549582 9.395804 117.627707 9.046845 115.627707 9.046845 C 96.26833 9.046845 96.231872 38.078097 115.627707 38.078097 C 117.627707 38.078097 120.14854 37.598931 121.914165 36.874972 L 121.153749 30.958305 C 120.070415 31.515597 118.106874 32.239555 115.627707 32.239555 C 104.309998 32.239555 104.309998 14.796846 115.627707 14.796846 C 118.106874 14.796846 119.513124 15.479138 120.58604 16.036429 Z M 120.58604 16.036429" stroke="#004AAD" stroke-width="1.5"/><g fill="#004AAD"><g><g><path d="M 9.625 -11.640625 L 15.59375 -11.640625 L 15.59375 -9.515625 L 9.625 -9.515625 L 9.625 -3.328125 L 7.46875 -3.328125 L 7.46875 -9.515625 L 1.5 -9.515625 L 1.5 -11.640625 L 7.46875 -11.640625 L 7.46875 -17.84375 L 9.625 -17.84375 Z M 9.625 -11.640625" transform="translate(117.008 27)"/></g></g></g><g fill="#004AAD"><g><g><path d="M 6.691406 0 L 6.691406 -8.191406 L 10.828125 -8.191406 C 19.140625 -8.191406 19.171875 -21.421875 10.828125 -21.421875 L 2.398438 -21.421875 L 2.398438 0 Z M 6.691406 -12.359375 L 6.691406 -17.160156 L 10.46875 -17.160156 C 13.351562 -17.160156 13.351562 -12.359375 10.46875 -12.359375 Z M 6.691406 -12.359375" transform="translate(138.15 27)"/></g></g></g><g fill="#004AAD"><g><g><path d="M 13.078125 0 L 17.941406 0 L 12.960938 -8.851562 C 19.261719 -10.679688 18.511719 -21.449219 10.859375 -21.449219 L 2.398438 -21.449219 L 2.398438 0 L 6.691406 0 L 6.691406 -8.191406 L 8.761719 -8.191406 Z M 6.691406 -12.359375 L 6.691406 -17.160156 L 10.46875 -17.160156 C 13.378906 -17.160156 13.378906 -12.359375 10.46875 -12.359375 Z M 6.691406 -12.359375" transform="translate(156.24 27)"/></g></g></g><g fill="#004AAD"><g><g><path d="M 12.71875 0.300781 C 27.480469 0.300781 27.480469 -21.808594 12.71875 -21.808594 C -2.039062 -21.808594 -2.039062 0.300781 12.71875 0.300781 Z M 12.71875 -4.140625 C 4.140625 -4.140625 4.140625 -17.398438 12.71875 -17.398438 C 21.300781 -17.398438 21.300781 -4.140625 12.71875 -4.140625 Z M 12.71875 -4.140625" transform="translate(174.63 27)"/></g></g></g><g fill="#004AAD"><g><g><path d="M 8.789062 -21.449219 L 2.398438 -21.449219 L 2.398438 0 L 8.789062 0 C 23.070312 0 23.070312 -21.449219 8.789062 -21.449219 Z M 8.789062 -17.160156 C 17.128906 -17.160156 17.128906 -4.289062 8.789062 -4.289062 L 6.691406 -4.289062 L 6.691406 -17.160156 Z M 8.789062 -17.160156" transform="translate(200.04 27)"/></g></g></g><g fill="#004AAD"><g><g><path d="M 17.789062 -7.46875 L 17.789062 -21.449219 L 13.53125 -21.449219 L 13.53125 -7.5 C 13.53125 -3 6.570312 -3 6.570312 -7.5 L 6.570312 -21.449219 L 2.28125 -21.449219 L 2.28125 -7.46875 C 2.28125 2.730469 17.789062 2.730469 17.789062 -7.46875 Z M 17.789062 -7.46875" transform="translate(221.16 27)"/></g></g></g><g fill="#004AAD"><g><g><path d="M 16.050781 -16.46875 L 16.558594 -20.878906 C 15.269531 -21.449219 13.828125 -21.71875 12.328125 -21.71875 C -2.191406 -21.71875 -2.21875 0.0585938 12.328125 0.0585938 C 13.828125 0.0585938 15.71875 -0.300781 17.039062 -0.839844 L 16.46875 -5.28125 C 15.660156 -4.859375 14.191406 -4.320312 12.328125 -4.320312 C 3.839844 -4.320312 3.839844 -17.398438 12.328125 -17.398438 C 14.191406 -17.398438 15.238281 -16.890625 16.050781 -16.46875 Z M 16.050781 -16.46875" transform="translate(241.29 27)"/></g></g></g><g fill="#004AAD"><g><g><path d="M 10.230469 0 L 10.230469 -17.160156 L 15.570312 -17.160156 L 15.570312 -21.421875 L 0.601562 -21.421875 L 0.601562 -17.160156 L 5.941406 -17.160156 L 5.941406 0 Z M 10.230469 0" transform="translate(259.35 27)"/></g></g></g><g fill="#004AAD"><g><g><path d="M 6.691406 0 L 6.691406 -21.449219 L 2.398438 -21.449219 L 2.398438 0 Z M 6.691406 0" transform="translate(275.76 27)"/></g></g></g><g fill="#004AAD"><g><g><path d="M 9.058594 0.449219 L 10.019531 0.449219 L 18.898438 -21.449219 L 13.949219 -21.449219 L 11.070312 -14.160156 L 9.539062 -9.871094 L 7.980469 -14.308594 L 5.128906 -21.449219 L 0.179688 -21.449219 Z M 9.058594 0.449219" transform="translate(284.88 27)"/></g></g></g><g fill="#004AAD"><g><g><path d="M 6.691406 0 L 6.691406 -21.449219 L 2.398438 -21.449219 L 2.398438 0 Z M 6.691406 0" transform="translate(303.99 27)"/></g></g></g><g fill="#004AAD"><g><g><path d="M 10.230469 0 L 10.230469 -17.160156 L 15.570312 -17.160156 L 15.570312 -21.421875 L 0.601562 -21.421875 L 0.601562 -17.160156 L 5.941406 -17.160156 L 5.941406 0 Z M 10.230469 0" transform="translate(313.11 27)"/></g></g></g><g fill="#004AAD"><g><g><path d="M 7.648438 0 L 11.910156 0 L 11.910156 -9.660156 L 19.410156 -21.449219 L 14.160156 -21.449219 L 9.78125 -14.070312 L 5.398438 -21.449219 L 0.179688 -21.449219 L 7.648438 -9.660156 Z M 7.648438 0" transform="translate(329.52 27)"/></g></g></g><g clip-path="url(#e)"><path fill="#FFF" d="M 290.996094 251.707031 C 290.996094 281.457031 266.878906 305.574219 237.128906 305.574219 C 207.378906 305.574219 183.261719 281.457031 183.261719 251.707031 C 183.261719 221.957031 207.378906 197.839844 237.128906 197.839844 C 266.878906 197.839844 290.996094 221.957031 290.996094 251.707031"/></g><path fill="#FFF" d="M 225.949219 283.042969 C 220.292969 283.042969 215.585938 278.960938 214.742188 273.449219 C 214.652344 273.453125 214.5625 273.453125 214.472656 273.453125 C 207.40625 273.453125 201.660156 267.707031 201.660156 260.644531 C 201.660156 258.015625 202.441406 255.511719 203.921875 253.371094 C 201.539062 250.980469 200.183594 247.71875 200.183594 244.332031 C 200.183594 237.78125 205.152344 232.292969 211.601562 231.59375 C 212.429688 225.257812 217.933594 220.375 224.386719 220.375 C 231.5 220.375 237.28125 226.15625 237.28125 233.265625 L 237.28125 271.707031 C 237.28125 277.957031 232.195312 283.042969 225.949219 283.042969"/><path d="M 224.386719 219.695312 C 220.964844 219.695312 217.695312 220.972656 215.183594 223.296875 C 212.960938 225.34375 211.507812 228.042969 211.007812 230.984375 C 204.472656 231.953125 199.503906 237.609375 199.503906 244.332031 C 199.503906 247.714844 200.785156 250.972656 203.054688 253.449219 C 201.695312 255.597656 200.976562 258.058594 200.976562 260.644531 C 200.976562 267.980469 206.871094 273.972656 214.175781 274.128906 C 215.296875 279.679688 220.152344 283.722656 225.949219 283.722656 C 232.570312 283.722656 237.960938 278.332031 237.960938 271.707031 L 237.960938 233.265625 C 237.960938 225.78125 231.875 219.695312 224.386719 219.695312 Z M 224.386719 221.054688 C 231.132812 221.054688 236.601562 226.519531 236.601562 233.265625 L 236.601562 271.707031 C 236.601562 277.59375 231.828125 282.359375 225.949219 282.359375 C 220.410156 282.359375 215.859375 278.140625 215.339844 272.738281 C 215.054688 272.761719 214.761719 272.773438 214.472656 272.773438 C 207.773438 272.773438 202.339844 267.34375 202.339844 260.644531 C 202.339844 257.878906 203.261719 255.332031 204.820312 253.292969 C 202.390625 251.074219 200.867188 247.882812 200.867188 244.332031 C 200.867188 237.890625 205.882812 232.625 212.21875 232.226562 C 212.746094 225.96875 217.992188 221.054688 224.386719 221.054688"/><path stroke-linecap="round" transform="matrix(.0403 0 0 -.0403 151.437 337.4)" fill="none" stroke-linejoin="round" d="M 1813.153804 1841.964574 C 1813.153804 1998.866334 1940.400259 2126.015877 2097.205107 2126.015877" stroke="#040505" stroke-width="33.737" stroke-miterlimit="10"/><path stroke-linecap="round" transform="matrix(.0403 0 0 -.0403 151.437 337.4)" fill="none" stroke-linejoin="round" d="M 1699.572048 2236.787163 C 1800.070581 2236.787163 1881.574213 2155.283531 1881.574213 2054.784998" stroke="#040505" stroke-width="33.737" stroke-miterlimit="10"/><path stroke-linecap="round" transform="matrix(.0403 0 0 -.0403 151.437 337.4)" fill="none" stroke-linejoin="round" d="M 1819.840784 2195.793065 C 1750.645073 2336.510394 1808.598904 2506.786115 1949.316233 2575.981827" stroke="#040505" stroke-width="33.737" stroke-miterlimit="10"/><path stroke-linecap="round" transform="matrix(.0403 0 0 -.0403 151.437 337.4)" fill="none" stroke-linejoin="round" d="M 1790.18548 1513.042663 C 1633.380632 1513.042663 1506.23109 1640.095293 1506.23109 1796.997053" stroke="#040505" stroke-width="33.737" stroke-miterlimit="10"/><path stroke-linecap="round" transform="matrix(.0403 0 0 -.0403 151.437 337.4)" fill="none" stroke-linejoin="round" d="M 1423.079941 1875.399477 C 1312.211742 1986.267675 1312.211742 2166.13776 1423.079941 2277.005959" stroke="#040505" stroke-width="33.737" stroke-miterlimit="10"/><path stroke-linecap="round" transform="matrix(.0403 0 0 -.0403 151.437 337.4)" fill="none" stroke-linejoin="round" d="M 1953.77422 1399.751645 C 1861.222533 1399.751645 1786.115144 1474.762122 1786.115144 1567.410722 C 1786.115144 1659.962409 1861.222533 1735.069799 1953.77422 1735.069799" stroke="#040505" stroke-width="33.737" stroke-miterlimit="10"/><path stroke-linecap="round" transform="matrix(.0403 0 0 -.0403 151.437 337.4)" fill="#FFF" stroke-linejoin="round" d="M 1799.973668 2426.445436 C 1738.143327 2426.445436 1687.942517 2476.646247 1687.942517 2538.476588 C 1687.942517 2600.403842 1738.143327 2650.604653 1799.973668 2650.604653" stroke="#040505" stroke-width="33.737" stroke-miterlimit="10"/><path fill="#FFF" d="M 248.316406 283.042969 C 242.0625 283.042969 236.980469 277.957031 236.980469 271.707031 L 236.980469 233.265625 C 236.980469 226.15625 242.761719 220.375 249.871094 220.375 C 256.324219 220.375 261.828125 225.257812 262.65625 231.59375 C 269.105469 232.292969 274.074219 237.78125 274.074219 244.332031 C 274.074219 247.71875 272.71875 250.980469 270.339844 253.371094 C 271.816406 255.515625 272.597656 258.015625 272.597656 260.644531 C 272.597656 267.707031 266.851562 273.453125 259.789062 273.453125 C 259.695312 273.453125 259.609375 273.453125 259.515625 273.449219 C 258.671875 278.960938 253.964844 283.042969 248.316406 283.042969"/><path d="M 249.871094 219.695312 C 242.386719 219.695312 236.300781 225.78125 236.300781 233.265625 L 236.300781 271.707031 C 236.300781 278.332031 241.6875 283.722656 248.316406 283.722656 C 254.105469 283.722656 258.964844 279.675781 260.085938 274.128906 C 267.386719 273.972656 273.28125 267.980469 273.28125 260.644531 C 273.28125 258.0625 272.566406 255.597656 271.203125 253.449219 C 273.472656 250.972656 274.753906 247.714844 274.753906 244.332031 C 274.753906 237.609375 269.785156 231.953125 263.253906 230.984375 C 262.753906 228.042969 261.296875 225.34375 259.078125 223.296875 C 256.566406 220.972656 253.292969 219.695312 249.871094 219.695312 Z M 249.871094 221.054688 C 256.261719 221.054688 261.511719 225.96875 262.039062 232.226562 C 268.375 232.625 273.394531 237.890625 273.394531 244.332031 C 273.394531 247.882812 271.871094 251.074219 269.4375 253.292969 C 270.996094 255.332031 271.917969 257.878906 271.917969 260.644531 C 271.917969 267.34375 266.488281 272.773438 259.789062 272.773438 C 259.496094 272.773438 259.207031 272.761719 258.917969 272.738281 C 258.398438 278.140625 253.847656 282.359375 248.316406 282.359375 C 242.429688 282.359375 237.65625 277.59375 237.65625 271.707031 L 237.65625 233.265625 C 237.65625 226.519531 243.128906 221.054688 249.871094 221.054688"/><path stroke-linecap="round" transform="matrix(.0403 0 0 -.0403 151.437 337.4)" fill="none" stroke-linejoin="round" d="M 2582.447302 2063.119495 C 2434.364603 2114.870909 2272.326466 2036.856137 2220.478139 1888.870351" stroke="#040505" stroke-width="33.737" stroke-miterlimit="10"/><path stroke-linecap="round" transform="matrix(.0403 0 0 -.0403 151.437 337.4)" fill="none" stroke-linejoin="round" d="M 2552.404346 2236.787163 C 2451.905812 2236.787163 2370.40218 2155.283531 2370.40218 2054.784998" stroke="#040505" stroke-width="33.737" stroke-miterlimit="10"/><path stroke-linecap="round" transform="matrix(.0403 0 0 -.0403 151.437 337.4)" fill="none" stroke-linejoin="round" d="M 2432.232522 2195.793065 C 2501.428233 2336.510394 2443.474402 2506.786115 2302.66016 2575.981827" stroke="#040505" stroke-width="33.737" stroke-miterlimit="10"/><path stroke-linecap="round" transform="matrix(.0403 0 0 -.0403 151.437 337.4)" fill="none" stroke-linejoin="round" d="M 2461.790914 1513.042663 C 2618.595761 1513.042663 2745.745304 1640.095293 2745.745304 1796.997053" stroke="#040505" stroke-width="33.737" stroke-miterlimit="10"/><path stroke-linecap="round" transform="matrix(.0403 0 0 -.0403 151.437 337.4)" fill="none" stroke-linejoin="round" d="M 2828.896453 1875.399477 C 2939.764652 1986.267675 2939.764652 2166.13776 2828.896453 2277.005959" stroke="#040505" stroke-width="33.737" stroke-miterlimit="10"/><path stroke-linecap="round" transform="matrix(.0403 0 0 -.0403 151.437 337.4)" fill="none" stroke-linejoin="round" d="M 2298.202173 1399.751645 C 2390.947686 1399.751645 2465.86125 1474.762122 2465.86125 1567.410722 C 2465.86125 1659.962409 2390.947686 1735.069799 2298.202173 1735.069799" stroke="#040505" stroke-width="33.737" stroke-miterlimit="10"/><path stroke-linecap="round" transform="matrix(.0403 0 0 -.0403 151.437 337.4)" fill="#FFF" stroke-linejoin="round" d="M 2452.002725 2426.445436 C 2513.929979 2426.445436 2564.13079 2476.646247 2564.13079 2538.476588 C 2564.13079 2600.403842 2513.929979 2650.604653 2452.002725 2650.604653" stroke="#040505" stroke-width="33.737" stroke-miterlimit="10"/><g clip-path="url(#f)"><path fill="#004AAD" d="M 275.757812 245.101562 C 276.019531 241.414062 276.707031 222.832031 265.429688 210.613281 C 258.773438 203.398438 249.308594 199.855469 237.296875 200.089844 C 225.292969 199.863281 215.824219 203.398438 209.167969 210.613281 C 198.175781 222.519531 198.550781 240.472656 198.816406 244.792969 C 198.660156 245.390625 198.574219 246.019531 198.574219 246.667969 L 198.574219 263.238281 C 198.574219 267.253906 201.828125 270.511719 205.84375 270.511719 L 210.890625 270.511719 C 214.90625 270.511719 218.164062 267.253906 218.164062 263.238281 L 218.164062 246.667969 C 218.164062 242.652344 214.90625 239.394531 210.890625 239.394531 L 205.84375 239.394531 C 205.296875 239.394531 204.761719 239.457031 204.25 239.570312 C 204.523438 232.964844 206.125 221.933594 213.191406 214.292969 C 218.753906 208.28125 226.859375 205.328125 237.242188 205.546875 L 237.351562 205.546875 C 247.738281 205.339844 255.839844 208.28125 261.402344 214.292969 C 268.476562 221.941406 270.078125 232.988281 270.347656 239.59375 C 269.804688 239.464844 269.238281 239.394531 268.65625 239.394531 L 263.609375 239.394531 C 259.59375 239.394531 256.335938 242.652344 256.335938 246.667969 L 256.335938 263.238281 C 256.335938 267.253906 259.59375 270.511719 263.609375 270.511719 L 268.65625 270.511719 C 272.671875 270.511719 275.929688 267.253906 275.929688 263.238281 L 275.929688 246.667969 C 275.929688 246.128906 275.867188 245.605469 275.757812 245.101562 Z M 275.757812 245.101562"/></g><g clip-path="url(#g)"><path fill="#004AAD" d="M 196.804688 247.074219 L 192.414062 249.648438 L 192.414062 259.5 L 196.804688 262.378906"/></g><g clip-path="url(#h)"><path fill="#004AAD" d="M 277.542969 247.074219 L 281.9375 249.648438 L 281.9375 259.5 L 277.542969 262.378906"/></g><g clip-path="url(#i)"><path fill="#FFF" d="M 358.578125 256.34375 C 358.578125 273.195312 344.917969 286.851562 328.066406 286.851562 C 311.21875 286.851562 297.558594 273.195312 297.558594 256.34375 C 297.558594 239.492188 311.21875 225.835938 328.066406 225.835938 C 344.917969 225.835938 358.578125 239.492188 358.578125 256.34375"/></g><path fill="#FFF" d="M 321.734375 274.089844 C 318.53125 274.089844 315.863281 271.777344 315.386719 268.65625 C 315.335938 268.660156 315.285156 268.660156 315.234375 268.660156 C 311.234375 268.660156 307.976562 265.40625 307.976562 261.40625 C 307.976562 259.917969 308.421875 258.5 309.257812 257.285156 C 307.910156 255.933594 307.140625 254.085938 307.140625 252.167969 C 307.140625 248.457031 309.957031 245.347656 313.609375 244.953125 C 314.078125 241.363281 317.195312 238.597656 320.851562 238.597656 C 324.878906 238.597656 328.152344 241.871094 328.152344 245.898438 L 328.152344 267.671875 C 328.152344 271.210938 325.273438 274.089844 321.734375 274.089844"/><path d="M 320.851562 238.214844 C 318.914062 238.214844 317.058594 238.9375 315.636719 240.25 C 314.378906 241.410156 313.554688 242.941406 313.273438 244.609375 C 309.570312 245.15625 306.757812 248.359375 306.757812 252.167969 C 306.757812 254.082031 307.480469 255.929688 308.765625 257.332031 C 308 258.546875 307.589844 259.941406 307.589844 261.40625 C 307.589844 265.558594 310.929688 268.953125 315.066406 269.042969 C 315.699219 272.1875 318.453125 274.476562 321.734375 274.476562 C 325.484375 274.476562 328.539062 271.421875 328.539062 267.671875 L 328.539062 245.898438 C 328.539062 241.660156 325.089844 238.214844 320.851562 238.214844 Z M 320.851562 238.984375 C 324.671875 238.984375 327.769531 242.078125 327.769531 245.898438 L 327.769531 267.671875 C 327.769531 271.003906 325.066406 273.707031 321.734375 273.707031 C 318.597656 273.707031 316.019531 271.316406 315.726562 268.257812 C 315.5625 268.269531 315.398438 268.273438 315.234375 268.273438 C 311.441406 268.273438 308.363281 265.199219 308.363281 261.40625 C 308.363281 259.839844 308.886719 258.394531 309.765625 257.242188 C 308.390625 255.984375 307.527344 254.175781 307.527344 252.167969 C 307.527344 248.519531 310.371094 245.535156 313.957031 245.3125 C 314.257812 241.765625 317.226562 238.984375 320.851562 238.984375"/><path stroke-linecap="round" transform="matrix(.02283 0 0 -.02283 279.532 304.88)" fill="none" stroke-linejoin="round" d="M 1813.178482 1841.977395 C 1813.178482 1998.882757 1940.482288 2126.015456 2097.216543 2126.015456" stroke="#040505" stroke-width="33.737" stroke-miterlimit="10"/><path stroke-linecap="round" transform="matrix(.02283 0 0 -.02283 279.532 304.88)" fill="none" stroke-linejoin="round" d="M 1699.563258 2236.721856 C 1800.17433 2236.721856 1881.621389 2155.274798 1881.621389 2054.834833" stroke="#040505" stroke-width="33.737" stroke-miterlimit="10"/><path stroke-linecap="round" transform="matrix(.02283 0 0 -.02283 279.532 304.88)" fill="none" stroke-linejoin="round" d="M 1819.851666 2195.82722 C 1750.553223 2336.477392 1808.558586 2506.729122 1949.379866 2576.027564" stroke="#040505" stroke-width="33.737" stroke-miterlimit="10"/><path stroke-linecap="round" transform="matrix(.02283 0 0 -.02283 279.532 304.88)" fill="none" stroke-linejoin="round" d="M 1790.250109 1512.938123 C 1633.344746 1512.938123 1506.212048 1640.070821 1506.212048 1796.976184" stroke="#040505" stroke-width="33.737" stroke-miterlimit="10"/><path stroke-linecap="round" transform="matrix(.02283 0 0 -.02283 279.532 304.88)" fill="none" stroke-linejoin="round" d="M 1423.053917 1875.343311 C 1312.176409 1986.22082 1312.176409 2166.054556 1423.053917 2276.932064" stroke="#040505" stroke-width="33.737" stroke-miterlimit="10"/><path stroke-linecap="round" transform="matrix(.02283 0 0 -.02283 279.532 304.88)" fill="none" stroke-linejoin="round" d="M 1953.828655 1399.83622 C 1861.259624 1399.83622 1786.143534 1474.781203 1786.143534 1567.350233 C 1786.143534 1659.919264 1861.259624 1735.035354 1953.828655 1735.035354" stroke="#040505" stroke-width="33.737" stroke-miterlimit="10"/><path stroke-linecap="round" transform="matrix(.02283 0 0 -.02283 279.532 304.88)" fill="#FFF" stroke-linejoin="round" d="M 1800.003223 2426.479814 C 1738.062393 2426.479814 1687.927964 2476.614243 1687.927964 2538.555073 C 1687.927964 2600.324796 1738.062393 2650.630332 1800.003223 2650.630332" stroke="#040505" stroke-width="33.737" stroke-miterlimit="10"/><path fill="#FFF" d="M 334.402344 274.089844 C 330.863281 274.089844 327.984375 271.210938 327.984375 267.671875 L 327.984375 245.898438 C 327.984375 241.871094 331.257812 238.597656 335.285156 238.597656 C 338.9375 238.597656 342.058594 241.363281 342.523438 244.953125 C 346.175781 245.347656 348.992188 248.457031 348.992188 252.167969 C 348.992188 254.085938 348.226562 255.933594 346.875 257.285156 C 347.714844 258.5 348.15625 259.917969 348.15625 261.40625 C 348.15625 265.40625 344.902344 268.660156 340.902344 268.660156 C 340.847656 268.660156 340.800781 268.660156 340.746094 268.65625 C 340.269531 271.777344 337.601562 274.089844 334.402344 274.089844"/><path d="M 335.285156 238.214844 C 331.042969 238.214844 327.597656 241.660156 327.597656 245.898438 L 327.597656 267.671875 C 327.597656 271.421875 330.648438 274.476562 334.402344 274.476562 C 337.683594 274.476562 340.433594 272.183594 341.070312 269.042969 C 345.207031 268.953125 348.542969 265.558594 348.542969 261.40625 C 348.542969 259.945312 348.140625 258.546875 347.367188 257.332031 C 348.652344 255.929688 349.378906 254.082031 349.378906 252.167969 C 349.378906 248.359375 346.5625 245.15625 342.863281 244.609375 C 342.578125 242.941406 341.753906 241.410156 340.496094 240.25 C 339.074219 238.9375 337.222656 238.214844 335.285156 238.214844 Z M 335.285156 238.984375 C 338.90625 238.984375 341.875 241.765625 342.175781 245.3125 C 345.765625 245.535156 348.605469 248.519531 348.605469 252.167969 C 348.605469 254.175781 347.742188 255.984375 346.367188 257.242188 C 347.25 258.394531 347.769531 259.839844 347.769531 261.40625 C 347.769531 265.199219 344.695312 268.273438 340.902344 268.273438 C 340.734375 268.273438 340.570312 268.269531 340.410156 268.257812 C 340.113281 271.316406 337.535156 273.707031 334.402344 273.707031 C 331.070312 273.707031 328.367188 271.003906 328.367188 267.671875 L 328.367188 245.898438 C 328.367188 242.078125 331.464844 238.984375 335.285156 238.984375"/><path stroke-linecap="round" transform="matrix(.02283 0 0 -.02283 279.532 304.88)" fill="none" stroke-linejoin="round" d="M 2582.476749 2063.047982 C 2434.468964 2114.893483 2272.259276 2036.86857 2220.584882 1888.860785" stroke="#040505" stroke-width="33.737" stroke-miterlimit="10"/><path stroke-linecap="round" transform="matrix(.02283 0 0 -.02283 279.532 304.88)" fill="none" stroke-linejoin="round" d="M 2552.36187 2236.721856 C 2451.921905 2236.721856 2370.474847 2155.274798 2370.474847 2054.834833" stroke="#040505" stroke-width="33.737" stroke-miterlimit="10"/><path stroke-linecap="round" transform="matrix(.02283 0 0 -.02283 279.532 304.88)" fill="none" stroke-linejoin="round" d="M 2432.24457 2195.82722 C 2501.371905 2336.477392 2443.537649 2506.729122 2302.716369 2576.027564" stroke="#040505" stroke-width="33.737" stroke-miterlimit="10"/><path stroke-linecap="round" transform="matrix(.02283 0 0 -.02283 279.532 304.88)" fill="none" stroke-linejoin="round" d="M 2461.846126 1512.938123 C 2618.580382 1512.938123 2745.71308 1640.070821 2745.71308 1796.976184" stroke="#040505" stroke-width="33.737" stroke-miterlimit="10"/><path stroke-linecap="round" transform="matrix(.02283 0 0 -.02283 279.532 304.88)" fill="none" stroke-linejoin="round" d="M 2828.871211 1875.343311 C 2939.748719 1986.22082 2939.748719 2166.054556 2828.871211 2276.932064" stroke="#040505" stroke-width="33.737" stroke-miterlimit="10"/><path stroke-linecap="round" transform="matrix(.02283 0 0 -.02283 279.532 304.88)" fill="none" stroke-linejoin="round" d="M 2298.267581 1399.83622 C 2390.836611 1399.83622 2465.952701 1474.781203 2465.952701 1567.350233 C 2465.952701 1659.919264 2390.836611 1735.035354 2298.267581 1735.035354" stroke="#040505" stroke-width="33.737" stroke-miterlimit="10"/><path stroke-linecap="round" transform="matrix(.02283 0 0 -.02283 279.532 304.88)" fill="#FFF" stroke-linejoin="round" d="M 2451.921905 2426.479814 C 2513.862735 2426.479814 2564.168271 2476.614243 2564.168271 2538.555073 C 2564.168271 2600.324796 2513.862735 2650.630332 2451.921905 2650.630332" stroke="#040505" stroke-width="33.737" stroke-miterlimit="10"/><g clip-path="url(#j)"><path fill="#004AAD" d="M 349.945312 252.601562 C 350.09375 250.511719 350.484375 239.988281 344.09375 233.066406 C 340.324219 228.984375 334.964844 226.976562 328.164062 227.109375 C 321.363281 226.980469 316 228.984375 312.230469 233.066406 C 306.003906 239.8125 306.214844 249.980469 306.367188 252.429688 C 306.277344 252.765625 306.230469 253.121094 306.230469 253.488281 L 306.230469 262.875 C 306.230469 265.148438 308.074219 266.996094 310.347656 266.996094 L 313.207031 266.996094 C 315.480469 266.996094 317.324219 265.148438 317.324219 262.875 L 317.324219 253.488281 C 317.324219 251.214844 315.480469 249.371094 313.207031 249.371094 L 310.347656 249.371094 C 310.035156 249.371094 309.734375 249.40625 309.445312 249.46875 C 309.597656 245.730469 310.507812 239.480469 314.511719 235.152344 C 317.660156 231.746094 322.25 230.074219 328.132812 230.199219 L 328.195312 230.199219 C 334.078125 230.082031 338.664062 231.746094 341.816406 235.152344 C 345.824219 239.484375 346.726562 245.742188 346.882812 249.484375 C 346.574219 249.410156 346.253906 249.371094 345.925781 249.371094 L 343.0625 249.371094 C 340.789062 249.371094 338.945312 251.214844 338.945312 253.488281 L 338.945312 262.875 C 338.945312 265.148438 340.789062 266.996094 343.0625 266.996094 L 345.925781 266.996094 C 348.199219 266.996094 350.042969 265.148438 350.042969 262.875 L 350.042969 253.488281 C 350.042969 253.183594 350.007812 252.890625 349.945312 252.601562 Z M 349.945312 252.601562"/></g><g clip-path="url(#k)"><path fill="#004AAD" d="M 305.226562 253.71875 L 302.738281 255.175781 L 302.738281 260.757812 L 305.226562 262.386719"/></g><g clip-path="url(#l)"><path fill="#004AAD" d="M 350.957031 253.71875 L 353.445312 255.175781 L 353.445312 260.757812 L 350.957031 262.386719"/></g><g clip-path="url(#m)"><path fill="#FFF" d="M 111.390625 113.839844 C 111.390625 130.691406 97.734375 144.347656 80.882812 144.347656 C 64.03125 144.347656 50.375 130.691406 50.375 113.839844 C 50.375 96.988281 64.03125 83.332031 80.882812 83.332031 C 97.734375 83.332031 111.390625 96.988281 111.390625 113.839844"/></g><path fill="#FFF" d="M 74.550781 131.585938 C 71.347656 131.585938 68.679688 129.273438 68.203125 126.152344 C 68.152344 126.15625 68.101562 126.15625 68.050781 126.15625 C 64.050781 126.15625 60.792969 122.902344 60.792969 118.902344 C 60.792969 117.414062 61.234375 115.996094 62.074219 114.78125 C 60.726562 113.429688 59.957031 111.578125 59.957031 109.664062 C 59.957031 105.953125 62.773438 102.84375 66.425781 102.449219 C 66.894531 98.859375 70.011719 96.09375 73.667969 96.09375 C 77.695312 96.09375 80.96875 99.367188 80.96875 103.394531 L 80.96875 125.167969 C 80.96875 128.707031 78.089844 131.585938 74.550781 131.585938"/><path d="M 73.667969 95.710938 C 71.730469 95.710938 69.875 96.433594 68.453125 97.746094 C 67.195312 98.90625 66.371094 100.4375 66.085938 102.105469 C 62.386719 102.652344 59.570312 105.855469 59.570312 109.664062 C 59.570312 111.578125 60.296875 113.425781 61.582031 114.828125 C 60.8125 116.042969 60.40625 117.4375 60.40625 118.902344 C 60.40625 123.054688 63.746094 126.449219 67.882812 126.539062 C 68.515625 129.683594 71.265625 131.972656 74.550781 131.972656 C 78.300781 131.972656 81.351562 128.917969 81.351562 125.167969 L 81.351562 103.394531 C 81.351562 99.15625 77.90625 95.710938 73.667969 95.710938 Z M 73.667969 96.480469 C 77.484375 96.480469 80.585938 99.574219 80.585938 103.394531 L 80.585938 125.167969 C 80.585938 128.5 77.882812 131.203125 74.550781 131.203125 C 71.414062 131.203125 68.835938 128.8125 68.542969 125.753906 C 68.378906 125.765625 68.214844 125.769531 68.050781 125.769531 C 64.257812 125.769531 61.179688 122.695312 61.179688 118.902344 C 61.179688 117.335938 61.703125 115.890625 62.582031 114.738281 C 61.207031 113.480469 60.34375 111.671875 60.34375 109.664062 C 60.34375 106.015625 63.1875 103.03125 66.773438 102.808594 C 67.074219 99.261719 70.042969 96.480469 73.667969 96.480469"/><path stroke-linecap="round" transform="matrix(.02283 0 0 -.02283 32.348 162.375)" fill="none" stroke-linejoin="round" d="M 1813.200914 1841.976291 C 1813.200914 1998.881654 1940.333612 2126.014352 2097.238975 2126.014352" stroke="#040505" stroke-width="33.737" stroke-miterlimit="10"/><path stroke-linecap="round" transform="matrix(.02283 0 0 -.02283 32.348 162.375)" fill="none" stroke-linejoin="round" d="M 1699.58569 2236.720753 C 1800.025655 2236.720753 1881.64382 2155.273694 1881.64382 2054.83373" stroke="#040505" stroke-width="33.737" stroke-miterlimit="10"/><path stroke-linecap="round" transform="matrix(.02283 0 0 -.02283 32.348 162.375)" fill="none" stroke-linejoin="round" d="M 1819.874097 2195.826116 C 1750.575655 2336.476289 1808.581018 2506.728018 1949.23119 2576.026461" stroke="#040505" stroke-width="33.737" stroke-miterlimit="10"/><path stroke-linecap="round" transform="matrix(.02283 0 0 -.02283 32.348 162.375)" fill="none" stroke-linejoin="round" d="M 1790.272541 1512.937019 C 1633.367178 1512.937019 1506.23448 1640.069718 1506.23448 1796.97508" stroke="#040505" stroke-width="33.737" stroke-miterlimit="10"/><path stroke-linecap="round" transform="matrix(.02283 0 0 -.02283 32.348 162.375)" fill="none" stroke-linejoin="round" d="M 1423.076348 1875.342208 C 1312.19884 1986.219716 1312.19884 2166.053452 1423.076348 2276.93096" stroke="#040505" stroke-width="33.737" stroke-miterlimit="10"/><path stroke-linecap="round" transform="matrix(.02283 0 0 -.02283 32.348 162.375)" fill="none" stroke-linejoin="round" d="M 1953.851086 1399.835117 C 1861.282056 1399.835117 1786.165966 1474.780099 1786.165966 1567.34913 C 1786.165966 1659.91816 1861.282056 1735.03425 1953.851086 1735.03425" stroke="#040505" stroke-width="33.737" stroke-miterlimit="10"/><path stroke-linecap="round" transform="matrix(.02283 0 0 -.02283 32.348 162.375)" fill="#FFF" stroke-linejoin="round" d="M 1800.025655 2426.47871 C 1738.084825 2426.47871 1687.950396 2476.613139 1687.950396 2538.553969 C 1687.950396 2600.323692 1738.084825 2650.629228 1800.025655 2650.629228" stroke="#040505" stroke-width="33.737" stroke-miterlimit="10"/><path fill="#FFF" d="M 87.21875 131.585938 C 83.675781 131.585938 80.796875 128.707031 80.796875 125.167969 L 80.796875 103.394531 C 80.796875 99.367188 84.074219 96.09375 88.097656 96.09375 C 91.753906 96.09375 94.871094 98.859375 95.339844 102.449219 C 98.992188 102.84375 101.808594 105.953125 101.808594 109.664062 C 101.808594 111.578125 101.042969 113.429688 99.691406 114.78125 C 100.53125 115.996094 100.972656 117.414062 100.972656 118.902344 C 100.972656 122.902344 97.71875 126.15625 93.71875 126.15625 C 93.664062 126.15625 93.613281 126.15625 93.5625 126.152344 C 93.085938 129.273438 90.417969 131.585938 87.21875 131.585938"/><path d="M 88.097656 95.710938 C 83.859375 95.710938 80.414062 99.15625 80.414062 103.394531 L 80.414062 125.167969 C 80.414062 128.917969 83.464844 131.972656 87.21875 131.972656 C 90.5 131.972656 93.25 129.679688 93.882812 126.539062 C 98.019531 126.449219 101.359375 123.054688 101.359375 118.902344 C 101.359375 117.441406 100.953125 116.042969 100.183594 114.828125 C 101.46875 113.425781 102.195312 111.578125 102.195312 109.664062 C 102.195312 105.855469 99.378906 102.652344 95.679688 102.105469 C 95.394531 100.4375 94.570312 98.90625 93.3125 97.746094 C 91.890625 96.433594 90.039062 95.710938 88.097656 95.710938 Z M 88.097656 96.480469 C 91.71875 96.480469 94.691406 99.261719 94.992188 102.808594 C 98.582031 103.03125 101.421875 106.015625 101.421875 109.664062 C 101.421875 111.671875 100.558594 113.480469 99.183594 114.738281 C 100.0625 115.890625 100.585938 117.335938 100.585938 118.902344 C 100.585938 122.695312 97.511719 125.769531 93.71875 125.769531 C 93.550781 125.769531 93.386719 125.765625 93.226562 125.753906 C 92.929688 128.8125 90.351562 131.203125 87.21875 131.203125 C 83.886719 131.203125 81.183594 128.5 81.183594 125.167969 L 81.183594 103.394531 C 81.183594 99.574219 84.28125 96.480469 88.097656 96.480469"/><path stroke-linecap="round" transform="matrix(.02283 0 0 -.02283 32.348 162.375)" fill="none" stroke-linejoin="round" d="M 2582.328073 2063.046878 C 2434.320288 2114.89238 2272.281708 2036.867467 2220.436206 1888.859682" stroke="#040505" stroke-width="33.737" stroke-miterlimit="10"/><path stroke-linecap="round" transform="matrix(.02283 0 0 -.02283 32.348 162.375)" fill="none" stroke-linejoin="round" d="M 2552.384302 2236.720753 C 2451.944337 2236.720753 2370.326171 2155.273694 2370.326171 2054.83373" stroke="#040505" stroke-width="33.737" stroke-miterlimit="10"/><path stroke-linecap="round" transform="matrix(.02283 0 0 -.02283 32.348 162.375)" fill="none" stroke-linejoin="round" d="M 2432.267001 2195.826116 C 2501.394336 2336.476289 2443.560081 2506.728018 2302.738801 2576.026461" stroke="#040505" stroke-width="33.737" stroke-miterlimit="10"/><path stroke-linecap="round" transform="matrix(.02283 0 0 -.02283 32.348 162.375)" fill="none" stroke-linejoin="round" d="M 2461.868558 1512.937019 C 2618.602813 1512.937019 2745.735512 1640.069718 2745.735512 1796.97508" stroke="#040505" stroke-width="33.737" stroke-miterlimit="10"/><path stroke-linecap="round" transform="matrix(.02283 0 0 -.02283 32.348 162.375)" fill="none" stroke-linejoin="round" d="M 2828.893643 1875.342208 C 2939.771151 1986.219716 2939.771151 2166.053452 2828.893643 2276.93096" stroke="#040505" stroke-width="33.737" stroke-miterlimit="10"/><path stroke-linecap="round" transform="matrix(.02283 0 0 -.02283 32.348 162.375)" fill="none" stroke-linejoin="round" d="M 2298.118905 1399.835117 C 2390.859043 1399.835117 2465.975133 1474.780099 2465.975133 1567.34913 C 2465.975133 1659.91816 2390.859043 1735.03425 2298.118905 1735.03425" stroke="#040505" stroke-width="33.737" stroke-miterlimit="10"/><path stroke-linecap="round" transform="matrix(.02283 0 0 -.02283 32.348 162.375)" fill="#FFF" stroke-linejoin="round" d="M 2451.944337 2426.47871 C 2513.885167 2426.47871 2564.019596 2476.613139 2564.019596 2538.553969 C 2564.019596 2600.323692 2513.885167 2650.629228 2451.944337 2650.629228" stroke="#040505" stroke-width="33.737" stroke-miterlimit="10"/><g clip-path="url(#n)"><path fill="#004AAD" d="M 102.761719 110.097656 C 102.910156 108.007812 103.300781 97.484375 96.910156 90.5625 C 93.140625 86.480469 87.78125 84.472656 80.976562 84.605469 C 74.179688 84.476562 68.816406 86.480469 65.046875 90.5625 C 58.820312 97.308594 59.03125 107.476562 59.183594 109.925781 C 59.09375 110.261719 59.046875 110.617188 59.046875 110.984375 L 59.046875 120.371094 C 59.046875 122.644531 60.886719 124.492188 63.164062 124.492188 L 66.023438 124.492188 C 68.296875 124.492188 70.140625 122.644531 70.140625 120.371094 L 70.140625 110.984375 C 70.140625 108.710938 68.296875 106.867188 66.023438 106.867188 L 63.164062 106.867188 C 62.851562 106.867188 62.550781 106.902344 62.257812 106.964844 C 62.414062 103.222656 63.324219 96.976562 67.324219 92.648438 C 70.476562 89.242188 75.066406 87.570312 80.949219 87.695312 L 81.011719 87.695312 C 86.890625 87.578125 91.480469 89.242188 94.632812 92.648438 C 98.636719 96.980469 99.542969 103.238281 99.699219 106.980469 C 99.390625 106.90625 99.070312 106.867188 98.738281 106.867188 L 95.878906 106.867188 C 93.605469 106.867188 91.761719 108.710938 91.761719 110.984375 L 91.761719 120.371094 C 91.761719 122.644531 93.605469 124.492188 95.878906 124.492188 L 98.738281 124.492188 C 101.015625 124.492188 102.859375 122.644531 102.859375 120.371094 L 102.859375 110.984375 C 102.859375 110.679688 102.824219 110.386719 102.761719 110.097656 Z M 102.761719 110.097656"/></g><g clip-path="url(#o)"><path fill="#004AAD" d="M 58.042969 111.214844 L 55.554688 112.671875 L 55.554688 118.253906 L 58.042969 119.882812"/></g><g clip-path="url(#p)"><path fill="#004AAD" d="M 103.773438 111.214844 L 106.261719 112.671875 L 106.261719 118.253906 L 103.773438 119.882812"/></g><path transform="matrix(.75 0 0 .75 111.353 87.575)" fill="none" d="M 20.664769 26.123761 L 6.383518 10.21751 L 4.055393 10.21751 L 4.055393 46.998762 L 11.404352 46.998762 L 11.404352 26.790427 L 20.664769 36.514386 L 29.940811 26.790427 L 29.893936 46.998762 L 37.242895 46.998762 L 37.242895 10.21751 L 34.951228 10.21751 Z M 71.378314 34.384178 L 71.378314 10.774801 L 64.180397 10.774801 L 64.180397 34.337303 C 64.180397 41.931053 52.430396 41.931053 52.430396 34.337303 L 52.430396 10.774801 L 45.180396 10.774801 L 45.180396 34.384178 C 45.180396 51.613346 71.378314 51.613346 71.378314 34.384178 Z M 77.711648 44.675845 C 82.623106 47.196679 87.123107 47.457096 89.154357 47.311262 C 95.946024 46.951887 100.097066 42.337304 100.097066 36.31647 C 100.097066 30.540428 95.237691 27.295636 89.61269 25.217511 C 87.534565 24.503969 85.763732 23.597719 85.555398 21.571677 C 85.404357 19.540427 86.571023 17.660219 89.154357 17.514385 C 90.26894 17.462302 92.555399 17.415427 96.550191 19.035219 L 97.466857 12.045635 C 92.80019 10.425843 90.315815 10.425843 88.446023 10.524801 C 82.414773 10.821676 78.206439 15.488343 78.206439 21.571677 C 78.206439 27.644594 83.279356 30.540428 88.95644 32.613345 C 90.982482 33.321678 92.555399 34.238345 92.701232 36.31647 C 92.899149 38.280012 91.08144 39.800845 88.95644 39.962303 C 87.284565 40.113345 82.774148 40.014387 78.617898 37.06647 Z M 113.414775 46.998762 L 113.414775 10.774801 L 106.1804 10.774801 L 106.1804 46.998762 Z M 113.414775 46.998762" stroke="#004AAD" stroke-width="1.9"/><g fill="#004AAD"><g><g><path d="M 12.957031 0 L 12.957031 -21.734375 L 19.71875 -21.734375 L 19.71875 -27.128906 L 0.761719 -27.128906 L 0.761719 -21.734375 L 7.523438 -21.734375 L 7.523438 0 Z M 12.957031 0" transform="translate(199.501 122.825)"/></g></g></g><g fill="#004AAD"><g><g><path d="M 8.472656 0 L 8.472656 -27.167969 L 3.039062 -27.167969 L 3.039062 0 Z M 8.472656 0" transform="translate(220.283 122.825)"/></g></g></g><g fill="#004AAD"><g><g><path d="M 11.472656 0.570312 L 12.691406 0.570312 L 23.9375 -27.167969 L 17.667969 -27.167969 L 14.019531 -17.933594 L 12.082031 -12.5 L 10.105469 -18.125 L 6.496094 -27.167969 L 0.226562 -27.167969 Z M 11.472656 0.570312" transform="translate(231.833 122.825)"/></g></g></g><g fill="#004AAD"><g><g><path d="M 8.472656 0 L 8.472656 -27.167969 L 3.039062 -27.167969 L 3.039062 0 Z M 8.472656 0" transform="translate(256.034 122.825)"/></g></g></g><g fill="#004AAD"><g><g><path d="M 12.957031 0 L 12.957031 -21.734375 L 19.71875 -21.734375 L 19.71875 -27.128906 L 0.761719 -27.128906 L 0.761719 -21.734375 L 7.523438 -21.734375 L 7.523438 0 Z M 12.957031 0" transform="translate(267.584 122.825)"/></g></g></g><g fill="#004AAD"><g><g><path d="M 9.6875 0 L 15.085938 0 L 15.085938 -12.234375 L 24.582031 -27.167969 L 17.933594 -27.167969 L 12.386719 -17.820312 L 6.839844 -27.167969 L 0.226562 -27.167969 L 9.6875 -12.234375 Z M 9.6875 0" transform="translate(288.365 122.825)"/></g></g></g></svg>