<svg xmlns="http://www.w3.org/2000/svg" width="375" viewBox="0 0 375 375" height="375" version="1.0"><defs><clipPath id="a"><path d="M 0 157.3125 L 187.671875 157.3125 L 187.671875 355.519531 L 0 355.519531 Z M 0 157.3125"/></clipPath><clipPath id="b"><path d="M 17 161.304688 L 160 161.304688 L 160 289.640625 L 17 289.640625 Z M 17 161.304688"/></clipPath><clipPath id="c"><path d="M 6.265625 247 L 15 247 L 15 277 L 6.265625 277 Z M 6.265625 247"/></clipPath><clipPath id="d"><path d="M 162 247 L 170.964844 247 L 170.964844 277 L 162 277 Z M 162 247"/></clipPath><clipPath id="e"><path d="M 183.28125 197.859375 L 291 197.859375 L 291 305.597656 L 183.28125 305.597656 Z M 183.28125 197.859375"/></clipPath><clipPath id="f"><path d="M 198 200.027344 L 276 200.027344 L 276 269.789062 L 198 269.789062 Z M 198 200.027344"/></clipPath><clipPath id="g"><path d="M 192.414062 247 L 197 247 L 197 263 L 192.414062 263 Z M 192.414062 247"/></clipPath><clipPath id="h"><path d="M 277 247 L 281.9375 247 L 281.9375 263 L 277 263 Z M 277 247"/></clipPath><clipPath id="i"><path d="M 297.566406 225.84375 L 358.589844 225.84375 L 358.589844 286.867188 L 297.566406 286.867188 Z M 297.566406 225.84375"/></clipPath><clipPath id="j"><path d="M 306 227.074219 L 351 227.074219 L 351 266.585938 L 306 266.585938 Z M 306 227.074219"/></clipPath><clipPath id="k"><path d="M 302.738281 253 L 306 253 L 306 263 L 302.738281 263 Z M 302.738281 253"/></clipPath><clipPath id="l"><path d="M 350 253 L 353.445312 253 L 353.445312 263 L 350 263 Z M 350 253"/></clipPath><clipPath id="m"><path d="M 50.382812 83.339844 L 111.214844 83.339844 L 111.214844 144.171875 L 50.382812 144.171875 Z M 50.382812 83.339844"/></clipPath><clipPath id="n"><path d="M 59 84.570312 L 103 84.570312 L 103 124.277344 L 59 124.277344 Z M 59 84.570312"/></clipPath><clipPath id="o"><path d="M 55.554688 111 L 59 111 L 59 120 L 55.554688 120 Z M 55.554688 111"/></clipPath><clipPath id="p"><path d="M 103 111 L 106.25 111 L 106.25 120 L 103 120 Z M 103 111"/></clipPath></defs><g clip-path="url(#a)"><path fill="#FFF" d="M 187.628906 256.378906 C 187.628906 311.109375 143.261719 355.472656 88.53125 355.472656 C 33.800781 355.472656 -10.5625 311.109375 -10.5625 256.378906 C -10.566406 201.648438 33.800781 157.28125 88.53125 157.28125 C 143.261719 157.28125 187.628906 201.648438 187.628906 256.378906"/></g><path fill="#FFF" d="M 67.960938 314.023438 C 57.558594 314.023438 48.898438 306.511719 47.347656 296.375 C 47.183594 296.382812 47.015625 296.382812 46.851562 296.382812 C 33.851562 296.382812 23.277344 285.808594 23.277344 272.816406 C 23.277344 267.984375 24.71875 263.378906 27.4375 259.441406 C 23.054688 255.042969 20.5625 249.035156 20.5625 242.808594 C 20.5625 230.757812 29.707031 220.660156 41.570312 219.375 C 43.089844 207.71875 53.21875 198.734375 65.09375 198.734375 C 78.171875 198.734375 88.8125 209.375 88.8125 222.453125 L 88.8125 293.171875 C 88.8125 304.664062 79.457031 314.023438 67.960938 314.023438"/><path d="M 65.09375 197.488281 C 58.796875 197.488281 52.777344 199.835938 48.15625 204.109375 C 44.070312 207.875 41.394531 212.84375 40.472656 218.257812 C 28.453125 220.035156 19.3125 230.441406 19.3125 242.808594 C 19.3125 249.03125 21.667969 255.027344 25.84375 259.582031 C 23.34375 263.535156 22.023438 268.0625 22.023438 272.816406 C 22.023438 286.3125 32.867188 297.339844 46.300781 297.628906 C 48.363281 307.839844 57.300781 315.277344 67.960938 315.277344 C 80.144531 315.277344 90.058594 305.355469 90.058594 293.171875 L 90.058594 222.453125 C 90.058594 208.683594 78.863281 197.488281 65.09375 197.488281 Z M 65.09375 199.984375 C 77.496094 199.984375 87.558594 210.039062 87.558594 222.453125 L 87.558594 293.171875 C 87.558594 303.996094 78.78125 312.769531 67.960938 312.769531 C 57.773438 312.769531 49.402344 305.007812 48.445312 295.070312 C 47.917969 295.105469 47.386719 295.128906 46.851562 295.128906 C 34.527344 295.128906 24.53125 285.140625 24.53125 272.816406 C 24.53125 267.730469 26.230469 263.042969 29.09375 259.292969 C 24.621094 255.214844 21.816406 249.339844 21.816406 242.808594 C 21.816406 230.957031 31.050781 221.273438 42.707031 220.539062 C 43.675781 209.023438 53.324219 199.984375 65.09375 199.984375"/><path stroke-linecap="round" transform="matrix(.07415 0 0 -.07415 -69.114 414.023)" fill="none" stroke-linejoin="round" d="M 1813.186054 1841.991261 C 1813.186054 1998.923472 1940.407031 2125.98641 2097.181203 2125.98641" stroke="#040505" stroke-width="33.737" stroke-miterlimit="10"/><path stroke-linecap="round" transform="matrix(.07415 0 0 -.07415 -69.114 414.023)" fill="none" stroke-linejoin="round" d="M 1699.609067 2236.824064 C 1800.12154 2236.824064 1881.616716 2155.276208 1881.616716 2054.816414" stroke="#040505" stroke-width="33.737" stroke-miterlimit="10"/><path stroke-linecap="round" transform="matrix(.07415 0 0 -.07415 -69.114 414.023)" fill="none" stroke-linejoin="round" d="M 1819.823671 2195.786738 C 1750.602816 2336.493665 1808.602938 2506.806467 1949.309865 2575.974642" stroke="#040505" stroke-width="33.737" stroke-miterlimit="10"/><path stroke-linecap="round" transform="matrix(.07415 0 0 -.07415 -69.114 414.023)" fill="none" stroke-linejoin="round" d="M 1790.217795 1513.007826 C 1633.390944 1513.007826 1506.222647 1640.123443 1506.222647 1797.002974" stroke="#040505" stroke-width="33.737" stroke-miterlimit="10"/><path stroke-linecap="round" transform="matrix(.07415 0 0 -.07415 -69.114 414.023)" fill="none" stroke-linejoin="round" d="M 1423.094407 1875.39006 C 1312.204073 1986.280394 1312.204073 2166.075504 1423.094407 2277.018517" stroke="#040505" stroke-width="33.737" stroke-miterlimit="10"/><path stroke-linecap="round" transform="matrix(.07415 0 0 -.07415 -69.114 414.023)" fill="none" stroke-linejoin="round" d="M 1953.787622 1399.799595 C 1861.177073 1399.799595 1786.108795 1474.815193 1786.108795 1567.425742 C 1786.108795 1659.983612 1861.177073 1735.104569 1953.787622 1735.104569" stroke="#040505" stroke-width="33.737" stroke-miterlimit="10"/><path stroke-linecap="round" transform="matrix(.07415 0 0 -.07415 -69.114 414.023)" fill="#FFF" stroke-linejoin="round" d="M 1800.016181 2426.41756 C 1738.117776 2426.41756 1687.914219 2476.621117 1687.914219 2538.519522 C 1687.914219 2600.417926 1738.117776 2650.621484 1800.016181 2650.621484" stroke="#040505" stroke-width="33.737" stroke-miterlimit="10"/><path fill="#FFF" d="M 109.109375 314.023438 C 97.609375 314.023438 88.257812 304.664062 88.257812 293.171875 L 88.257812 222.453125 C 88.257812 209.375 98.890625 198.734375 111.96875 198.734375 C 123.84375 198.734375 133.972656 207.71875 135.492188 219.375 C 147.355469 220.660156 156.5 230.757812 156.5 242.808594 C 156.5 249.035156 154.007812 255.042969 149.625 259.441406 C 152.347656 263.386719 153.785156 267.984375 153.785156 272.816406 C 153.785156 285.808594 143.210938 296.382812 130.21875 296.382812 C 130.046875 296.382812 129.886719 296.382812 129.714844 296.375 C 128.164062 306.511719 119.503906 314.023438 109.109375 314.023438"/><path d="M 111.96875 197.488281 C 98.199219 197.488281 87.003906 208.683594 87.003906 222.453125 L 87.003906 293.171875 C 87.003906 305.355469 96.917969 315.277344 109.109375 315.277344 C 119.765625 315.277344 128.699219 307.832031 130.761719 297.628906 C 144.195312 297.339844 155.039062 286.3125 155.039062 272.816406 C 155.039062 268.070312 153.726562 263.535156 151.21875 259.582031 C 155.394531 255.027344 157.75 249.03125 157.75 242.808594 C 157.75 230.441406 148.609375 220.035156 136.589844 218.257812 C 135.667969 212.84375 132.992188 207.875 128.90625 204.109375 C 124.289062 199.835938 118.265625 197.488281 111.972656 197.488281 Z M 111.96875 199.984375 C 123.730469 199.984375 133.386719 209.023438 134.355469 220.539062 C 146.011719 221.273438 155.246094 230.957031 155.246094 242.808594 C 155.246094 249.339844 152.441406 255.214844 147.972656 259.292969 C 150.832031 263.042969 152.53125 267.730469 152.53125 272.816406 C 152.53125 285.140625 142.542969 295.128906 130.21875 295.128906 C 129.679688 295.128906 129.144531 295.105469 128.617188 295.070312 C 127.660156 305.007812 119.289062 312.769531 109.109375 312.769531 C 98.28125 312.769531 89.503906 303.996094 89.503906 293.171875 L 89.503906 222.453125 C 89.503906 210.039062 99.566406 199.984375 111.96875 199.984375"/><path stroke-linecap="round" transform="matrix(.07415 0 0 -.07415 -69.114 414.023)" fill="none" stroke-linejoin="round" d="M 2582.412016 2063.087095 C 2434.382639 2114.923716 2272.287839 2036.905387 2220.503897 1888.87601" stroke="#040505" stroke-width="33.737" stroke-miterlimit="10"/><path stroke-linecap="round" transform="matrix(.07415 0 0 -.07415 -69.114 414.023)" fill="none" stroke-linejoin="round" d="M 2552.384704 2236.824064 C 2451.924911 2236.824064 2370.377055 2155.276208 2370.377055 2054.816414" stroke="#040505" stroke-width="33.737" stroke-miterlimit="10"/><path stroke-linecap="round" transform="matrix(.07415 0 0 -.07415 -69.114 414.023)" fill="none" stroke-linejoin="round" d="M 2432.22278 2195.786738 C 2501.390955 2336.493665 2443.496192 2506.806467 2302.683906 2575.974642" stroke="#040505" stroke-width="33.737" stroke-miterlimit="10"/><path stroke-linecap="round" transform="matrix(.07415 0 0 -.07415 -69.114 414.023)" fill="none" stroke-linejoin="round" d="M 2461.775976 1513.007826 C 2618.602827 1513.007826 2745.718445 1640.123443 2745.718445 1797.002974" stroke="#040505" stroke-width="33.737" stroke-miterlimit="10"/><path stroke-linecap="round" transform="matrix(.07415 0 0 -.07415 -69.114 414.023)" fill="none" stroke-linejoin="round" d="M 2828.899365 1875.39006 C 2939.789698 1986.280394 2939.789698 2166.075504 2828.899365 2277.018517" stroke="#040505" stroke-width="33.737" stroke-miterlimit="10"/><path stroke-linecap="round" transform="matrix(.07415 0 0 -.07415 -69.114 414.023)" fill="none" stroke-linejoin="round" d="M 2298.206149 1399.799595 C 2390.922057 1399.799595 2465.884976 1474.815193 2465.884976 1567.425742 C 2465.884976 1659.983612 2390.922057 1735.104569 2298.206149 1735.104569" stroke="#040505" stroke-width="33.737" stroke-miterlimit="10"/><path stroke-linecap="round" transform="matrix(.07415 0 0 -.07415 -69.114 414.023)" fill="#FFF" stroke-linejoin="round" d="M 2451.97759 2426.41756 C 2513.875995 2426.41756 2564.079552 2476.621117 2564.079552 2538.519522 C 2564.079552 2600.417926 2513.875995 2650.621484 2451.97759 2650.621484" stroke="#040505" stroke-width="33.737" stroke-miterlimit="10"/><g clip-path="url(#b)"><path fill="#004AAD" d="M 159.59375 244.226562 C 160.074219 237.4375 161.339844 203.257812 140.59375 180.777344 C 128.347656 167.507812 110.9375 160.988281 88.839844 161.421875 C 66.753906 161.003906 49.332031 167.507812 37.089844 180.777344 C 16.867188 202.683594 17.558594 235.710938 18.050781 243.660156 C 17.757812 244.761719 17.601562 245.914062 17.601562 247.105469 L 17.601562 277.589844 C 17.601562 284.980469 23.585938 290.96875 30.976562 290.96875 L 40.265625 290.96875 C 47.652344 290.96875 53.640625 284.980469 53.640625 277.589844 L 53.640625 247.105469 C 53.640625 239.714844 47.652344 233.722656 40.265625 233.722656 L 30.976562 233.722656 C 29.96875 233.722656 28.984375 233.839844 28.039062 234.050781 C 28.546875 221.898438 31.496094 201.601562 44.496094 187.546875 C 54.726562 176.484375 69.640625 171.058594 88.742188 171.457031 L 88.839844 171.460938 L 88.941406 171.457031 C 108.050781 171.074219 122.957031 176.484375 133.1875 187.546875 C 146.203125 201.617188 149.144531 221.941406 149.644531 234.09375 C 148.644531 233.855469 147.605469 233.722656 146.53125 233.722656 L 137.242188 233.722656 C 129.855469 233.722656 123.867188 239.714844 123.867188 247.105469 L 123.867188 277.589844 C 123.867188 284.980469 129.855469 290.96875 137.242188 290.96875 L 146.53125 290.96875 C 153.917969 290.96875 159.910156 284.980469 159.910156 277.589844 L 159.910156 247.105469 C 159.910156 246.117188 159.796875 245.15625 159.59375 244.226562 Z M 159.59375 244.226562"/></g><g clip-path="url(#c)"><path fill="#004AAD" d="M 14.347656 247.851562 L 6.265625 252.589844 L 6.265625 270.710938 L 14.347656 276.007812"/></g><g clip-path="url(#d)"><path fill="#004AAD" d="M 162.882812 247.851562 L 170.964844 252.589844 L 170.964844 270.710938 L 162.882812 276.007812"/></g><path transform="matrix(.75 0 0 .75 19.514 -1.5)" fill="none" d="M 22.711034 21.515596 L 11.429783 8.958304 L 9.591241 8.958304 L 9.591241 37.999972 L 15.393325 37.999972 L 15.393325 22.041638 L 22.711034 29.718722 L 30.033951 22.041638 L 29.992284 37.999972 L 35.794368 37.999972 L 35.794368 8.958304 L 33.987076 8.958304 Z M 62.752703 28.041638 L 62.752703 9.395804 L 57.065203 9.395804 L 57.065203 27.999972 C 57.065203 33.994764 47.789161 33.994764 47.789161 27.999972 L 47.789161 9.395804 L 42.065202 9.395804 L 42.065202 28.041638 C 42.065202 41.640598 62.752703 41.640598 62.752703 28.041638 Z M 67.757912 36.166639 C 71.632912 38.156222 75.184996 38.359347 76.789162 38.244764 C 82.148538 37.963514 85.429788 34.31768 85.429788 29.562472 C 85.429788 24.999971 81.591246 22.44268 77.148538 20.802055 C 75.507912 20.234346 74.112079 19.526013 73.945412 17.921846 C 73.830829 16.322888 74.747496 14.838512 76.789162 14.718721 C 77.669371 14.682262 79.476663 14.640596 82.627705 15.921846 L 83.351663 10.401012 C 79.669371 9.12497 77.705829 9.12497 76.231871 9.203095 C 71.466245 9.43747 68.148537 13.119762 68.148537 17.921846 C 68.148537 22.718721 72.148537 24.999971 76.632912 26.640597 C 78.231871 27.197888 79.476663 27.921847 79.591246 29.562472 C 79.747496 31.114555 78.309996 32.31768 76.632912 32.44268 C 75.315204 32.562472 71.747495 32.484347 68.466245 30.156222 Z M 95.945414 37.999972 L 95.945414 9.395804 L 90.231872 9.395804 L 90.231872 37.999972 Z M 120.58604 16.036429 L 121.268332 10.15622 C 119.549582 9.395804 117.627707 9.046845 115.627707 9.046845 C 96.26833 9.046845 96.231872 38.078097 115.627707 38.078097 C 117.627707 38.078097 120.14854 37.598931 121.914165 36.874972 L 121.153749 30.958305 C 120.070415 31.515597 118.106874 32.239555 115.627707 32.239555 C 104.309998 32.239555 104.309998 14.796846 115.627707 14.796846 C 118.106874 14.796846 119.513124 15.479138 120.58604 16.036429 Z M 120.58604 16.036429" stroke="#004AAD" stroke-width="1.5"/><g fill="#004AAD"><g><g><path d="M 9.625 -11.640625 L 15.59375 -11.640625 L 15.59375 -9.515625 L 9.625 -9.515625 L 9.625 -3.328125 L 7.46875 -3.328125 L 7.46875 -9.515625 L 1.5 -9.515625 L 1.5 -11.640625 L 7.46875 -11.640625 L 7.46875 -17.84375 L 9.625 -17.84375 Z M 9.625 -11.640625" transform="translate(117.008 27)"/></g></g></g><g fill="#004AAD"><g><g><path d="M 6.691406 0 L 6.691406 -8.191406 L 10.828125 -8.191406 C 19.140625 -8.191406 19.171875 -21.421875 10.828125 -21.421875 L 2.398438 -21.421875 L 2.398438 0 Z M 6.691406 -12.359375 L 6.691406 -17.160156 L 10.46875 -17.160156 C 13.351562 -17.160156 13.351562 -12.359375 10.46875 -12.359375 Z M 6.691406 -12.359375" transform="translate(138.15 27)"/></g></g></g><g fill="#004AAD"><g><g><path d="M 13.078125 0 L 17.941406 0 L 12.960938 -8.851562 C 19.261719 -10.679688 18.511719 -21.449219 10.859375 -21.449219 L 2.398438 -21.449219 L 2.398438 0 L 6.691406 0 L 6.691406 -8.191406 L 8.761719 -8.191406 Z M 6.691406 -12.359375 L 6.691406 -17.160156 L 10.46875 -17.160156 C 13.378906 -17.160156 13.378906 -12.359375 10.46875 -12.359375 Z M 6.691406 -12.359375" transform="translate(156.24 27)"/></g></g></g><g fill="#004AAD"><g><g><path d="M 12.71875 0.300781 C 27.480469 0.300781 27.480469 -21.808594 12.71875 -21.808594 C -2.039062 -21.808594 -2.039062 0.300781 12.71875 0.300781 Z M 12.71875 -4.140625 C 4.140625 -4.140625 4.140625 -17.398438 12.71875 -17.398438 C 21.300781 -17.398438 21.300781 -4.140625 12.71875 -4.140625 Z M 12.71875 -4.140625" transform="translate(174.63 27)"/></g></g></g><g fill="#004AAD"><g><g><path d="M 8.789062 -21.449219 L 2.398438 -21.449219 L 2.398438 0 L 8.789062 0 C 23.070312 0 23.070312 -21.449219 8.789062 -21.449219 Z M 8.789062 -17.160156 C 17.128906 -17.160156 17.128906 -4.289062 8.789062 -4.289062 L 6.691406 -4.289062 L 6.691406 -17.160156 Z M 8.789062 -17.160156" transform="translate(200.04 27)"/></g></g></g><g fill="#004AAD"><g><g><path d="M 17.789062 -7.46875 L 17.789062 -21.449219 L 13.53125 -21.449219 L 13.53125 -7.5 C 13.53125 -3 6.570312 -3 6.570312 -7.5 L 6.570312 -21.449219 L 2.28125 -21.449219 L 2.28125 -7.46875 C 2.28125 2.730469 17.789062 2.730469 17.789062 -7.46875 Z M 17.789062 -7.46875" transform="translate(221.16 27)"/></g></g></g><g fill="#004AAD"><g><g><path d="M 16.050781 -16.46875 L 16.558594 -20.878906 C 15.269531 -21.449219 13.828125 -21.71875 12.328125 -21.71875 C -2.191406 -21.71875 -2.21875 0.0585938 12.328125 0.0585938 C 13.828125 0.0585938 15.71875 -0.300781 17.039062 -0.839844 L 16.46875 -5.28125 C 15.660156 -4.859375 14.191406 -4.320312 12.328125 -4.320312 C 3.839844 -4.320312 3.839844 -17.398438 12.328125 -17.398438 C 14.191406 -17.398438 15.238281 -16.890625 16.050781 -16.46875 Z M 16.050781 -16.46875" transform="translate(241.29 27)"/></g></g></g><g fill="#004AAD"><g><g><path d="M 10.230469 0 L 10.230469 -17.160156 L 15.570312 -17.160156 L 15.570312 -21.421875 L 0.601562 -21.421875 L 0.601562 -17.160156 L 5.941406 -17.160156 L 5.941406 0 Z M 10.230469 0" transform="translate(259.35 27)"/></g></g></g><g fill="#004AAD"><g><g><path d="M 6.691406 0 L 6.691406 -21.449219 L 2.398438 -21.449219 L 2.398438 0 Z M 6.691406 0" transform="translate(275.76 27)"/></g></g></g><g fill="#004AAD"><g><g><path d="M 9.058594 0.449219 L 10.019531 0.449219 L 18.898438 -21.449219 L 13.949219 -21.449219 L 11.070312 -14.160156 L 9.539062 -9.871094 L 7.980469 -14.308594 L 5.128906 -21.449219 L 0.179688 -21.449219 Z M 9.058594 0.449219" transform="translate(284.88 27)"/></g></g></g><g fill="#004AAD"><g><g><path d="M 6.691406 0 L 6.691406 -21.449219 L 2.398438 -21.449219 L 2.398438 0 Z M 6.691406 0" transform="translate(303.99 27)"/></g></g></g><g fill="#004AAD"><g><g><path d="M 10.230469 0 L 10.230469 -17.160156 L 15.570312 -17.160156 L 15.570312 -21.421875 L 0.601562 -21.421875 L 0.601562 -17.160156 L 5.941406 -17.160156 L 5.941406 0 Z M 10.230469 0" transform="translate(313.11 27)"/></g></g></g><g fill="#004AAD"><g><g><path d="M 7.648438 0 L 11.910156 0 L 11.910156 -9.660156 L 19.410156 -21.449219 L 14.160156 -21.449219 L 9.78125 -14.070312 L 5.398438 -21.449219 L 0.179688 -21.449219 L 7.648438 -9.660156 Z M 7.648438 0" transform="translate(329.52 27)"/></g></g></g><g clip-path="url(#e)"><path fill="#FFF" d="M 290.996094 251.707031 C 290.996094 281.457031 266.878906 305.574219 237.128906 305.574219 C 207.378906 305.574219 183.261719 281.457031 183.261719 251.707031 C 183.261719 221.957031 207.378906 197.839844 237.128906 197.839844 C 266.878906 197.839844 290.996094 221.957031 290.996094 251.707031"/></g><path fill="#FFF" d="M 225.949219 283.042969 C 220.292969 283.042969 215.585938 278.960938 214.742188 273.449219 C 214.652344 273.453125 214.5625 273.453125 214.472656 273.453125 C 207.40625 273.453125 201.660156 267.707031 201.660156 260.644531 C 201.660156 258.015625 202.441406 255.511719 203.921875 253.371094 C 201.539062 250.980469 200.183594 247.71875 200.183594 244.332031 C 200.183594 237.78125 205.152344 232.292969 211.601562 231.59375 C 212.429688 225.257812 217.933594 220.375 224.386719 220.375 C 231.5 220.375 237.28125 226.15625 237.28125 233.265625 L 237.28125 271.707031 C 237.28125 277.957031 232.195312 283.042969 225.949219 283.042969"/><path d="M 224.386719 219.695312 C 220.964844 219.695312 217.695312 220.972656 215.183594 223.296875 C 212.960938 225.34375 211.507812 228.042969 211.007812 230.984375 C 204.472656 231.953125 199.503906 237.609375 199.503906 244.332031 C 199.503906 247.714844 200.785156 250.972656 203.054688 253.449219 C 201.695312 255.597656 200.976562 258.058594 200.976562 260.644531 C 200.976562 267.980469 206.871094 273.972656 214.175781 274.128906 C 215.296875 279.679688 220.152344 283.722656 225.949219 283.722656 C 232.570312 283.722656 237.960938 278.332031 237.960938 271.707031 L 237.960938 233.265625 C 237.960938 225.78125 231.875 219.695312 224.386719 219.695312 Z M 224.386719 221.054688 C 231.132812 221.054688 236.601562 226.519531 236.601562 233.265625 L 236.601562 271.707031 C 236.601562 277.59375 231.828125 282.359375 225.949219 282.359375 C 220.410156 282.359375 215.859375 278.140625 215.339844 272.738281 C 215.054688 272.761719 214.761719 272.773438 214.472656 272.773438 C 207.773438 272.773438 202.339844 267.34375 202.339844 260.644531 C 202.339844 257.878906 203.261719 255.332031 204.820312 253.292969 C 202.390625 251.074219 200.867188 247.882812 200.867188 244.332031 C 200.867188 237.890625 205.882812 232.625 212.21875 232.226562 C 212.746094 225.96875 217.992188 221.054688 224.386719 221.054688"/><path stroke-linecap="round" transform="matrix(.0403 0 0 -.0403 151.437 337.4)" fill="none" stroke-linejoin="round" d="M 1813.153804 1841.964574 C 1813.153804 1998.866334 1940.400259 2126.015877 2097.205107 2126.015877" stroke="#040505" stroke-width="33.737" stroke-miterlimit="10"/><path stroke-linecap="round" transform="matrix(.0403 0 0 -.0403 151.437 337.4)" fill="none" stroke-linejoin="round" d="M 1699.572048 2236.787163 C 1800.070581 2236.787163 1881.574213 2155.283531 1881.574213 2054.784998" stroke="#040505" stroke-width="33.737" stroke-miterlimit="10"/><path stroke-linecap="round" transform="matrix(.0403 0 0 -.0403 151.437 337.4)" fill="none" stroke-linejoin="round" d="M 1819.840784 2195.793065 C 1750.645073 2336.510394 1808.598904 2506.786115 1949.316233 2575.981827" stroke="#040505" stroke-width="33.737" stroke-miterlimit="10"/><path stroke-linecap="round" transform="matrix(.0403 0 0 -.0403 151.437 337.4)" fill="none" stroke-linejoin="round" d="M 1790.18548 1513.042663 C 1633.380632 1513.042663 1506.23109 1640.095293 1506.23109 1796.997053" stroke="#040505" stroke-width="33.737" stroke-miterlimit="10"/><path stroke-linecap="round" transform="matrix(.0403 0 0 -.0403 151.437 337.4)" fill="none" stroke-linejoin="round" d="M 1423.079941 1875.399477 C 1312.211742 1986.267675 1312.211742 2166.13776 1423.079941 2277.005959" stroke="#040505" stroke-width="33.737" stroke-miterlimit="10"/><path stroke-linecap="round" transform="matrix(.0403 0 0 -.0403 151.437 337.4)" fill="none" stroke-linejoin="round" d="M 1953.77422 1399.751645 C 1861.222533 1399.751645 1786.115144 1474.762122 1786.115144 1567.410722 C 1786.115144 1659.962409 1861.222533 1735.069799 1953.77422 1735.069799" stroke="#040505" stroke-width="33.737" stroke-miterlimit="10"/><path stroke-linecap="round" transform="matrix(.0403 0 0 -.0403 151.437 337.4)" fill="#FFF" stroke-linejoin="round" d="M 1799.973668 2426.445436 C 1738.143327 2426.445436 1687.942517 2476.646247 1687.942517 2538.476588 C 1687.942517 2600.403842 1738.143327 2650.604653 1799.973668 2650.604653" stroke="#040505" stroke-width="33.737" stroke-miterlimit="10"/><path fill="#FFF" d="M 248.316406 283.042969 C 242.0625 283.042969 236.980469 277.957031 236.980469 271.707031 L 236.980469 233.265625 C 236.980469 226.15625 242.761719 220.375 249.871094 220.375 C 256.324219 220.375 261.828125 225.257812 262.65625 231.59375 C 269.105469 232.292969 274.074219 237.78125 274.074219 244.332031 C 274.074219 247.71875 272.71875 250.980469 270.339844 253.371094 C 271.816406 255.515625 272.597656 258.015625 272.597656 260.644531 C 272.597656 267.707031 266.851562 273.453125 259.789062 273.453125 C 259.695312 273.453125 259.609375 273.453125 259.515625 273.449219 C 258.671875 278.960938 253.964844 283.042969 248.316406 283.042969"/><path d="M 249.871094 219.695312 C 242.386719 219.695312 236.300781 225.78125 236.300781 233.265625 L 236.300781 271.707031 C 236.300781 278.332031 241.6875 283.722656 248.316406 283.722656 C 254.105469 283.722656 258.964844 279.675781 260.085938 274.128906 C 267.386719 273.972656 273.28125 267.980469 273.28125 260.644531 C 273.28125 258.0625 272.566406 255.597656 271.203125 253.449219 C 273.472656 250.972656 274.753906 247.714844 274.753906 244.332031 C 274.753906 237.609375 269.785156 231.953125 263.253906 230.984375 C 262.753906 228.042969 261.296875 225.34375 259.078125 223.296875 C 256.566406 220.972656 253.292969 219.695312 249.871094 219.695312 Z M 249.871094 221.054688 C 256.261719 221.054688 261.511719 225.96875 262.039062 232.226562 C 268.375 232.625 273.394531 237.890625 273.394531 244.332031 C 273.394531 247.882812 271.871094 251.074219 269.4375 253.292969 C 270.996094 255.332031 271.917969 257.878906 271.917969 260.644531 C 271.917969 267.34375 266.488281 272.773438 259.789062 272.773438 C 259.496094 272.773438 259.207031 272.761719 258.917969 272.738281 C 258.398438 278.140625 253.847656 282.359375 248.316406 282.359375 C 242.429688 282.359375 237.65625 277.59375 237.65625 271.707031 L 237.65625 233.265625 C 237.65625 226.519531 243.128906 221.054688 249.871094 221.054688"/><path stroke-linecap="round" transform="matrix(.0403 0 0 -.0403 151.437 337.4)" fill="none" stroke-linejoin="round" d="M 2582.447302 2063.119495 C 2434.364603 2114.870909 2272.326466 2036.856137 2220.478139 1888.870351" stroke="#040505" stroke-width="33.737" stroke-miterlimit="10"/><path stroke-linecap="round" transform="matrix(.0403 0 0 -.0403 151.437 337.4)" fill="none" stroke-linejoin="round" d="M 2552.404346 2236.787163 C 2451.905812 2236.787163 2370.40218 2155.283531 2370.40218 2054.784998" stroke="#040505" stroke-width="33.737" stroke-miterlimit="10"/><path stroke-linecap="round" transform="matrix(.0403 0 0 -.0403 151.437 337.4)" fill="none" stroke-linejoin="round" d="M 2432.232522 2195.793065 C 2501.428233 2336.510394 2443.474402 2506.786115 2302.66016 2575.981827" stroke="#040505" stroke-width="33.737" stroke-miterlimit="10"/><path stroke-linecap="round" transform="matrix(.0403 0 0 -.0403 151.437 337.4)" fill="none" stroke-linejoin="round" d="M 2461.790914 1513.042663 C 2618.595761 1513.042663 2745.745304 1640.095293 2745.745304 1796.997053" stroke="#040505" stroke-width="33.737" stroke-miterlimit="10"/><path stroke-linecap="round" transform="matrix(.0403 0 0 -.0403 151.437 337.4)" fill="none" stroke-linejoin="round" d="M 2828.896453 1875.399477 C 2939.764652 1986.267675 2939.764652 2166.13776 2828.896453 2277.005959" stroke="#040505" stroke-width="33.737" stroke-miterlimit="10"/><path stroke-linecap="round" transform="matrix(.0403 0 0 -.0403 151.437 337.4)" fill="none" stroke-linejoin="round" d="M 2298.202173 1399.751645 C 2390.947686 1399.751645 2465.86125 1474.762122 2465.86125 1567.410722 C 2465.86125 1659.962409 2390.947686 1735.069799 2298.202173 1735.069799" stroke="#040505" stroke-width="33.737" stroke-miterlimit="10"/><path stroke-linecap="round" transform="matrix(.0403 0 0 -.0403 151.437 337.4)" fill="#FFF" stroke-linejoin="round" d="M 2452.002725 2426.445436 C 2513.929979 2426.445436 2564.13079 2476.646247 2564.13079 2538.476588 C 2564.13079 2600.403842 2513.929979 2650.604653 2452.002725 2650.604653" stroke="#040505" stroke-width="33.737" stroke-miterlimit="10"/><g clip-path="url(#f)"><path fill="#004AAD" d="M 275.757812 245.101562 C 276.019531 241.414062 276.707031 222.832031 265.429688 210.613281 C 258.773438 203.398438 249.308594 199.855469 237.296875 200.089844 C 225.292969 199.863281 215.824219 203.398438 209.167969 210.613281 C 198.175781 222.519531 198.550781 240.472656 198.816406 244.792969 C 198.660156 245.390625 198.574219 246.019531 198.574219 246.667969 L 198.574219 263.238281 C 198.574219 267.253906 201.828125 270.511719 205.84375 270.511719 L 210.890625 270.511719 C 214.90625 270.511719 218.164062 267.253906 218.164062 263.238281 L 218.164062 246.667969 C 218.164062 242.652344 214.90625 239.394531 210.890625 239.394531 L 205.84375 239.394531 C 205.296875 239.394531 204.761719 239.457031 204.25 239.570312 C 204.523438 232.964844 206.125 221.933594 213.191406 214.292969 C 218.753906 208.28125 226.859375 205.328125 237.242188 205.546875 L 237.351562 205.546875 C 247.738281 205.339844 255.839844 208.28125 261.402344 214.292969 C 268.476562 221.941406 270.078125 232.988281 270.347656 239.59375 C 269.804688 239.464844 269.238281 239.394531 268.65625 239.394531 L 263.609375 239.394531 C 259.59375 239.394531 256.335938 242.652344 256.335938 246.667969 L 256.335938 263.238281 C 256.335938 267.253906 259.59375 270.511719 263.609375 270.511719 L 268.65625 270.511719 C 272.671875 270.511719 275.929688 267.253906 275.929688 263.238281 L 275.929688 246.667969 C 275.929688 246.128906 275.867188 245.605469 275.757812 245.101562 Z M 275.757812 245.101562"/></g><g clip-path="url(#g)"><path fill="#004AAD" d="M 196.804688 247.074219 L 192.414062 249.648438 L 192.414062 259.5 L 196.804688 262.378906"/></g><g clip-path="url(#h)"><path fill="#004AAD" d="M 277.542969 247.074219 L 281.9375 249.648438 L 281.9375 259.5 L 277.542969 262.378906"/></g><g clip-path="url(#i)"><path fill="#FFF" d="M 358.578125 256.34375 C 358.578125 273.195312 344.917969 286.851562 328.066406 286.851562 C 311.21875 286.851562 297.558594 273.195312 297.558594 256.34375 C 297.558594 239.492188 311.21875 225.835938 328.066406 225.835938 C 344.917969 225.835938 358.578125 239.492188 358.578125 256.34375"/></g><path fill="#FFF" d="M 321.734375 274.089844 C 318.53125 274.089844 315.863281 271.777344 315.386719 268.65625 C 315.335938 268.660156 315.285156 268.660156 315.234375 268.660156 C 311.234375 268.660156 307.976562 265.40625 307.976562 261.40625 C 307.976562 259.917969 308.421875 258.5 309.257812 257.285156 C 307.910156 255.933594 307.140625 254.085938 307.140625 252.167969 C 307.140625 248.457031 309.957031 245.347656 313.609375 244.953125 C 314.078125 241.363281 317.195312 238.597656 320.851562 238.597656 C 324.878906 238.597656 328.152344 241.871094 328.152344 245.898438 L 328.152344 267.671875 C 328.152344 271.210938 325.273438 274.089844 321.734375 274.089844"/><path d="M 320.851562 238.214844 C 318.914062 238.214844 317.058594 238.9375 315.636719 240.25 C 314.378906 241.410156 313.554688 242.941406 313.273438 244.609375 C 309.570312 245.15625 306.757812 248.359375 306.757812 252.167969 C 306.757812 254.082031 307.480469 255.929688 308.765625 257.332031 C 308 258.546875 307.589844 259.941406 307.589844 261.40625 C 307.589844 265.558594 310.929688 268.953125 315.066406 269.042969 C 315.699219 272.1875 318.453125 274.476562 321.734375 274.476562 C 325.484375 274.476562 328.539062 271.421875 328.539062 267.671875 L 328.539062 245.898438 C 328.539062 241.660156 325.089844 238.214844 320.851562 238.214844 Z M 320.851562 238.984375 C 324.671875 238.984375 327.769531 242.078125 327.769531 245.898438 L 327.769531 267.671875 C 327.769531 271.003906 325.066406 273.707031 321.734375 273.707031 C 318.597656 273.707031 316.019531 271.316406 315.726562 268.257812 C 315.5625 268.269531 315.398438 268.273438 315.234375 268.273438 C 311.441406 268.273438 308.363281 265.199219 308.363281 261.40625 C 308.363281 259.839844 308.886719 258.394531 309.765625 257.242188 C 308.390625 255.984375 307.527344 254.175781 307.527344 252.167969 C 307.527344 248.519531 310.371094 245.535156 313.957031 245.3125 C 314.257812 241.765625 317.226562 238.984375 320.851562 238.984375"/><path stroke-linecap="round" transform="matrix(.02283 0 0 -.02283 279.532 304.88)" fill="none" stroke-linejoin="round" d="M 1813.178482 1841.977395 C 1813.178482 1998.882757 1940.482288 2126.015456 2097.216543 2126.015456" stroke="#040505" stroke-width="33.737" stroke-miterlimit="10"/><path stroke-linecap="round" transform="matrix(.02283 0 0 -.02283 279.532 304.88)" fill="none" stroke-linejoin="round" d="M 1699.563258 2236.721856 C 1800.17433 2236.721856 1881.621389 2155.274798 1881.621389 2054.834833" stroke="#040505" stroke-width="33.737" stroke-miterlimit="10"/><path stroke-linecap="round" transform="matrix(.02283 0 0 -.02283 279.532 304.88)" fill="none" stroke-linejoin="round" d="M 1819.851666 2195.82722 C 1750.553223 2336.477392 1808.558586 2506.729122 1949.379866 2576.027564" stroke="#040505" stroke-width="33.737" stroke-miterlimit="10"/><path stroke-linecap="round" transform="matrix(.02283 0 0 -.02283 279.532 304.88)" fill="none" stroke-linejoin="round" d="M 1790.250109 1512.938123 C 1633.344746 1512.938123 1506.212048 1640.070821 1506.212048 1796.976184" stroke="#040505" stroke-width="33.737" stroke-miterlimit="10"/><path stroke-linecap="round" transform="matrix(.02283 0 0 -.02283 279.532 304.88)" fill="none" stroke-linejoin="round" d="M 1423.053917 1875.343311 C 1312.176409 1986.22082 1312.176409 2166.054556 1423.053917 2276.932064" stroke="#040505" stroke-width="33.737" stroke-miterlimit="10"/><path stroke-linecap="round" transform="matrix(.02283 0 0 -.02283 279.532 304.88)" fill="none" stroke-linejoin="round" d="M 1953.828655 1399.83622 C 1861.259624 1399.83622 1786.143534 1474.781203 1786.143534 1567.350233 C 1786.143534 1659.919264 1861.259624 1735.035354 1953.828655 1735.035354" stroke="#040505" stroke-width="33.737" stroke-miterlimit="10"/><path stroke-linecap="round" transform="matrix(.02283 0 0 -.02283 279.532 304.88)" fill="#FFF" stroke-linejoin="round" d="M 1800.003223 2426.479814 C 1738.062393 2426.479814 1687.927964 2476.614243 1687.927964 2538.555073 C 1687.927964 2600.324796 1738.062393 2650.630332 1800.003223 2650.630332" stroke="#040505" stroke-width="33.737" stroke-miterlimit="10"/><path fill="#FFF" d="M 334.402344 274.089844 C 330.863281 274.089844 327.984375 271.210938 327.984375 267.671875 L 327.984375 245.898438 C 327.984375 241.871094 331.257812 238.597656 335.285156 238.597656 C 338.9375 238.597656 342.058594 241.363281 342.523438 244.953125 C 346.175781 245.347656 348.992188 248.457031 348.992188 252.167969 C 348.992188 254.085938 348.226562 255.933594 346.875 257.285156 C 347.714844 258.5 348.15625 259.917969 348.15625 261.40625 C 348.15625 265.40625 344.902344 268.660156 340.902344 268.660156 C 340.847656 268.660156 340.800781 268.660156 340.746094 268.65625 C 340.269531 271.777344 337.601562 274.089844 334.402344 274.089844"/><path d="M 335.285156 238.214844 C 331.042969 238.214844 327.597656 241.660156 327.597656 245.898438 L 327.597656 267.671875 C 327.597656 271.421875 330.648438 274.476562 334.402344 274.476562 C 337.683594 274.476562 340.433594 272.183594 341.070312 269.042969 C 345.207031 268.953125 348.542969 265.558594 348.542969 261.40625 C 348.542969 259.945312 348.140625 258.546875 347.367188 257.332031 C 348.652344 255.929688 349.378906 254.082031 349.378906 252.167969 C 349.378906 248.359375 346.5625 245.15625 342.863281 244.609375 C 342.578125 242.941406 341.753906 241.410156 340.496094 240.25 C 339.074219 238.9375 337.222656 238.214844 335.285156 238.214844 Z M 335.285156 238.984375 C 338.90625 238.984375 341.875 241.765625 342.175781 245.3125 C 345.765625 245.535156 348.605469 248.519531 348.605469 252.167969 C 348.605469 254.175781 347.742188 255.984375 346.367188 257.242188 C 347.25 258.394531 347.769531 259.839844 347.769531 261.40625 C 347.769531 265.199219 344.695312 268.273438 340.902344 268.273438 C 340.734375 268.273438 340.570312 268.269531 340.410156 268.257812 C 340.113281 271.316406 337.535156 273.707031 334.402344 273.707031 C 331.070312 273.707031 328.367188 271.003906 328.367188 267.671875 L 328.367188 245.898438 C 328.367188 242.078125 331.464844 238.984375 335.285156 238.984375"/><path stroke-linecap="round" transform="matrix(.02283 0 0 -.02283 279.532 304.88)" fill="none" stroke-linejoin="round" d="M 2582.476749 2063.047982 C 2434.468964 2114.893483 2272.259276 2036.86857 2220.584882 1888.860785" stroke="#040505" stroke-width="33.737" stroke-miterlimit="10"/><path stroke-linecap="round" transform="matrix(.02283 0 0 -.02283 279.532 304.88)" fill="none" stroke-linejoin="round" d="M 2552.36187 2236.721856 C 2451.921905 2236.721856 2370.474847 2155.274798 2370.474847 2054.834833" stroke="#040505" stroke-width="33.737" stroke-miterlimit="10"/><path stroke-linecap="round" transform="matrix(.02283 0 0 -.02283 279.532 304.88)" fill="none" stroke-linejoin="round" d="M 2432.24457 2195.82722 C 2501.371905 2336.477392 2443.537649 2506.729122 2302.716369 2576.027564" stroke="#040505" stroke-width="33.737" stroke-miterlimit="10"/><path stroke-linecap="round" transform="matrix(.02283 0 0 -.02283 279.532 304.88)" fill="none" stroke-linejoin="round" d="M 2461.846126 1512.938123 C 2618.580382 1512.938123 2745.71308 1640.070821 2745.71308 1796.976184" stroke="#040505" stroke-width="33.737" stroke-miterlimit="10"/><path stroke-linecap="round" transform="matrix(.02283 0 0 -.02283 279.532 304.88)" fill="none" stroke-linejoin="round" d="M 2828.871211 1875.343311 C 2939.748719 1986.22082 2939.748719 2166.054556 2828.871211 2276.932064" stroke="#040505" stroke-width="33.737" stroke-miterlimit="10"/><path stroke-linecap="round" transform="matrix(.02283 0 0 -.02283 279.532 304.88)" fill="none" stroke-linejoin="round" d="M 2298.267581 1399.83622 C 2390.836611 1399.83622 2465.952701 1474.781203 2465.952701 1567.350233 C 2465.952701 1659.919264 2390.836611 1735.035354 2298.267581 1735.035354" stroke="#040505" stroke-width="33.737" stroke-miterlimit="10"/><path stroke-linecap="round" transform="matrix(.02283 0 0 -.02283 279.532 304.88)" fill="#FFF" stroke-linejoin="round" d="M 2451.921905 2426.479814 C 2513.862735 2426.479814 2564.168271 2476.614243 2564.168271 2538.555073 C 2564.168271 2600.324796 2513.862735 2650.630332 2451.921905 2650.630332" stroke="#040505" stroke-width="33.737" stroke-miterlimit="10"/><g clip-path="url(#j)"><path fill="#004AAD" d="M 349.945312 252.601562 C 350.09375 250.511719 350.484375 239.988281 344.09375 233.066406 C 340.324219 228.984375 334.964844 226.976562 328.164062 227.109375 C 321.363281 226.980469 316 228.984375 312.230469 233.066406 C 306.003906 239.8125 306.214844 249.980469 306.367188 252.429688 C 306.277344 252.765625 306.230469 253.121094 306.230469 253.488281 L 306.230469 262.875 C 306.230469 265.148438 308.074219 266.996094 310.347656 266.996094 L 313.207031 266.996094 C 315.480469 266.996094 317.324219 265.148438 317.324219 262.875 L 317.324219 253.488281 C 317.324219 251.214844 315.480469 249.371094 313.207031 249.371094 L 310.347656 249.371094 C 310.035156 249.371094 309.734375 249.40625 309.445312 249.46875 C 309.597656 245.730469 310.507812 239.480469 314.511719 235.152344 C 317.660156 231.746094 322.25 230.074219 328.132812 230.199219 L 328.195312 230.199219 C 334.078125 230.082031 338.664062 231.746094 341.816406 235.152344 C 345.824219 239.484375 346.726562 245.742188 346.882812 249.484375 C 346.574219 249.410156 346.253906 249.371094 345.925781 249.371094 L 343.0625 249.371094 C 340.789062 249.371094 338.945312 251.214844 338.945312 253.488281 L 338.945312 262.875 C 338.945312 265.148438 340.789062 266.996094 343.0625 266.996094 L 345.925781 266.996094 C 348.199219 266.996094 350.042969 265.148438 350.042969 262.875 L 350.042969 253.488281 C 350.042969 253.183594 350.007812 252.890625 349.945312 252.601562 Z M 349.945312 252.601562"/></g><g clip-path="url(#k)"><path fill="#004AAD" d="M 305.226562 253.71875 L 302.738281 255.175781 L 302.738281 260.757812 L 305.226562 262.386719"/></g><g clip-path="url(#l)"><path fill="#004AAD" d="M 350.957031 253.71875 L 353.445312 255.175781 L 353.445312 260.757812 L 350.957031 262.386719"/></g><path transform="matrix(.90877 0 0 .90877 75.034 28.46)" fill="none" d="M 23.651283 26.121747 L 9.367786 10.217763 L 7.042365 10.217763 L 7.042365 46.998951 L 14.388287 46.998951 L 14.388287 26.792294 L 23.651283 36.510918 L 32.927175 26.792294 L 32.879893 46.998951 L 40.225814 46.998951 L 40.225814 10.217763 L 37.934781 10.217763 Z M 74.363502 34.383222 L 74.363502 10.772253 L 67.163725 10.772253 L 67.163725 34.33594 C 67.163725 41.931167 55.416268 41.931167 55.416268 34.33594 L 55.416268 10.772253 L 48.164911 10.772253 L 48.164911 34.383222 C 48.164911 51.615404 74.363502 51.615404 74.363502 34.383222 Z M 80.699305 44.67353 C 85.608049 47.196676 90.108447 47.458877 92.137279 47.308434 C 98.92871 46.951668 103.085238 42.335215 103.085238 36.313192 C 103.085238 30.536177 98.223777 27.299502 92.597205 25.219089 C 90.516792 24.50126 88.75016 23.598602 88.53954 21.569769 C 88.389097 19.540936 89.553956 17.662547 92.137279 17.516402 C 93.250558 17.464822 95.537293 17.413241 99.534781 19.033728 L 100.450335 12.04887 C 95.786599 10.428383 93.302139 10.428383 91.432346 10.527246 C 85.397428 10.823833 81.193618 15.487569 81.193618 21.569769 C 81.193618 27.643372 86.261402 30.536177 91.939554 32.616591 C 93.968387 33.321524 95.537293 34.237078 95.687736 36.313192 C 95.885461 38.281848 94.067249 39.803472 91.939554 39.962512 C 90.271785 40.112955 85.754193 40.014093 81.601964 37.069706 Z M 116.401601 46.998951 L 116.401601 10.772253 L 109.163139 10.772253 L 109.163139 46.998951 Z M 116.401601 46.998951" stroke="#004AAD" stroke-width="1.9"/><g fill="#004AAD"><g><g><path d="M 14.320312 0.710938 L 15.835938 0.710938 L 29.871094 -33.898438 L 22.046875 -33.898438 L 17.496094 -22.378906 L 15.078125 -15.597656 L 12.613281 -22.617188 L 8.109375 -33.898438 L 0.285156 -33.898438 Z M 14.320312 0.710938" transform="translate(185.05 71.498)"/></g></g></g><g fill="#004AAD"><g><g><path d="M 10.574219 0 L 10.574219 -33.898438 L 3.792969 -33.898438 L 3.792969 0 Z M 10.574219 0" transform="translate(215.25 71.498)"/></g></g></g><g fill="#004AAD"><g><g><path d="M 16.167969 0 L 16.167969 -27.121094 L 24.605469 -27.121094 L 24.605469 -33.851562 L 0.949219 -33.851562 L 0.949219 -27.121094 L 9.386719 -27.121094 L 9.386719 0 Z M 16.167969 0" transform="translate(229.662 71.498)"/></g></g></g><g fill="#004AAD"><g><g><path d="M 12.089844 0 L 18.824219 0 L 18.824219 -15.265625 L 30.675781 -33.898438 L 22.378906 -33.898438 L 15.457031 -22.234375 L 8.535156 -33.898438 L 0.285156 -33.898438 L 12.089844 -15.265625 Z M 12.089844 0" transform="translate(255.594 71.498)"/></g></g></g><g clip-path="url(#m)"><path fill="#FFF" d="M 111.199219 113.746094 C 111.199219 130.542969 97.585938 144.15625 80.789062 144.15625 C 63.988281 144.15625 50.375 130.542969 50.375 113.746094 C 50.375 96.945312 63.988281 83.332031 80.789062 83.332031 C 97.585938 83.332031 111.199219 96.945312 111.199219 113.746094"/></g><path fill="#FFF" d="M 74.472656 131.4375 C 71.28125 131.4375 68.625 129.128906 68.148438 126.019531 C 68.097656 126.023438 68.046875 126.023438 67.996094 126.023438 C 64.007812 126.023438 60.761719 122.777344 60.761719 118.789062 C 60.761719 117.304688 61.203125 115.894531 62.039062 114.683594 C 60.691406 113.335938 59.929688 111.492188 59.929688 109.578125 C 59.929688 105.882812 62.734375 102.78125 66.375 102.386719 C 66.839844 98.8125 69.949219 96.050781 73.59375 96.050781 C 77.609375 96.050781 80.875 99.320312 80.875 103.332031 L 80.875 125.035156 C 80.875 128.5625 78 131.4375 74.472656 131.4375"/><path d="M 73.59375 95.671875 C 71.660156 95.671875 69.8125 96.390625 68.394531 97.703125 C 67.140625 98.859375 66.320312 100.382812 66.039062 102.042969 C 62.347656 102.589844 59.542969 105.785156 59.542969 109.578125 C 59.542969 111.488281 60.265625 113.332031 61.546875 114.726562 C 60.78125 115.941406 60.375 117.332031 60.375 118.789062 C 60.375 122.929688 63.703125 126.316406 67.828125 126.40625 C 68.460938 129.539062 71.203125 131.820312 74.472656 131.820312 C 78.214844 131.820312 81.257812 128.777344 81.257812 125.035156 L 81.257812 103.332031 C 81.257812 99.105469 77.820312 95.671875 73.59375 95.671875 Z M 73.59375 96.4375 C 77.402344 96.4375 80.488281 99.523438 80.488281 103.332031 L 80.488281 125.035156 C 80.488281 128.359375 77.792969 131.050781 74.472656 131.050781 C 71.347656 131.050781 68.777344 128.667969 68.484375 125.621094 C 68.324219 125.628906 68.160156 125.636719 67.996094 125.636719 C 64.214844 125.636719 61.144531 122.570312 61.144531 118.789062 C 61.144531 117.230469 61.667969 115.789062 62.546875 114.640625 C 61.171875 113.386719 60.3125 111.585938 60.3125 109.578125 C 60.3125 105.941406 63.144531 102.972656 66.722656 102.746094 C 67.019531 99.210938 69.980469 96.4375 73.59375 96.4375"/><path stroke-linecap="round" transform="matrix(.02276 0 0 -.02276 32.405 162.127)" fill="none" stroke-linejoin="round" d="M 1813.162128 1842.023144 C 1813.162128 1998.907736 1940.351933 2125.925895 2097.236524 2125.925895" stroke="#040505" stroke-width="33.737" stroke-miterlimit="10"/><path stroke-linecap="round" transform="matrix(.02276 0 0 -.02276 32.405 162.127)" fill="none" stroke-linejoin="round" d="M 1699.532369 2236.809315 C 1800.117019 2236.809315 1881.648946 2155.277388 1881.648946 2054.864384" stroke="#040505" stroke-width="33.737" stroke-miterlimit="10"/><path stroke-linecap="round" transform="matrix(.02276 0 0 -.02276 32.405 162.127)" fill="none" stroke-linejoin="round" d="M 1819.856328 2195.785882 C 1750.682925 2336.535735 1808.527681 2506.808727 1949.277533 2575.98213" stroke="#040505" stroke-width="33.737" stroke-miterlimit="10"/><path stroke-linecap="round" transform="matrix(.02276 0 0 -.02276 32.405 162.127)" fill="none" stroke-linejoin="round" d="M 1790.161542 1512.977453 C 1633.448597 1512.977453 1506.258791 1640.167259 1506.258791 1797.05185" stroke="#040505" stroke-width="33.737" stroke-miterlimit="10"/><path stroke-linecap="round" transform="matrix(.02276 0 0 -.02276 32.405 162.127)" fill="none" stroke-linejoin="round" d="M 1423.182049 1875.322499 C 1312.126983 1986.377566 1312.126983 2166.091097 1423.182049 2276.974517" stroke="#040505" stroke-width="33.737" stroke-miterlimit="10"/><path stroke-linecap="round" transform="matrix(.02276 0 0 -.02276 32.405 162.127)" fill="none" stroke-linejoin="round" d="M 1953.740334 1399.862633 C 1861.223053 1399.862633 1786.042034 1474.872005 1786.042034 1567.389286 C 1786.042034 1660.078213 1861.223053 1735.087586 1953.740334 1735.087586" stroke="#040505" stroke-width="33.737" stroke-miterlimit="10"/><path stroke-linecap="round" transform="matrix(.02276 0 0 -.02276 32.405 162.127)" fill="#FFF" stroke-linejoin="round" d="M 1799.945373 2426.478323 C 1738.152755 2426.478323 1687.86043 2476.599002 1687.86043 2538.563266 C 1687.86043 2600.355884 1738.152755 2650.64821 1799.945373 2650.64821" stroke="#040505" stroke-width="33.737" stroke-miterlimit="10"/><path fill="#FFF" d="M 87.101562 131.4375 C 83.574219 131.4375 80.703125 128.5625 80.703125 125.035156 L 80.703125 103.332031 C 80.703125 99.320312 83.964844 96.050781 87.980469 96.050781 C 91.625 96.050781 94.734375 98.8125 95.199219 102.386719 C 98.839844 102.78125 101.648438 105.882812 101.648438 109.578125 C 101.648438 111.492188 100.882812 113.335938 99.539062 114.683594 C 100.371094 115.894531 100.8125 117.304688 100.8125 118.789062 C 100.8125 122.777344 97.570312 126.023438 93.582031 126.023438 C 93.53125 126.023438 93.480469 126.023438 93.425781 126.019531 C 92.953125 129.128906 90.292969 131.4375 87.101562 131.4375"/><path d="M 87.980469 95.671875 C 83.753906 95.671875 80.320312 99.105469 80.320312 103.332031 L 80.320312 125.035156 C 80.320312 128.777344 83.359375 131.820312 87.101562 131.820312 C 90.371094 131.820312 93.113281 129.535156 93.746094 126.40625 C 97.871094 126.316406 101.199219 122.933594 101.199219 118.789062 C 101.199219 117.332031 100.796875 115.941406 100.027344 114.726562 C 101.308594 113.332031 102.03125 111.488281 102.03125 109.578125 C 102.03125 105.785156 99.226562 102.589844 95.535156 102.042969 C 95.253906 100.382812 94.433594 98.859375 93.179688 97.703125 C 91.761719 96.390625 89.914062 95.671875 87.980469 95.671875 Z M 87.980469 96.4375 C 91.589844 96.4375 94.554688 99.210938 94.851562 102.746094 C 98.429688 102.972656 101.261719 105.941406 101.261719 109.578125 C 101.261719 111.585938 100.402344 113.386719 99.03125 114.640625 C 99.910156 115.789062 100.429688 117.230469 100.429688 118.789062 C 100.429688 122.570312 97.363281 125.636719 93.582031 125.636719 C 93.414062 125.636719 93.25 125.628906 93.089844 125.621094 C 92.796875 128.667969 90.226562 131.050781 87.101562 131.050781 C 83.78125 131.050781 81.085938 128.359375 81.085938 125.035156 L 81.085938 103.332031 C 81.085938 99.523438 84.171875 96.4375 87.980469 96.4375"/><path stroke-linecap="round" transform="matrix(.02276 0 0 -.02276 32.405 162.127)" fill="none" stroke-linejoin="round" d="M 2582.480222 2063.1034 C 2434.349585 2114.940541 2272.315609 2036.841537 2220.478468 1888.882546" stroke="#040505" stroke-width="33.737" stroke-miterlimit="10"/><path stroke-linecap="round" transform="matrix(.02276 0 0 -.02276 32.405 162.127)" fill="none" stroke-linejoin="round" d="M 2552.442144 2236.809315 C 2451.857493 2236.809315 2370.325567 2155.277388 2370.325567 2054.864384" stroke="#040505" stroke-width="33.737" stroke-miterlimit="10"/><path stroke-linecap="round" transform="matrix(.02276 0 0 -.02276 32.405 162.127)" fill="none" stroke-linejoin="round" d="M 2432.118185 2195.785882 C 2501.463234 2336.535735 2443.446832 2506.808727 2302.696979 2575.98213" stroke="#040505" stroke-width="33.737" stroke-miterlimit="10"/><path stroke-linecap="round" transform="matrix(.02276 0 0 -.02276 32.405 162.127)" fill="none" stroke-linejoin="round" d="M 2461.812971 1512.977453 C 2618.525916 1512.977453 2745.715721 1640.167259 2745.715721 1797.05185" stroke="#040505" stroke-width="33.737" stroke-miterlimit="10"/><path stroke-linecap="round" transform="matrix(.02276 0 0 -.02276 32.405 162.127)" fill="none" stroke-linejoin="round" d="M 2828.96411 1875.322499 C 2939.84753 1986.377566 2939.84753 2166.091097 2828.96411 2276.974517" stroke="#040505" stroke-width="33.737" stroke-miterlimit="10"/><path stroke-linecap="round" transform="matrix(.02276 0 0 -.02276 32.405 162.127)" fill="none" stroke-linejoin="round" d="M 2298.234179 1399.862633 C 2390.923106 1399.862633 2465.932479 1474.872005 2465.932479 1567.389286 C 2465.932479 1660.078213 2390.923106 1735.087586 2298.234179 1735.087586" stroke="#040505" stroke-width="33.737" stroke-miterlimit="10"/><path stroke-linecap="round" transform="matrix(.02276 0 0 -.02276 32.405 162.127)" fill="#FFF" stroke-linejoin="round" d="M 2452.02914 2426.478323 C 2513.821758 2426.478323 2564.114083 2476.599002 2564.114083 2538.563266 C 2564.114083 2600.355884 2513.821758 2650.64821 2452.02914 2650.64821" stroke="#040505" stroke-width="33.737" stroke-miterlimit="10"/><g clip-path="url(#n)"><path fill="#004AAD" d="M 102.75 109.945312 C 102.898438 107.867188 103.285156 97.40625 96.902344 90.527344 C 93.132812 86.46875 87.773438 84.472656 80.972656 84.605469 C 74.171875 84.480469 68.8125 86.46875 65.042969 90.527344 C 58.820312 97.234375 59.03125 107.339844 59.183594 109.769531 C 59.09375 110.109375 59.042969 110.460938 59.042969 110.824219 L 59.042969 120.152344 C 59.042969 122.414062 60.886719 124.25 63.160156 124.25 L 66.019531 124.25 C 68.292969 124.25 70.136719 122.414062 70.136719 120.152344 L 70.136719 110.824219 C 70.136719 108.566406 68.292969 106.730469 66.019531 106.730469 L 63.160156 106.730469 C 62.851562 106.730469 62.546875 106.765625 62.257812 106.832031 C 62.414062 103.113281 63.320312 96.902344 67.324219 92.601562 C 70.472656 89.214844 75.0625 87.554688 80.941406 87.679688 L 81.003906 87.679688 C 86.882812 87.5625 91.472656 89.214844 94.621094 92.601562 C 98.625 96.90625 99.53125 103.125 99.6875 106.84375 C 99.378906 106.769531 99.058594 106.730469 98.730469 106.730469 L 95.871094 106.730469 C 93.59375 106.730469 91.753906 108.566406 91.753906 110.824219 L 91.753906 120.152344 C 91.753906 122.414062 93.59375 124.25 95.871094 124.25 L 98.730469 124.25 C 101.003906 124.25 102.847656 122.414062 102.847656 120.152344 L 102.847656 110.824219 C 102.847656 110.523438 102.8125 110.230469 102.75 109.945312 Z M 102.75 109.945312"/></g><g clip-path="url(#o)"><path fill="#004AAD" d="M 58.042969 111.054688 L 55.554688 112.503906 L 55.554688 118.050781 L 58.042969 119.671875"/></g><g clip-path="url(#p)"><path fill="#004AAD" d="M 103.761719 111.054688 L 106.25 112.503906 L 106.25 118.050781 L 103.761719 119.671875"/></g><path transform="matrix(.90877 0 0 .90877 106.18 84.489)" fill="none" d="M 23.653212 26.120683 L 9.365417 10.216699 L 7.039996 10.216699 L 7.039996 46.997887 L 14.385918 46.997887 L 14.385918 26.79123 L 23.653212 36.509854 L 32.929104 26.79123 L 32.877523 46.997887 L 40.223445 46.997887 L 40.223445 10.216699 L 37.93671 10.216699 Z M 74.361133 34.386457 L 74.361133 10.775488 L 67.165654 10.775488 L 67.165654 34.334876 C 67.165654 41.930104 55.413899 41.930104 55.413899 34.334876 L 55.413899 10.775488 L 48.16684 10.775488 L 48.16684 34.386457 C 48.16684 51.614341 74.361133 51.614341 74.361133 34.386457 Z M 80.696936 44.676765 C 85.60568 47.19991 90.110376 47.457813 92.139208 47.30737 C 98.926341 46.950605 103.082869 42.338449 103.082869 36.312129 C 103.082869 30.539412 98.221408 27.298438 92.594836 25.218025 C 90.518721 24.500196 88.747791 23.597538 88.537171 21.573003 C 88.391026 19.544171 89.551587 17.661483 92.139208 17.515338 C 93.252487 17.463758 95.539222 17.416476 99.532412 19.036963 L 100.447966 12.047806 C 95.788528 10.427319 93.299769 10.427319 91.434275 10.526182 C 85.399358 10.82277 81.191249 15.486506 81.191249 21.573003 C 81.191249 27.642308 86.263331 30.539412 91.941483 32.615527 C 93.970316 33.32046 95.539222 34.236014 95.689665 36.312129 C 95.887391 38.280784 94.069178 39.802408 91.941483 39.961448 C 90.269415 40.111891 85.756123 40.013029 81.599595 37.068642 Z M 116.399232 46.997887 L 116.399232 10.775488 L 109.165068 10.775488 L 109.165068 46.997887 Z M 116.399232 46.997887" stroke="#004AAD" stroke-width="1.9"/><g fill="#004AAD"><g><g><path d="M 14.320312 0.710938 L 15.835938 0.710938 L 29.871094 -33.898438 L 22.046875 -33.898438 L 17.496094 -22.378906 L 15.078125 -15.597656 L 12.613281 -22.617188 L 8.109375 -33.898438 L 0.285156 -33.898438 Z M 14.320312 0.710938" transform="translate(216.197 127.526)"/></g></g></g><g fill="#004AAD"><g><g><path d="M 10.574219 0 L 10.574219 -33.898438 L 3.792969 -33.898438 L 3.792969 0 Z M 10.574219 0" transform="translate(246.396 127.526)"/></g></g></g><g fill="#004AAD"><g><g><path d="M 16.167969 0 L 16.167969 -27.121094 L 24.605469 -27.121094 L 24.605469 -33.851562 L 0.949219 -33.851562 L 0.949219 -27.121094 L 9.386719 -27.121094 L 9.386719 0 Z M 16.167969 0" transform="translate(260.808 127.526)"/></g></g></g><g fill="#004AAD"><g><g><path d="M 12.089844 0 L 18.824219 0 L 18.824219 -15.265625 L 30.675781 -33.898438 L 22.378906 -33.898438 L 15.457031 -22.234375 L 8.535156 -33.898438 L 0.285156 -33.898438 L 12.089844 -15.265625 Z M 12.089844 0" transform="translate(286.74 127.526)"/></g></g></g></svg>