<svg xmlns="http://www.w3.org/2000/svg" width="375" viewBox="0 0 375 375" height="375" version="1.0"><path transform="translate(0 143.97) scale(.83712)" fill="none" d="M 22.710824 21.51511 L 11.427737 8.958126 L 9.593885 8.958126 L 9.593885 38.00111 L 15.394083 38.00111 L 15.394083 22.042401 L 22.710824 29.718446 L 30.032232 22.042401 L 29.994901 38.00111 L 35.795099 38.00111 L 35.795099 8.958126 L 33.989245 8.958126 Z M 62.752251 28.038582 L 62.752251 9.396757 L 57.068711 9.396757 L 57.068711 28.001252 C 57.068711 33.997433 47.792128 33.997433 47.792128 28.001252 L 47.792128 9.396757 L 42.066591 9.396757 L 42.066591 28.038582 C 42.066591 41.640815 62.752251 41.640815 62.752251 28.038582 Z M 67.754513 36.162592 C 71.6322 38.155097 75.187912 38.360414 76.788449 38.243757 C 82.150015 37.959113 85.430417 34.319407 85.430417 29.564459 C 85.430417 25.000828 81.594727 22.443702 77.147753 20.801168 C 75.509886 20.236547 74.114665 19.522605 73.946679 17.922067 C 73.830022 16.32153 74.749281 14.83765 76.788449 14.720993 C 77.665711 14.678996 79.476232 14.641666 82.630643 15.920229 L 83.349252 10.404675 C 79.66755 9.121446 77.707708 9.121446 76.233161 9.200773 C 71.464213 9.434087 68.146482 13.115789 68.146482 17.922067 C 68.146482 22.719013 72.150158 25.000828 76.634462 26.643362 C 78.234999 27.19865 79.476232 27.921925 79.592889 29.564459 C 79.746876 31.113667 78.309659 32.317569 76.634462 32.443559 C 75.313902 32.560216 71.748857 32.48089 68.468456 30.157078 Z M 95.948232 38.00111 L 95.948232 9.396757 L 90.232028 9.396757 L 90.232028 38.00111 Z M 120.586239 16.036887 L 121.272184 10.157362 C 119.550323 9.396757 117.627812 9.046785 115.625974 9.046785 C 96.270206 9.046785 96.232876 38.080437 115.625974 38.080437 C 117.627812 38.080437 120.147608 37.599809 121.916132 36.876534 L 121.155526 30.959679 C 120.068281 31.514968 118.10844 32.238242 115.625974 32.238242 C 104.305556 32.238242 104.305556 14.795654 115.625974 14.795654 C 118.10844 14.795654 119.512993 15.481598 120.586239 16.036887 Z M 120.586239 16.036887" stroke="#004AAD" stroke-width="1.5"/><g fill="#004AAD"><g><g><path d="M 10.75 -12.984375 L 17.40625 -12.984375 L 17.40625 -10.609375 L 10.75 -10.609375 L 10.75 -3.71875 L 8.34375 -3.71875 L 8.34375 -10.609375 L 1.671875 -10.609375 L 1.671875 -12.984375 L 8.34375 -12.984375 L 8.34375 -19.921875 L 10.75 -19.921875 Z M 10.75 -12.984375" transform="translate(108.82 175.78)"/></g></g></g><g fill="#004AAD"><g><g><path d="M 7.46875 0 L 7.46875 -9.140625 L 12.089844 -9.140625 C 21.363281 -9.140625 21.398438 -23.90625 12.089844 -23.90625 L 2.679688 -23.90625 L 2.679688 0 Z M 7.46875 -13.796875 L 7.46875 -19.152344 L 11.6875 -19.152344 C 14.902344 -19.152344 14.902344 -13.796875 11.6875 -13.796875 Z M 7.46875 -13.796875" transform="translate(132.417 175.78)"/></g></g></g><g fill="#004AAD"><g><g><path d="M 14.597656 0 L 20.023438 0 L 14.464844 -9.878906 C 21.496094 -11.921875 20.660156 -23.941406 12.121094 -23.941406 L 2.679688 -23.941406 L 2.679688 0 L 7.46875 0 L 7.46875 -9.140625 L 9.777344 -9.140625 Z M 7.46875 -13.796875 L 7.46875 -19.152344 L 11.6875 -19.152344 C 14.933594 -19.152344 14.933594 -13.796875 11.6875 -13.796875 Z M 7.46875 -13.796875" transform="translate(152.608 175.78)"/></g></g></g><g fill="#004AAD"><g><g><path d="M 14.199219 0.335938 C 30.671875 0.335938 30.671875 -24.34375 14.199219 -24.34375 C -2.277344 -24.34375 -2.277344 0.335938 14.199219 0.335938 Z M 14.199219 -4.621094 C 4.621094 -4.621094 4.621094 -19.421875 14.199219 -19.421875 C 23.773438 -19.421875 23.773438 -4.621094 14.199219 -4.621094 Z M 14.199219 -4.621094" transform="translate(173.135 175.78)"/></g></g></g><g fill="#004AAD"><g><g><path d="M 9.8125 -23.941406 L 2.679688 -23.941406 L 2.679688 0 L 9.8125 0 C 25.75 0 25.75 -23.941406 9.8125 -23.941406 Z M 9.8125 -19.152344 C 19.121094 -19.152344 19.121094 -4.789062 9.8125 -4.789062 L 7.46875 -4.789062 L 7.46875 -19.152344 Z M 9.8125 -19.152344" transform="translate(201.496 175.78)"/></g></g></g><g fill="#004AAD"><g><g><path d="M 19.855469 -8.335938 L 19.855469 -23.941406 L 15.101562 -23.941406 L 15.101562 -8.371094 C 15.101562 -3.347656 7.332031 -3.347656 7.332031 -8.371094 L 7.332031 -23.941406 L 2.542969 -23.941406 L 2.542969 -8.335938 C 2.542969 3.046875 19.855469 3.046875 19.855469 -8.335938 Z M 19.855469 -8.335938" transform="translate(225.07 175.78)"/></g></g></g><g fill="#004AAD"><g><g><path d="M 17.914062 -18.382812 L 18.484375 -23.304688 C 17.042969 -23.941406 15.4375 -24.242188 13.761719 -24.242188 C -2.445312 -24.242188 -2.476562 0.0664062 13.761719 0.0664062 C 15.4375 0.0664062 17.546875 -0.335938 19.019531 -0.9375 L 18.382812 -5.894531 C 17.480469 -5.425781 15.839844 -4.820312 13.761719 -4.820312 C 4.285156 -4.820312 4.285156 -19.421875 13.761719 -19.421875 C 15.839844 -19.421875 17.011719 -18.851562 17.914062 -18.382812 Z M 17.914062 -18.382812" transform="translate(247.538 175.78)"/></g></g></g><g fill="#004AAD"><g><g><path d="M 11.417969 0 L 11.417969 -19.152344 L 17.378906 -19.152344 L 17.378906 -23.90625 L 0.667969 -23.90625 L 0.667969 -19.152344 L 6.628906 -19.152344 L 6.628906 0 Z M 11.417969 0" transform="translate(267.696 175.78)"/></g></g></g><g fill="#004AAD"><g><g><path d="M 7.46875 0 L 7.46875 -23.941406 L 2.679688 -23.941406 L 2.679688 0 Z M 7.46875 0" transform="translate(286.012 175.78)"/></g></g></g><g fill="#004AAD"><g><g><path d="M 10.113281 0.503906 L 11.183594 0.503906 L 21.09375 -23.941406 L 15.570312 -23.941406 L 12.355469 -15.804688 L 10.648438 -11.015625 L 8.90625 -15.972656 L 5.726562 -23.941406 L 0.199219 -23.941406 Z M 10.113281 0.503906" transform="translate(296.191 175.78)"/></g></g></g><g fill="#004AAD"><g><g><path d="M 7.46875 0 L 7.46875 -23.941406 L 2.679688 -23.941406 L 2.679688 0 Z M 7.46875 0" transform="translate(317.521 175.78)"/></g></g></g><g fill="#004AAD"><g><g><path d="M 11.417969 0 L 11.417969 -19.152344 L 17.378906 -19.152344 L 17.378906 -23.90625 L 0.667969 -23.90625 L 0.667969 -19.152344 L 6.628906 -19.152344 L 6.628906 0 Z M 11.417969 0" transform="translate(327.7 175.78)"/></g></g></g><g fill="#004AAD"><g><g><path d="M 8.539062 0 L 13.292969 0 L 13.292969 -10.78125 L 21.664062 -23.941406 L 15.804688 -23.941406 L 10.917969 -15.703125 L 6.027344 -23.941406 L 0.199219 -23.941406 L 8.539062 -10.78125 Z M 8.539062 0" transform="translate(346.017 175.78)"/></g></g></g></svg>