<svg xmlns="http://www.w3.org/2000/svg" width="375" viewBox="0 0 375 375" height="375" version="1.0"><defs><clipPath id="a"><path d="M 0 129.417969 L 83.960938 129.417969 L 83.960938 213.382812 L 0 213.382812 Z M 0 129.417969"/></clipPath><clipPath id="b"><path d="M 11 131.117188 L 73 131.117188 L 73 185.925781 L 11 185.925781 Z M 11 131.117188"/></clipPath><clipPath id="c"><path d="M 7.140625 167 L 11 167 L 11 180 L 7.140625 180 Z M 7.140625 167"/></clipPath><clipPath id="d"><path d="M 73 167 L 77.109375 167 L 77.109375 180 L 73 180 Z M 73 167"/></clipPath></defs><path fill="#FFF" d="M 0.00390625 117.53125 L 374.996094 117.53125 L 374.996094 218.78125 L 0.00390625 218.78125 Z M 0.00390625 117.53125"/><g clip-path="url(#a)"><path fill="#FFF" d="M 83.941406 171.382812 C 83.941406 194.570312 65.148438 213.363281 41.964844 213.363281 C 18.78125 213.363281 -0.0117188 194.570312 -0.0117188 171.382812 C -0.0117188 148.199219 18.78125 129.40625 41.964844 129.40625 C 65.148438 129.40625 83.941406 148.199219 83.941406 171.382812"/></g><path fill="#FFF" d="M 33.25 195.804688 C 28.84375 195.804688 25.175781 192.621094 24.519531 188.328125 C 24.449219 188.332031 24.378906 188.332031 24.308594 188.332031 C 18.800781 188.332031 14.324219 183.851562 14.324219 178.347656 C 14.324219 176.300781 14.933594 174.347656 16.085938 172.679688 C 14.230469 170.820312 13.175781 168.273438 13.175781 165.636719 C 13.175781 160.53125 17.046875 156.253906 22.074219 155.710938 C 22.714844 150.773438 27.007812 146.964844 32.035156 146.964844 C 37.578125 146.964844 42.085938 151.472656 42.085938 157.015625 L 42.085938 186.96875 C 42.085938 191.839844 38.121094 195.804688 33.25 195.804688"/><path d="M 32.035156 146.4375 C 29.371094 146.4375 26.820312 147.433594 24.863281 149.242188 C 23.132812 150.839844 21.996094 152.941406 21.609375 155.234375 C 16.515625 155.988281 12.644531 160.398438 12.644531 165.636719 C 12.644531 168.269531 13.640625 170.8125 15.410156 172.742188 C 14.351562 174.414062 13.792969 176.335938 13.792969 178.347656 C 13.792969 184.066406 18.386719 188.734375 24.078125 188.859375 C 24.949219 193.183594 28.734375 196.335938 33.25 196.335938 C 38.414062 196.335938 42.613281 192.132812 42.613281 186.96875 L 42.613281 157.011719 C 42.613281 151.179688 37.871094 146.4375 32.035156 146.4375 Z M 32.035156 147.496094 C 37.292969 147.496094 41.554688 151.753906 41.554688 157.015625 L 41.554688 186.96875 C 41.554688 191.554688 37.835938 195.273438 33.25 195.273438 C 28.9375 195.273438 25.390625 191.984375 24.984375 187.773438 C 24.761719 187.789062 24.535156 187.800781 24.308594 187.800781 C 19.089844 187.800781 14.855469 183.570312 14.855469 178.347656 C 14.855469 176.191406 15.574219 174.207031 16.785156 172.617188 C 14.890625 170.890625 13.703125 168.402344 13.703125 165.636719 C 13.703125 160.617188 17.617188 156.515625 22.554688 156.203125 C 22.964844 151.324219 27.050781 147.496094 32.035156 147.496094"/><path stroke-linecap="round" transform="matrix(.03141 0 0 -.03141 -24.815 238.164)" fill="none" stroke-linejoin="round" d="M 1813.223005 1842.012035 C 1813.223005 1998.952683 1940.441929 2126.047249 2097.258218 2126.047249" stroke="#040505" stroke-width="33.737" stroke-miterlimit="10"/><path stroke-linecap="round" transform="matrix(.03141 0 0 -.03141 -24.815 238.164)" fill="none" stroke-linejoin="round" d="M 1699.559176 2236.850828 C 1800.040985 2236.850828 1881.620276 2155.271538 1881.620276 2054.789728" stroke="#040505" stroke-width="33.737" stroke-miterlimit="10"/><path stroke-linecap="round" transform="matrix(.03141 0 0 -.03141 -24.815 238.164)" fill="none" stroke-linejoin="round" d="M 1819.814015 2195.812466 C 1750.546233 2336.462127 1808.621734 2506.833512 1949.271395 2575.976935" stroke="#040505" stroke-width="33.737" stroke-miterlimit="10"/><path stroke-linecap="round" transform="matrix(.03141 0 0 -.03141 -24.815 238.164)" fill="none" stroke-linejoin="round" d="M 1790.21665 1512.958981 C 1633.400361 1512.958981 1506.181436 1640.053547 1506.181436 1796.994195" stroke="#040505" stroke-width="33.737" stroke-miterlimit="10"/><path stroke-linecap="round" transform="matrix(.03141 0 0 -.03141 -24.815 238.164)" fill="none" stroke-linejoin="round" d="M 1423.109841 1875.34016 C 1312.181903 1986.268098 1312.181903 2166.090742 1423.109841 2277.01868" stroke="#040505" stroke-width="33.737" stroke-miterlimit="10"/><path stroke-linecap="round" transform="matrix(.03141 0 0 -.03141 -24.815 238.164)" fill="none" stroke-linejoin="round" d="M 1953.748308 1399.792587 C 1861.225453 1399.792587 1786.112814 1474.780868 1786.112814 1567.428081 C 1786.112814 1659.950935 1861.225453 1735.063575 1953.748308 1735.063575" stroke="#040505" stroke-width="33.737" stroke-miterlimit="10"/><path stroke-linecap="round" transform="matrix(.03141 0 0 -.03141 -24.815 238.164)" fill="#FFF" stroke-linejoin="round" d="M 1800.040985 2426.373449 C 1738.110365 2426.373449 1687.86946 2476.614354 1687.86946 2538.544974 C 1687.86946 2600.351235 1738.110365 2650.59214 1800.040985 2650.59214" stroke="#040505" stroke-width="33.737" stroke-miterlimit="10"/><path fill="#FFF" d="M 50.683594 195.804688 C 45.808594 195.804688 41.847656 191.839844 41.847656 186.96875 L 41.847656 157.015625 C 41.847656 151.472656 46.351562 146.964844 51.894531 146.964844 C 56.921875 146.964844 61.214844 150.773438 61.859375 155.710938 C 66.882812 156.253906 70.757812 160.53125 70.757812 165.636719 C 70.757812 168.273438 69.703125 170.820312 67.84375 172.679688 C 68.996094 174.351562 69.605469 176.300781 69.605469 178.347656 C 69.605469 183.851562 65.128906 188.332031 59.625 188.332031 C 59.550781 188.332031 59.484375 188.332031 59.410156 188.328125 C 58.753906 192.621094 55.085938 195.804688 50.683594 195.804688"/><path d="M 51.894531 146.4375 C 46.0625 146.4375 41.316406 151.179688 41.316406 157.015625 L 41.316406 186.96875 C 41.316406 192.132812 45.519531 196.335938 50.683594 196.335938 C 55.195312 196.335938 58.980469 193.179688 59.855469 188.859375 C 65.546875 188.734375 70.136719 184.066406 70.136719 178.347656 C 70.136719 176.335938 69.582031 174.414062 68.519531 172.742188 C 70.289062 170.8125 71.289062 168.269531 71.289062 165.636719 C 71.289062 160.398438 67.414062 155.988281 62.324219 155.234375 C 61.933594 152.941406 60.800781 150.839844 59.070312 149.242188 C 57.113281 147.433594 54.5625 146.4375 51.894531 146.4375 Z M 51.894531 147.496094 C 56.875 147.496094 60.964844 151.324219 61.378906 156.203125 C 66.316406 156.515625 70.226562 160.617188 70.226562 165.636719 C 70.226562 168.402344 69.039062 170.890625 67.144531 172.617188 C 68.355469 174.207031 69.078125 176.191406 69.078125 178.347656 C 69.078125 183.570312 64.84375 187.800781 59.625 187.800781 C 59.394531 187.800781 59.167969 187.789062 58.945312 187.773438 C 58.539062 191.984375 54.996094 195.273438 50.683594 195.273438 C 46.097656 195.273438 42.375 191.554688 42.375 186.96875 L 42.375 157.015625 C 42.375 151.753906 46.640625 147.496094 51.894531 147.496094"/><path stroke-linecap="round" transform="matrix(.03141 0 0 -.03141 -24.815 238.164)" fill="none" stroke-linejoin="round" d="M 2582.381409 2063.121759 C 2434.394586 2114.854968 2272.355233 2036.882079 2220.497665 1888.895256" stroke="#040505" stroke-width="33.737" stroke-miterlimit="10"/><path stroke-linecap="round" transform="matrix(.03141 0 0 -.03141 -24.815 238.164)" fill="none" stroke-linejoin="round" d="M 2552.410969 2236.850828 C 2451.929159 2236.850828 2370.349869 2155.271538 2370.349869 2054.789728" stroke="#040505" stroke-width="33.737" stroke-miterlimit="10"/><path stroke-linecap="round" transform="matrix(.03141 0 0 -.03141 -24.815 238.164)" fill="none" stroke-linejoin="round" d="M 2432.15613 2195.812466 C 2501.423912 2336.462127 2443.47277 2506.833512 2302.698749 2575.976935" stroke="#040505" stroke-width="33.737" stroke-miterlimit="10"/><path stroke-linecap="round" transform="matrix(.03141 0 0 -.03141 -24.815 238.164)" fill="none" stroke-linejoin="round" d="M 2461.753495 1512.958981 C 2618.569784 1512.958981 2745.66435 1640.053547 2745.66435 1796.994195" stroke="#040505" stroke-width="33.737" stroke-miterlimit="10"/><path stroke-linecap="round" transform="matrix(.03141 0 0 -.03141 -24.815 238.164)" fill="none" stroke-linejoin="round" d="M 2828.860303 1875.34016 C 2939.788241 1986.268098 2939.788241 2166.090742 2828.860303 2277.01868" stroke="#040505" stroke-width="33.737" stroke-miterlimit="10"/><path stroke-linecap="round" transform="matrix(.03141 0 0 -.03141 -24.815 238.164)" fill="none" stroke-linejoin="round" d="M 2298.221837 1399.792587 C 2390.86905 1399.792587 2465.857331 1474.780868 2465.857331 1567.428081 C 2465.857331 1659.950935 2390.86905 1735.063575 2298.221837 1735.063575" stroke="#040505" stroke-width="33.737" stroke-miterlimit="10"/><path stroke-linecap="round" transform="matrix(.03141 0 0 -.03141 -24.815 238.164)" fill="#FFF" stroke-linejoin="round" d="M 2452.053518 2426.373449 C 2513.85978 2426.373449 2564.100684 2476.614354 2564.100684 2538.544974 C 2564.100684 2600.351235 2513.85978 2650.59214 2452.053518 2650.59214" stroke="#040505" stroke-width="33.737" stroke-miterlimit="10"/><g clip-path="url(#b)"><path fill="#004AAD" d="M 72.277344 166.140625 C 72.480469 163.273438 73.019531 148.835938 64.207031 139.339844 C 59.003906 133.738281 51.609375 130.984375 42.21875 131.167969 C 32.835938 130.992188 25.4375 133.738281 20.234375 139.339844 C 11.644531 148.59375 11.9375 162.542969 12.144531 165.902344 C 12.019531 166.363281 11.953125 166.851562 11.953125 167.355469 L 11.953125 180.230469 C 11.953125 183.351562 14.496094 185.882812 17.636719 185.882812 L 21.582031 185.882812 C 24.722656 185.882812 27.265625 183.351562 27.265625 180.230469 L 27.265625 167.355469 C 27.265625 164.234375 24.722656 161.703125 21.582031 161.703125 L 17.636719 161.703125 C 17.207031 161.703125 16.792969 161.753906 16.390625 161.84375 C 16.605469 156.710938 17.859375 148.136719 23.378906 142.199219 C 27.726562 137.527344 34.0625 135.238281 42.175781 135.40625 L 42.261719 135.40625 C 50.378906 135.246094 56.710938 137.527344 61.058594 142.199219 C 66.589844 148.144531 67.839844 156.726562 68.050781 161.859375 C 67.625 161.757812 67.183594 161.703125 66.730469 161.703125 L 62.78125 161.703125 C 59.644531 161.703125 57.101562 164.234375 57.101562 167.355469 L 57.101562 180.230469 C 57.101562 183.351562 59.644531 185.882812 62.78125 185.882812 L 66.730469 185.882812 C 69.867188 185.882812 72.410156 183.351562 72.410156 180.230469 L 72.410156 167.355469 C 72.410156 166.9375 72.363281 166.53125 72.277344 166.140625 Z M 72.277344 166.140625"/></g><g clip-path="url(#c)"><path fill="#004AAD" d="M 10.574219 167.671875 L 7.140625 169.671875 L 7.140625 177.324219 L 10.574219 179.5625"/></g><g clip-path="url(#d)"><path fill="#004AAD" d="M 73.675781 167.671875 L 77.109375 169.671875 L 77.109375 177.324219 L 73.675781 179.5625"/></g><path transform="matrix(1.25434 0 0 1.25434 77.014 131.004)" fill="none" d="M 23.650544 26.121687 L 9.365719 10.217479 L 7.042527 10.217479 L 7.042527 46.999268 L 14.388919 46.999268 L 14.388919 26.791239 L 23.650544 36.510651 L 32.927739 26.791239 L 32.877911 46.999268 L 40.224304 46.999268 L 40.224304 10.217479 L 37.935369 10.217479 Z M 74.362139 34.383653 L 74.362139 10.77492 L 67.165228 10.77492 L 67.165228 34.333826 C 67.165228 41.929355 55.41536 41.929355 55.41536 34.333826 L 55.41536 10.77492 L 48.165508 10.77492 L 48.165508 34.383653 C 48.165508 51.61451 74.362139 51.61451 74.362139 34.383653 Z M 80.696418 44.676077 C 85.607507 47.198577 90.110637 47.457056 92.13798 47.310688 C 98.926931 46.949441 103.084385 42.337314 103.084385 36.314456 C 103.084385 30.537619 98.223123 27.298854 92.595767 25.21857 C 90.518597 24.502304 88.749733 23.599187 88.537968 21.571844 C 88.3916 19.541387 89.553196 17.663526 92.13798 17.514044 C 93.249749 17.464217 95.538684 17.41439 99.5342 19.036887 L 100.449774 12.048627 C 95.78782 10.42613 93.299576 10.42613 91.434171 10.525785 C 85.395742 10.821633 81.191575 15.486702 81.191575 21.571844 C 81.191575 27.64453 86.261489 30.537619 91.938671 32.614789 C 93.969128 33.321712 95.538684 34.237286 95.688166 36.314456 C 95.88436 38.279515 94.068783 39.802358 91.938671 39.961182 C 90.269461 40.110663 85.756989 40.011009 81.599535 37.068092 Z M 116.400695 46.999268 L 116.400695 10.77492 L 109.163299 10.77492 L 109.163299 46.999268 Z M 116.400695 46.999268" stroke="#004AAD" stroke-width="1.9"/><g fill="#004AAD"><g><g><path d="M 19.761719 0.980469 L 21.855469 0.980469 L 41.226562 -46.789062 L 30.429688 -46.789062 L 24.148438 -30.886719 L 20.808594 -21.53125 L 17.40625 -31.214844 L 11.191406 -46.789062 L 0.394531 -46.789062 Z M 19.761719 0.980469" transform="translate(228.864 190.407)"/></g></g></g><g fill="#004AAD"><g><g><path d="M 14.59375 0 L 14.59375 -46.789062 L 5.234375 -46.789062 L 5.234375 0 Z M 14.59375 0" transform="translate(270.547 190.407)"/></g></g></g><g fill="#004AAD"><g><g><path d="M 22.316406 0 L 22.316406 -37.433594 L 33.964844 -37.433594 L 33.964844 -46.722656 L 1.308594 -46.722656 L 1.308594 -37.433594 L 12.957031 -37.433594 L 12.957031 0 Z M 22.316406 0" transform="translate(290.44 190.407)"/></g></g></g><g fill="#004AAD"><g><g><path d="M 16.6875 0 L 25.980469 0 L 25.980469 -21.070312 L 42.339844 -46.789062 L 30.886719 -46.789062 L 21.332031 -30.691406 L 11.777344 -46.789062 L 0.394531 -46.789062 L 16.6875 -21.070312 Z M 16.6875 0" transform="translate(326.232 190.407)"/></g></g></g></svg>