<svg xmlns="http://www.w3.org/2000/svg" width="375" viewBox="0 0 375 375" height="375" version="1.0"><defs><clipPath id="a"><path d="M 0 140.300781 L 83 140.300781 L 83 227.507812 L 0 227.507812 Z M 0 140.300781"/></clipPath><clipPath id="b"><path d="M 8 142.058594 L 71 142.058594 L 71 198.523438 L 8 198.523438 Z M 8 142.058594"/></clipPath><clipPath id="c"><path d="M 3.1875 180 L 7 180 L 7 193 L 3.1875 193 Z M 3.1875 180"/></clipPath><clipPath id="d"><path d="M 72 180 L 75.652344 180 L 75.652344 193 L 72 193 Z M 72 180"/></clipPath></defs><g clip-path="url(#a)"><path fill="#FFF" d="M 82.984375 183.890625 C 82.984375 207.96875 63.460938 227.488281 39.382812 227.488281 C 15.300781 227.488281 -4.21875 207.96875 -4.21875 183.890625 C -4.21875 159.808594 15.300781 140.289062 39.382812 140.289062 C 63.460938 140.289062 82.984375 159.808594 82.984375 183.890625"/></g><path fill="#FFF" d="M 30.332031 209.253906 C 25.753906 209.253906 21.945312 205.949219 21.261719 201.488281 C 21.191406 201.492188 21.113281 201.492188 21.042969 201.492188 C 15.324219 201.492188 10.671875 196.839844 10.671875 191.121094 C 10.671875 188.996094 11.304688 186.96875 12.503906 185.238281 C 10.574219 183.300781 9.476562 180.660156 9.476562 177.917969 C 9.476562 172.617188 13.5 168.175781 18.71875 167.609375 C 19.390625 162.480469 23.847656 158.527344 29.070312 158.527344 C 34.824219 158.527344 39.507812 163.207031 39.507812 168.964844 L 39.507812 200.078125 C 39.507812 205.136719 35.390625 209.253906 30.332031 209.253906"/><path d="M 29.070312 157.980469 C 26.300781 157.980469 23.648438 159.011719 21.617188 160.890625 C 19.820312 162.550781 18.640625 164.734375 18.238281 167.117188 C 12.949219 167.898438 8.925781 172.476562 8.925781 177.917969 C 8.925781 180.65625 9.964844 183.296875 11.800781 185.300781 C 10.703125 187.039062 10.121094 189.03125 10.121094 191.121094 C 10.121094 197.0625 14.890625 201.910156 20.800781 202.039062 C 21.707031 206.53125 25.640625 209.804688 30.332031 209.804688 C 35.691406 209.804688 40.054688 205.4375 40.054688 200.078125 L 40.054688 168.964844 C 40.054688 162.90625 35.128906 157.980469 29.070312 157.980469 Z M 29.070312 159.078125 C 34.527344 159.078125 38.953125 163.503906 38.953125 168.964844 L 38.953125 200.078125 C 38.953125 204.839844 35.09375 208.703125 30.332031 208.703125 C 25.847656 208.703125 22.164062 205.285156 21.746094 200.914062 C 21.511719 200.929688 21.277344 200.941406 21.042969 200.941406 C 15.621094 200.941406 11.222656 196.546875 11.222656 191.121094 C 11.222656 188.882812 11.96875 186.824219 13.230469 185.171875 C 11.261719 183.378906 10.027344 180.792969 10.027344 177.917969 C 10.027344 172.707031 14.089844 168.445312 19.21875 168.121094 C 19.648438 163.054688 23.890625 159.078125 29.070312 159.078125"/><path stroke-linecap="round" transform="matrix(.03263 0 0 -.03263 -29.98 253.251)" fill="none" stroke-linejoin="round" d="M 1813.165859 1841.9714 C 1813.165859 1998.938308 1940.439561 2125.972548 2097.167008 2125.972548" stroke="#040505" stroke-width="33.737" stroke-miterlimit="10"/><path stroke-linecap="round" transform="matrix(.03263 0 0 -.03263 -29.98 253.251)" fill="none" stroke-linejoin="round" d="M 1699.541454 2236.843149 C 1800.115216 2236.843149 1881.651803 2155.306563 1881.651803 2054.852531" stroke="#040505" stroke-width="33.737" stroke-miterlimit="10"/><path stroke-linecap="round" transform="matrix(.03263 0 0 -.03263 -29.98 253.251)" fill="none" stroke-linejoin="round" d="M 1819.751046 2195.775529 C 1750.546719 2336.459066 1808.616094 2506.835809 1949.299631 2576.040136" stroke="#040505" stroke-width="33.737" stroke-miterlimit="10"/><path stroke-linecap="round" transform="matrix(.03263 0 0 -.03263 -29.98 253.251)" fill="none" stroke-linejoin="round" d="M 1790.177571 1512.951519 C 1633.450124 1512.951519 1506.176422 1640.10549 1506.176422 1796.952668" stroke="#040505" stroke-width="33.737" stroke-miterlimit="10"/><path stroke-linecap="round" transform="matrix(.03263 0 0 -.03263 -29.98 253.251)" fill="none" stroke-linejoin="round" d="M 1423.083337 1875.376257 C 1312.212737 1986.246857 1312.212737 2166.082323 1423.083337 2276.952923" stroke="#040505" stroke-width="33.737" stroke-miterlimit="10"/><path stroke-linecap="round" transform="matrix(.03263 0 0 -.03263 -29.98 253.251)" fill="none" stroke-linejoin="round" d="M 1953.849396 1399.806036 C 1861.177858 1399.806036 1786.106728 1474.757435 1786.106728 1567.428974 C 1786.106728 1659.980782 1861.177858 1735.051912 1953.849396 1735.051912" stroke="#040505" stroke-width="33.737" stroke-miterlimit="10"/><path stroke-linecap="round" transform="matrix(.03263 0 0 -.03263 -29.98 253.251)" fill="#FFF" stroke-linejoin="round" d="M 1799.995486 2426.376799 C 1738.094729 2426.376799 1687.927579 2476.54395 1687.927579 2538.444706 C 1687.927579 2600.345462 1738.094729 2650.632343 1799.995486 2650.632343" stroke="#040505" stroke-width="33.737" stroke-miterlimit="10"/><path fill="#FFF" d="M 48.4375 209.253906 C 43.375 209.253906 39.261719 205.136719 39.261719 200.078125 L 39.261719 168.964844 C 39.261719 163.207031 43.941406 158.527344 49.695312 158.527344 C 54.917969 158.527344 59.375 162.480469 60.042969 167.609375 C 65.265625 168.175781 69.285156 172.617188 69.285156 177.917969 C 69.285156 180.660156 68.191406 183.300781 66.261719 185.238281 C 67.460938 186.972656 68.09375 188.996094 68.09375 191.121094 C 68.09375 196.839844 63.441406 201.492188 57.722656 201.492188 C 57.648438 201.492188 57.578125 201.492188 57.503906 201.488281 C 56.820312 205.949219 53.007812 209.253906 48.4375 209.253906"/><path d="M 49.695312 157.980469 C 43.636719 157.980469 38.710938 162.90625 38.710938 168.964844 L 38.710938 200.078125 C 38.710938 205.4375 43.070312 209.804688 48.4375 209.804688 C 53.125 209.804688 57.054688 206.527344 57.960938 202.039062 C 63.875 201.910156 68.644531 197.0625 68.644531 191.121094 C 68.644531 189.035156 68.066406 187.039062 66.964844 185.300781 C 68.800781 183.296875 69.835938 180.65625 69.835938 177.917969 C 69.835938 172.476562 65.816406 167.898438 60.527344 167.117188 C 60.121094 164.734375 58.945312 162.550781 57.148438 160.890625 C 55.113281 159.011719 52.464844 157.980469 49.695312 157.980469 Z M 49.695312 159.078125 C 54.871094 159.078125 59.117188 163.054688 59.542969 168.121094 C 64.671875 168.445312 68.734375 172.707031 68.734375 177.917969 C 68.734375 180.792969 67.5 183.378906 65.535156 185.171875 C 66.792969 186.824219 67.539062 188.882812 67.539062 191.121094 C 67.539062 196.546875 63.144531 200.941406 57.722656 200.941406 C 57.484375 200.941406 57.25 200.929688 57.019531 200.914062 C 56.597656 205.285156 52.914062 208.703125 48.4375 208.703125 C 43.671875 208.703125 39.808594 204.839844 39.808594 200.078125 L 39.808594 168.964844 C 39.808594 163.503906 44.238281 159.078125 49.695312 159.078125"/><path stroke-linecap="round" transform="matrix(.03263 0 0 -.03263 -29.98 253.251)" fill="none" stroke-linejoin="round" d="M 2582.435413 2063.113947 C 2434.448305 2114.957327 2272.332978 2036.89293 2220.489598 1888.905822" stroke="#040505" stroke-width="33.737" stroke-miterlimit="10"/><path stroke-linecap="round" transform="matrix(.03263 0 0 -.03263 -29.98 253.251)" fill="none" stroke-linejoin="round" d="M 2552.383015 2236.843149 C 2451.928983 2236.843149 2370.392397 2155.306563 2370.392397 2054.852531" stroke="#040505" stroke-width="33.737" stroke-miterlimit="10"/><path stroke-linecap="round" transform="matrix(.03263 0 0 -.03263 -29.98 253.251)" fill="none" stroke-linejoin="round" d="M 2432.173422 2195.775529 C 2501.377749 2336.459066 2443.547836 2506.835809 2302.744568 2576.040136" stroke="#040505" stroke-width="33.737" stroke-miterlimit="10"/><path stroke-linecap="round" transform="matrix(.03263 0 0 -.03263 -29.98 253.251)" fill="none" stroke-linejoin="round" d="M 2461.746898 1512.951519 C 2618.594075 1512.951519 2745.748046 1640.10549 2745.748046 1796.952668" stroke="#040505" stroke-width="33.737" stroke-miterlimit="10"/><path stroke-linecap="round" transform="matrix(.03263 0 0 -.03263 -29.98 253.251)" fill="none" stroke-linejoin="round" d="M 2828.841131 1875.376257 C 2939.831462 1986.246857 2939.831462 2166.082323 2828.841131 2276.952923" stroke="#040505" stroke-width="33.737" stroke-miterlimit="10"/><path stroke-linecap="round" transform="matrix(.03263 0 0 -.03263 -29.98 253.251)" fill="none" stroke-linejoin="round" d="M 2298.194803 1399.806036 C 2390.866341 1399.806036 2465.937471 1474.757435 2465.937471 1567.428974 C 2465.937471 1659.980782 2390.866341 1735.051912 2298.194803 1735.051912" stroke="#040505" stroke-width="33.737" stroke-miterlimit="10"/><path stroke-linecap="round" transform="matrix(.03263 0 0 -.03263 -29.98 253.251)" fill="#FFF" stroke-linejoin="round" d="M 2452.048713 2426.376799 C 2513.94947 2426.376799 2564.11662 2476.54395 2564.11662 2538.444706 C 2564.11662 2600.345462 2513.94947 2650.632343 2452.048713 2650.632343" stroke="#040505" stroke-width="33.737" stroke-miterlimit="10"/><g clip-path="url(#b)"><path fill="#004AAD" d="M 70.648438 178.542969 C 70.859375 175.554688 71.417969 160.515625 62.289062 150.625 C 56.898438 144.789062 49.242188 141.917969 39.519531 142.109375 C 29.800781 141.925781 22.136719 144.789062 16.746094 150.625 C 7.851562 160.265625 8.15625 174.796875 8.371094 178.292969 C 8.242188 178.777344 8.171875 179.285156 8.171875 179.8125 L 8.171875 193.222656 C 8.171875 196.472656 10.808594 199.109375 14.058594 199.109375 L 18.144531 199.109375 C 21.394531 199.109375 24.03125 196.472656 24.03125 193.222656 L 24.03125 179.8125 C 24.03125 176.558594 21.394531 173.921875 18.144531 173.921875 L 14.058594 173.921875 C 13.613281 173.921875 13.183594 173.972656 12.765625 174.066406 C 12.988281 168.71875 14.289062 159.789062 20.007812 153.605469 C 24.507812 148.738281 31.070312 146.351562 39.472656 146.527344 L 39.5625 146.527344 C 47.96875 146.359375 54.527344 148.738281 59.03125 153.605469 C 64.753906 159.796875 66.050781 168.738281 66.269531 174.085938 C 65.832031 173.980469 65.371094 173.921875 64.902344 173.921875 L 60.8125 173.921875 C 57.5625 173.921875 54.929688 176.558594 54.929688 179.8125 L 54.929688 193.222656 C 54.929688 196.472656 57.5625 199.109375 60.8125 199.109375 L 64.902344 199.109375 C 68.152344 199.109375 70.785156 196.472656 70.785156 193.222656 L 70.785156 179.8125 C 70.785156 179.375 70.738281 178.953125 70.648438 178.542969 Z M 70.648438 178.542969"/></g><g clip-path="url(#c)"><path fill="#004AAD" d="M 6.742188 180.136719 L 3.1875 182.222656 L 3.1875 190.195312 L 6.742188 192.527344"/></g><g clip-path="url(#d)"><path fill="#004AAD" d="M 72.09375 180.136719 L 75.652344 182.222656 L 75.652344 190.195312 L 72.09375 192.527344"/></g><path transform="matrix(1.07183 0 0 1.07183 82.927 146.354)" fill="none" d="M 20.667121 26.121032 L 6.380753 10.216515 L 4.055574 10.216515 L 4.055574 47.000267 L 11.402849 47.000267 L 11.402849 26.791617 L 20.667121 36.511449 L 29.942326 26.791617 L 29.894948 47.000267 L 37.242223 47.000267 L 37.242223 10.216515 L 34.953488 10.216515 Z M 71.376437 34.383072 L 71.376437 10.77412 L 64.178586 10.77412 L 64.178586 34.335693 C 64.178586 41.930793 52.428777 41.930793 52.428777 34.335693 L 52.428777 10.77412 L 45.183548 10.77412 L 45.183548 34.383072 C 45.183548 51.61418 71.376437 51.61418 71.376437 34.383072 Z M 77.71419 44.675087 C 82.623307 47.197069 87.124241 47.455827 89.154218 47.310048 C 95.943887 46.949244 100.098596 42.338975 100.098596 36.314647 C 100.098596 30.538144 95.240502 27.2982 89.609778 25.220845 C 87.532423 24.502882 85.76485 23.599051 85.55347 21.572719 C 85.407691 19.542743 86.57028 17.66219 89.154218 17.512767 C 90.265784 17.465388 92.554519 17.414366 96.548871 19.03616 L 97.463635 12.046044 C 92.802344 10.427895 90.316807 10.427895 88.447188 10.526296 C 82.411927 10.821499 78.206195 15.486435 78.206195 21.572719 C 78.206195 27.644425 83.279313 30.538144 88.957416 32.615498 C 90.983747 33.322528 92.554519 34.237292 92.703943 36.314647 C 92.900745 38.279022 91.082148 39.802416 88.957416 39.962773 C 87.284599 40.112197 82.77273 40.013796 78.614377 37.069055 Z M 113.415531 47.000267 L 113.415531 10.77412 L 106.181235 10.77412 L 106.181235 47.000267 Z M 113.415531 47.000267" stroke="#004AAD" stroke-width="1.9"/><g fill="#004AAD"><g><g><path d="M 18.515625 0 L 18.515625 -31.058594 L 28.179688 -31.058594 L 28.179688 -38.769531 L 1.085938 -38.769531 L 1.085938 -31.058594 L 10.75 -31.058594 L 10.75 0 Z M 18.515625 0" transform="translate(208.9 196.73)"/></g></g></g><g fill="#004AAD"><g><g><path d="M 12.109375 0 L 12.109375 -38.824219 L 4.34375 -38.824219 L 4.34375 0 Z M 12.109375 0" transform="translate(238.599 196.73)"/></g></g></g><g fill="#004AAD"><g><g><path d="M 16.398438 0.816406 L 18.136719 0.816406 L 34.207031 -38.824219 L 25.25 -38.824219 L 20.035156 -25.628906 L 17.265625 -17.863281 L 14.445312 -25.902344 L 9.285156 -38.824219 L 0.324219 -38.824219 Z M 16.398438 0.816406" transform="translate(255.104 196.73)"/></g></g></g><g fill="#004AAD"><g><g><path d="M 12.109375 0 L 12.109375 -38.824219 L 4.34375 -38.824219 L 4.34375 0 Z M 12.109375 0" transform="translate(289.69 196.73)"/></g></g></g><g fill="#004AAD"><g><g><path d="M 18.515625 0 L 18.515625 -31.058594 L 28.179688 -31.058594 L 28.179688 -38.769531 L 1.085938 -38.769531 L 1.085938 -31.058594 L 10.75 -31.058594 L 10.75 0 Z M 18.515625 0" transform="translate(306.196 196.73)"/></g></g></g><g fill="#004AAD"><g><g><path d="M 13.847656 0 L 21.554688 0 L 21.554688 -17.484375 L 35.132812 -38.824219 L 25.628906 -38.824219 L 17.703125 -25.464844 L 9.773438 -38.824219 L 0.324219 -38.824219 L 13.847656 -17.484375 Z M 13.847656 0" transform="translate(335.895 196.73)"/></g></g></g></svg>