<svg xmlns="http://www.w3.org/2000/svg" width="375" viewBox="0 0 375 375" height="375" version="1.0"><path transform="matrix(1.61345 0 0 1.61345 -2.766 109.551)" fill="none" d="M 23.651594 26.122915 L 9.367348 10.216561 L 7.040711 10.216561 L 7.040711 46.999703 L 14.388624 46.999703 L 14.388624 26.791128 L 23.651594 36.511678 L 32.926669 26.791128 L 32.878248 46.999703 L 40.22374 46.999703 L 40.22374 10.216561 L 37.935839 10.216561 Z M 74.363087 34.383567 L 74.363087 10.773404 L 67.162859 10.773404 L 67.162859 34.335146 C 67.162859 41.930007 55.413461 41.930007 55.413461 34.335146 L 55.413461 10.773404 L 48.167233 10.773404 L 48.167233 34.383567 C 48.167233 51.614241 74.363087 51.614241 74.363087 34.383567 Z M 80.696576 44.675487 C 85.606483 47.19823 90.109652 47.457284 92.138499 47.309599 C 98.927147 46.951282 103.084105 42.336745 103.084105 36.313151 C 103.084105 30.538926 98.222619 27.297129 92.596079 25.219861 C 90.518811 24.503227 88.749017 23.600172 88.538385 21.571325 C 88.3907 19.542478 89.552808 17.663737 92.138499 17.513631 C 93.252186 17.46521 95.540086 17.414368 99.534833 19.036477 L 100.449993 12.046881 C 95.787034 10.427193 93.300607 10.427193 91.433971 10.526456 C 85.398272 10.824246 81.192893 15.484784 81.192893 21.571325 C 81.192893 27.64334 86.26259 30.538926 91.939972 32.616194 C 93.968819 33.320723 95.540086 34.235883 95.687771 36.313151 C 95.886297 38.281472 94.068082 39.801896 91.939972 39.961686 C 90.269442 40.111792 85.756588 40.012528 81.599631 37.068521 Z M 116.399927 46.999703 L 116.399927 10.773404 L 109.163383 10.773404 L 109.163383 46.999703 Z M 116.399927 46.999703" stroke="#004AAD" stroke-width="1.9"/><g fill="#004AAD"><g><g><path d="M 25.421875 1.261719 L 28.113281 1.261719 L 53.03125 -60.1875 L 39.140625 -60.1875 L 31.0625 -39.730469 L 26.769531 -27.695312 L 22.390625 -40.152344 L 14.394531 -60.1875 L 0.503906 -60.1875 Z M 25.421875 1.261719" transform="translate(192.558 185.96)"/></g></g></g><g fill="#004AAD"><g><g><path d="M 18.769531 0 L 18.769531 -60.1875 L 6.734375 -60.1875 L 6.734375 0 Z M 18.769531 0" transform="translate(246.174 185.96)"/></g></g></g><g fill="#004AAD"><g><g><path d="M 28.703125 0 L 28.703125 -48.148438 L 43.6875 -48.148438 L 43.6875 -60.101562 L 1.683594 -60.101562 L 1.683594 -48.148438 L 16.667969 -48.148438 L 16.667969 0 Z M 28.703125 0" transform="translate(271.762 185.96)"/></g></g></g><g fill="#004AAD"><g><g><path d="M 21.464844 0 L 33.417969 0 L 33.417969 -27.105469 L 54.460938 -60.1875 L 39.730469 -60.1875 L 27.441406 -39.476562 L 15.152344 -60.1875 L 0.503906 -60.1875 L 21.464844 -27.105469 Z M 21.464844 0" transform="translate(317.803 185.96)"/></g></g></g></svg>