<svg xmlns="http://www.w3.org/2000/svg" width="375" viewBox="0 0 375 375" height="375" version="1.0"><path transform="translate(15.122 123.856) scale(1.28207)" fill="none" d="M 20.666278 26.122851 L 6.382746 10.218407 L 4.058016 10.218407 L 4.058016 46.99972 L 11.40392 46.99972 L 11.40392 26.790107 L 20.666278 36.512536 L 29.943871 26.790107 L 29.895121 46.99972 L 37.241025 46.99972 L 37.241025 10.218407 L 34.952857 10.218407 Z M 71.377691 34.38585 L 71.377691 10.77293 L 64.178035 10.77293 L 64.178035 34.334054 C 64.178035 41.929797 52.429465 41.929797 52.429465 34.334054 L 52.429465 10.77293 L 45.18106 10.77293 L 45.18106 34.38585 C 45.18106 51.612618 71.377691 51.612618 71.377691 34.38585 Z M 77.712047 44.67499 C 82.623535 47.197764 87.1237 47.456744 89.152888 47.310496 C 95.944269 46.950971 100.100143 42.338072 100.100143 36.314493 C 100.100143 30.537706 95.237405 27.298927 89.609912 25.22099 C 87.531975 24.501939 85.764815 23.600077 85.554584 21.57089 C 85.405289 19.541702 86.569178 17.661809 89.152888 17.515561 C 90.268027 17.463765 92.556195 17.415016 96.550588 19.035928 L 97.464636 12.046504 C 92.802989 10.428638 90.316777 10.428638 88.449071 10.526137 C 82.413304 10.821679 78.20868 15.486373 78.20868 21.57089 C 78.20868 27.643219 83.278603 30.537706 88.954844 32.615643 C 90.984032 33.31946 92.556195 34.236556 92.702443 36.314493 C 92.900487 38.279697 91.081531 39.803111 88.954844 39.961546 C 87.285182 40.110841 82.772829 40.013342 78.616955 37.067059 Z M 113.414783 46.99972 L 113.414783 10.77293 L 106.178565 10.77293 L 106.178565 46.99972 Z M 113.414783 46.99972" stroke="#004AAD" stroke-width="1.9"/><g fill="#004AAD"><g><g><path d="M 22.148438 0 L 22.148438 -37.152344 L 33.707031 -37.152344 L 33.707031 -46.375 L 1.300781 -46.375 L 1.300781 -37.152344 L 12.859375 -37.152344 L 12.859375 0 Z M 22.148438 0" transform="translate(165.805 184.114)"/></g></g></g><g fill="#004AAD"><g><g><path d="M 14.484375 0 L 14.484375 -46.4375 L 5.195312 -46.4375 L 5.195312 0 Z M 14.484375 0" transform="translate(201.33 184.114)"/></g></g></g><g fill="#004AAD"><g><g><path d="M 19.613281 0.972656 L 21.691406 0.972656 L 40.917969 -46.4375 L 30.203125 -46.4375 L 23.964844 -30.65625 L 20.652344 -21.367188 L 17.277344 -30.980469 L 11.105469 -46.4375 L 0.390625 -46.4375 Z M 19.613281 0.972656" transform="translate(221.073 184.114)"/></g></g></g><g fill="#004AAD"><g><g><path d="M 14.484375 0 L 14.484375 -46.4375 L 5.195312 -46.4375 L 5.195312 0 Z M 14.484375 0" transform="translate(262.443 184.114)"/></g></g></g><g fill="#004AAD"><g><g><path d="M 22.148438 0 L 22.148438 -37.152344 L 33.707031 -37.152344 L 33.707031 -46.375 L 1.300781 -46.375 L 1.300781 -37.152344 L 12.859375 -37.152344 L 12.859375 0 Z M 22.148438 0" transform="translate(282.186 184.114)"/></g></g></g><g fill="#004AAD"><g><g><path d="M 16.5625 0 L 25.785156 0 L 25.785156 -20.914062 L 42.023438 -46.4375 L 30.65625 -46.4375 L 21.171875 -30.460938 L 11.691406 -46.4375 L 0.390625 -46.4375 L 16.5625 -20.914062 Z M 16.5625 0" transform="translate(317.711 184.114)"/></g></g></g></svg>