<svg id="Layer_1" data-name="Layer 1" xmlns="http://www.w3.org/2000/svg" viewBox="0 0 322.43 183.99"><defs><style>.cls-1{fill:#f5f0e1;}.cls-1,.cls-3{stroke:#1e3d59;}.cls-1,.cls-3,.cls-4{stroke-miterlimit:10;stroke-width:2px;}.cls-2{fill:#1e3d59;}.cls-3{fill:#fec13a;}.cls-4{fill:#c5dae2;stroke:#224f71;}.cls-5{fill:#224f71;}</style></defs><text x="-76.62" y="-71.27"/><path class="cls-1" d="M79.86,140.93H90l6.64,18.19c.82,2.41,1.53,5,2.36,7.55h.25c.82-2.51,1.51-5.14,2.33-7.55L108,140.93h10.09v40.93h-8.42v-15c0-4,.74-10,1.18-13.91h-.25l-3.36,9.69-5.79,15.68H96.29L90.5,162.62l-3.27-9.69H87c.43,4,1.18,9.92,1.18,13.91v15h-8.3Z" transform="translate(-76.62 -71.27)"/><path class="cls-1" d="M127.48,162.89v-22h9.26v22.91c0,8,2.52,10.79,7.1,10.79s7.26-2.77,7.26-10.79V140.93H160v22c0,13.75-5.59,19.73-16.18,19.73S127.48,176.64,127.48,162.89Z" transform="translate(-76.62 -71.27)"/><path class="cls-1" d="M166.2,176.7l5.32-6.35c2.91,2.53,6.68,4.28,10,4.28,3.86,0,5.75-1.53,5.75-3.95,0-2.58-2.32-3.41-5.9-4.88l-5.32-2.27c-4.24-1.72-8.26-5.21-8.26-11.15,0-6.79,6.06-12.2,14.58-12.2a18.93,18.93,0,0,1,13.17,5.36l-4.67,5.83a13.32,13.32,0,0,0-8.5-3.2c-3.19,0-5.22,1.32-5.22,3.67,0,2.51,2.68,3.42,6.25,4.84l5.22,2.11c5,2,8.12,5.35,8.12,11.14,0,6.8-5.67,12.69-15.43,12.69A22.57,22.57,0,0,1,166.2,176.7Z" transform="translate(-76.62 -71.27)"/><path class="cls-1" d="M203.76,140.93H213v40.93h-9.26Z" transform="translate(-76.62 -71.27)"/><path class="cls-2" d="M231.12,147.53H219.46v-8h32.9v8H240.7v34.33h-9.58Z" transform="translate(-76.62 -71.27)"/><path class="cls-2" d="M259,139.5h9.58v42.36H259Z" transform="translate(-76.62 -71.27)"/><path class="cls-2" d="M273.07,139.5h10.14l5.1,19.74c1.26,4.63,2.11,8.91,3.4,13.58H292c1.28-4.67,2.18-8.95,3.39-13.58l5-19.74h9.79l-12.77,42.36H285.87Z" transform="translate(-76.62 -71.27)"/><path class="cls-2" d="M314.16,139.5h9.58v42.36h-9.58Z" transform="translate(-76.62 -71.27)"/><path class="cls-2" d="M342,147.53H330.35v-8h32.9v8H351.59v34.33H342Z" transform="translate(-76.62 -71.27)"/><path class="cls-2" d="M376,166.75,363.2,139.5h10.25l3.78,9.73c1.13,3.17,2.24,6.11,3.45,9.39h.26c1.21-3.28,2.41-6.22,3.58-9.39l3.78-9.73h10l-12.77,27.25v15.11H376Z" transform="translate(-76.62 -71.27)"/><path class="cls-3" d="M77.62,212.57h10.1l6.64,18.19c.82,2.41,1.54,5,2.36,7.56H97c.82-2.52,1.51-5.15,2.33-7.56l6.44-18.19h10.09V253.5h-8.42v-15c0-4,.74-9.94,1.18-13.9h-.25L105,234.26l-5.79,15.68H94.06l-5.8-15.68L85,224.58h-.25c.44,4,1.18,9.91,1.18,13.9v15h-8.3Z" transform="translate(-76.62 -71.27)"/><path class="cls-3" d="M125.24,234.54v-22h9.26v22.91c0,8,2.52,10.79,7.1,10.79s7.26-2.77,7.26-10.79V212.57h8.92v22c0,13.74-5.59,19.72-16.18,19.72S125.24,248.28,125.24,234.54Z" transform="translate(-76.62 -71.27)"/><path class="cls-3" d="M164,248.34l5.32-6.35c2.91,2.53,6.68,4.28,10.05,4.28,3.86,0,5.75-1.52,5.75-4s-2.32-3.41-5.9-4.88l-5.32-2.26c-4.24-1.73-8.26-5.21-8.26-11.16,0-6.79,6.06-12.2,14.58-12.2a19,19,0,0,1,13.17,5.36L188.68,223a13.37,13.37,0,0,0-8.5-3.2c-3.19,0-5.22,1.33-5.22,3.67,0,2.51,2.68,3.42,6.25,4.84l5.22,2.12c5,2,8.12,5.35,8.12,11.13,0,6.8-5.67,12.69-15.43,12.69A22.57,22.57,0,0,1,164,248.34Z" transform="translate(-76.62 -71.27)"/><path class="cls-3" d="M201.52,212.57h9.26V253.5h-9.26Z" transform="translate(-76.62 -71.27)"/><path class="cls-2" d="M228.88,219.17H217.22v-8h32.9v8H238.46V253.5h-9.58Z" transform="translate(-76.62 -71.27)"/><path class="cls-2" d="M256.73,211.14h9.58V253.5h-9.58Z" transform="translate(-76.62 -71.27)"/><path class="cls-2" d="M270.83,211.14H281l5.1,19.74c1.27,4.64,2.11,8.91,3.4,13.59h.26c1.28-4.68,2.19-8.95,3.39-13.59l5-19.74h9.8L295.14,253.5H283.63Z" transform="translate(-76.62 -71.27)"/><path class="cls-2" d="M311.92,211.14h9.58V253.5h-9.58Z" transform="translate(-76.62 -71.27)"/><path class="cls-2" d="M339.77,219.17H328.11v-8H361v8H349.35V253.5h-9.58Z" transform="translate(-76.62 -71.27)"/><path class="cls-2" d="M373.73,238.4,361,211.14h10.25l3.78,9.73c1.13,3.18,2.24,6.11,3.45,9.39h.26c1.21-3.28,2.42-6.21,3.58-9.39l3.78-9.73h10L383.3,238.4v15.1h-9.57Z" transform="translate(-76.62 -71.27)"/><path class="cls-4" d="M80.61,73H90.7l6.65,18.19c.82,2.41,1.53,5,2.35,7.55H100c.82-2.51,1.52-5.14,2.34-7.55L108.72,73h10.1V114h-8.43v-15c0-4,.75-10,1.19-13.91h-.26L108,94.71l-5.79,15.68H97l-5.8-15.68L88,85h-.25c.43,4,1.18,9.92,1.18,13.91v15h-8.3Z" transform="translate(-76.62 -71.27)"/><path class="cls-4" d="M128.23,95V73h9.26V95.93c0,8,2.52,10.79,7.1,10.79s7.25-2.77,7.25-10.79V73h8.93V95c0,13.75-5.59,19.73-16.18,19.73S128.23,108.73,128.23,95Z" transform="translate(-76.62 -71.27)"/><path class="cls-4" d="M167,108.79l5.31-6.35c2.91,2.53,6.69,4.28,10.06,4.28,3.86,0,5.75-1.53,5.75-4,0-2.58-2.33-3.41-5.9-4.88l-5.32-2.27c-4.24-1.72-8.26-5.21-8.26-11.15,0-6.79,6.06-12.2,14.58-12.2a18.93,18.93,0,0,1,13.17,5.36l-4.68,5.83a13.29,13.29,0,0,0-8.49-3.2c-3.19,0-5.22,1.32-5.22,3.67,0,2.51,2.67,3.42,6.25,4.84l5.21,2.11c5,2,8.12,5.35,8.12,11.14,0,6.8-5.66,12.69-15.42,12.69A22.53,22.53,0,0,1,167,108.79Z" transform="translate(-76.62 -71.27)"/><path class="cls-4" d="M204.51,73h9.25V114h-9.25Z" transform="translate(-76.62 -71.27)"/><path class="cls-5" d="M231.87,79.62H220.21v-8h32.9v8H241.45V114h-9.58Z" transform="translate(-76.62 -71.27)"/><path class="cls-5" d="M259.72,71.59h9.58V114h-9.58Z" transform="translate(-76.62 -71.27)"/><path class="cls-5" d="M273.82,71.59H284l5.11,19.74c1.26,4.63,2.11,8.91,3.4,13.58h.26c1.28-4.67,2.18-9,3.39-13.58l5-19.74h9.79L298.12,114h-11.5Z" transform="translate(-76.62 -71.27)"/><path class="cls-5" d="M314.91,71.59h9.57V114h-9.57Z" transform="translate(-76.62 -71.27)"/><path class="cls-5" d="M342.76,79.62H331.1v-8H364v8H352.34V114h-9.58Z" transform="translate(-76.62 -71.27)"/><path class="cls-5" d="M376.71,98.84,364,71.59h10.24L378,81.32c1.13,3.17,2.24,6.11,3.45,9.39h.26c1.2-3.28,2.41-6.22,3.57-9.39l3.79-9.73h10L386.29,98.84V114h-9.58Z" transform="translate(-76.62 -71.27)"/></svg>