<svg xmlns="http://www.w3.org/2000/svg" width="375" viewBox="0 0 375 375" height="375" version="1.0"><defs><clipPath id="a"><path d="M 0 138.175781 L 85.828125 138.175781 L 85.828125 224 L 0 224 Z M 0 138.175781"/></clipPath><clipPath id="b"><path d="M 12 139.902344 L 74 139.902344 L 74 195.476562 L 12 195.476562 Z M 12 139.902344"/></clipPath><clipPath id="c"><path d="M 7.273438 177 L 11 177 L 11 190 L 7.273438 190 Z M 7.273438 177"/></clipPath><clipPath id="d"><path d="M 75 177 L 78.59375 177 L 78.59375 190 L 75 190 Z M 75 177"/></clipPath></defs><path fill="#FFF" d="M 0.00390625 125.832031 L 374.996094 125.832031 L 374.996094 227.082031 L 0.00390625 227.082031 Z M 0.00390625 125.832031"/><g clip-path="url(#a)"><path fill="#FFF" d="M 85.808594 181.074219 C 85.808594 204.773438 66.597656 223.984375 42.898438 223.984375 C 19.199219 223.984375 -0.0117188 204.773438 -0.0117188 181.074219 C -0.015625 157.371094 19.199219 138.160156 42.898438 138.160156 C 66.597656 138.160156 85.808594 157.371094 85.808594 181.074219"/></g><path fill="#FFF" d="M 33.992188 206.035156 C 29.484375 206.035156 25.734375 202.78125 25.066406 198.394531 C 24.992188 198.394531 24.921875 198.394531 24.851562 198.394531 C 19.222656 198.394531 14.640625 193.816406 14.640625 188.191406 C 14.640625 186.097656 15.265625 184.105469 16.441406 182.398438 C 14.546875 180.496094 13.464844 177.894531 13.464844 175.195312 C 13.464844 169.980469 17.425781 165.605469 22.5625 165.050781 C 23.222656 160.003906 27.609375 156.109375 32.75 156.109375 C 38.414062 156.109375 43.019531 160.71875 43.019531 166.382812 L 43.019531 197.003906 C 43.019531 201.984375 38.96875 206.035156 33.992188 206.035156"/><path d="M 32.75 155.570312 C 30.023438 155.570312 27.414062 156.589844 25.414062 158.4375 C 23.644531 160.070312 22.488281 162.222656 22.089844 164.566406 C 16.882812 165.335938 12.925781 169.839844 12.925781 175.195312 C 12.925781 177.890625 13.945312 180.488281 15.753906 182.460938 C 14.671875 184.171875 14.097656 186.132812 14.097656 188.191406 C 14.097656 194.035156 18.792969 198.808594 24.613281 198.9375 C 25.503906 203.355469 29.375 206.578125 33.992188 206.578125 C 39.265625 206.578125 43.558594 202.28125 43.558594 197.003906 L 43.558594 166.382812 C 43.558594 160.421875 38.710938 155.570312 32.75 155.570312 Z M 32.75 156.652344 C 38.121094 156.652344 42.476562 161.007812 42.476562 166.382812 L 42.476562 197.003906 C 42.476562 201.695312 38.675781 205.492188 33.992188 205.492188 C 29.578125 205.492188 25.953125 202.128906 25.539062 197.828125 C 25.3125 197.84375 25.082031 197.851562 24.851562 197.851562 C 19.511719 197.851562 15.183594 193.527344 15.183594 188.191406 C 15.183594 185.988281 15.921875 183.960938 17.160156 182.335938 C 15.222656 180.570312 14.007812 178.027344 14.007812 175.195312 C 14.007812 170.066406 18.007812 165.871094 23.054688 165.554688 C 23.476562 160.566406 27.652344 156.652344 32.75 156.652344"/><path stroke-linecap="round" transform="matrix(.03211 0 0 -.03211 -25.367 249.338)" fill="none" stroke-linejoin="round" d="M 1813.228897 1842.023702 C 1813.228897 1998.956935 1940.356981 2125.963366 2097.168561 2125.963366" stroke="#040505" stroke-width="33.737" stroke-miterlimit="10"/><path stroke-linecap="round" transform="matrix(.03211 0 0 -.03211 -25.367 249.338)" fill="none" stroke-linejoin="round" d="M 1699.604369 2236.789859 C 1800.0903 2236.789859 1881.598259 2155.281901 1881.598259 2054.79597" stroke="#040505" stroke-width="33.737" stroke-miterlimit="10"/><path stroke-linecap="round" transform="matrix(.03211 0 0 -.03211 -25.367 249.338)" fill="none" stroke-linejoin="round" d="M 1819.798195 2195.792572 C 1750.577257 2336.545868 1808.606057 2506.739352 1949.359353 2575.96029" stroke="#040505" stroke-width="33.737" stroke-miterlimit="10"/><path stroke-linecap="round" transform="matrix(.03211 0 0 -.03211 -25.367 249.338)" fill="none" stroke-linejoin="round" d="M 1790.236353 1512.950526 C 1633.424773 1512.950526 1506.175035 1640.07861 1506.175035 1797.011844" stroke="#040505" stroke-width="33.737" stroke-miterlimit="10"/><path stroke-linecap="round" transform="matrix(.03211 0 0 -.03211 -25.367 249.338)" fill="none" stroke-linejoin="round" d="M 1423.085579 1875.356807 C 1312.259086 1986.304954 1312.259086 2166.109077 1423.085579 2277.057224" stroke="#040505" stroke-width="33.737" stroke-miterlimit="10"/><path stroke-linecap="round" transform="matrix(.03211 0 0 -.03211 -25.367 249.338)" fill="none" stroke-linejoin="round" d="M 1953.860539 1399.812613 C 1861.160442 1399.812613 1786.100128 1474.751273 1786.100128 1567.45137 C 1786.100128 1660.029812 1861.160442 1735.090126 1953.860539 1735.090126" stroke="#040505" stroke-width="33.737" stroke-miterlimit="10"/><path stroke-linecap="round" transform="matrix(.03211 0 0 -.03211 -25.367 249.338)" fill="#FFF" stroke-linejoin="round" d="M 1799.968647 2426.44793 C 1738.046929 2426.44793 1687.925617 2476.569242 1687.925617 2538.490959 C 1687.925617 2600.412677 1738.046929 2650.655643 1799.968647 2650.655643" stroke="#040505" stroke-width="33.737" stroke-miterlimit="10"/><path fill="#FFF" d="M 51.808594 206.035156 C 46.828125 206.035156 42.78125 201.984375 42.78125 197.003906 L 42.78125 166.382812 C 42.78125 160.71875 47.382812 156.109375 53.046875 156.109375 C 58.1875 156.109375 62.574219 160.003906 63.234375 165.050781 C 68.371094 165.605469 72.328125 169.980469 72.328125 175.195312 C 72.328125 177.894531 71.25 180.496094 69.351562 182.398438 C 70.53125 184.105469 71.15625 186.097656 71.15625 188.191406 C 71.15625 193.816406 66.574219 198.394531 60.949219 198.394531 C 60.875 198.394531 60.804688 198.394531 60.730469 198.394531 C 60.0625 202.78125 56.3125 206.035156 51.808594 206.035156"/><path d="M 53.046875 155.570312 C 47.085938 155.570312 42.238281 160.421875 42.238281 166.382812 L 42.238281 197.003906 C 42.238281 202.28125 46.53125 206.578125 51.808594 206.578125 C 56.421875 206.578125 60.292969 203.355469 61.183594 198.9375 C 67.003906 198.808594 71.699219 194.035156 71.699219 188.191406 C 71.699219 186.136719 71.128906 184.171875 70.042969 182.460938 C 71.851562 180.488281 72.871094 177.890625 72.871094 175.195312 C 72.871094 169.839844 68.914062 165.335938 63.707031 164.566406 C 63.308594 162.222656 62.152344 160.070312 60.382812 158.4375 C 58.382812 156.589844 55.773438 155.570312 53.046875 155.570312 Z M 53.046875 156.652344 C 58.140625 156.652344 62.320312 160.566406 62.742188 165.554688 C 67.789062 165.871094 71.789062 170.066406 71.789062 175.195312 C 71.789062 178.027344 70.574219 180.570312 68.636719 182.335938 C 69.875 183.960938 70.613281 185.988281 70.613281 188.191406 C 70.613281 193.527344 66.285156 197.851562 60.949219 197.851562 C 60.714844 197.851562 60.484375 197.84375 60.257812 197.828125 C 59.84375 202.128906 56.21875 205.492188 51.808594 205.492188 C 47.121094 205.492188 43.320312 201.695312 43.320312 197.003906 L 43.320312 166.382812 C 43.320312 161.007812 47.675781 156.652344 53.046875 156.652344"/><path stroke-linecap="round" transform="matrix(.03211 0 0 -.03211 -25.367 249.338)" fill="none" stroke-linejoin="round" d="M 2582.445049 2063.068419 C 2434.392533 2114.892882 2272.349845 2036.91288 2220.525382 1888.860364" stroke="#040505" stroke-width="33.737" stroke-miterlimit="10"/><path stroke-linecap="round" transform="matrix(.03211 0 0 -.03211 -25.367 249.338)" fill="none" stroke-linejoin="round" d="M 2552.396592 2236.789859 C 2451.910661 2236.789859 2370.402703 2155.281901 2370.402703 2054.79597" stroke="#040505" stroke-width="33.737" stroke-miterlimit="10"/><path stroke-linecap="round" transform="matrix(.03211 0 0 -.03211 -25.367 249.338)" fill="none" stroke-linejoin="round" d="M 2432.202767 2195.792572 C 2501.423705 2336.545868 2443.516558 2506.739352 2302.641609 2575.96029" stroke="#040505" stroke-width="33.737" stroke-miterlimit="10"/><path stroke-linecap="round" transform="matrix(.03211 0 0 -.03211 -25.367 249.338)" fill="none" stroke-linejoin="round" d="M 2461.764609 1512.950526 C 2618.576189 1512.950526 2745.704273 1640.07861 2745.704273 1797.011844" stroke="#040505" stroke-width="33.737" stroke-miterlimit="10"/><path stroke-linecap="round" transform="matrix(.03211 0 0 -.03211 -25.367 249.338)" fill="none" stroke-linejoin="round" d="M 2828.915383 1875.356807 C 2939.741876 1986.304954 2939.741876 2166.109077 2828.915383 2277.057224" stroke="#040505" stroke-width="33.737" stroke-miterlimit="10"/><path stroke-linecap="round" transform="matrix(.03211 0 0 -.03211 -25.367 249.338)" fill="none" stroke-linejoin="round" d="M 2298.140423 1399.812613 C 2390.840519 1399.812613 2465.900833 1474.751273 2465.900833 1567.45137 C 2465.900833 1660.029812 2390.840519 1735.090126 2298.140423 1735.090126" stroke="#040505" stroke-width="33.737" stroke-miterlimit="10"/><path stroke-linecap="round" transform="matrix(.03211 0 0 -.03211 -25.367 249.338)" fill="#FFF" stroke-linejoin="round" d="M 2452.032315 2426.44793 C 2513.954033 2426.44793 2564.075345 2476.569242 2564.075345 2538.490959 C 2564.075345 2600.412677 2513.954033 2650.655643 2452.032315 2650.655643" stroke="#040505" stroke-width="33.737" stroke-miterlimit="10"/><g clip-path="url(#b)"><path fill="#004AAD" d="M 73.671875 175.8125 C 73.878906 172.871094 74.425781 158.070312 65.441406 148.335938 C 60.140625 142.589844 52.601562 139.765625 43.03125 139.953125 C 33.46875 139.773438 25.925781 142.589844 20.621094 148.335938 C 11.867188 157.824219 12.164062 172.125 12.378906 175.566406 C 12.25 176.042969 12.183594 176.542969 12.183594 177.058594 L 12.183594 190.257812 C 12.183594 193.457031 14.773438 196.050781 17.976562 196.050781 L 21.996094 196.050781 C 25.195312 196.050781 27.789062 193.457031 27.789062 190.257812 L 27.789062 177.058594 C 27.789062 173.859375 25.195312 171.261719 21.996094 171.261719 L 17.976562 171.261719 C 17.539062 171.261719 17.113281 171.3125 16.703125 171.40625 C 16.921875 166.140625 18.199219 157.351562 23.828125 151.265625 C 28.261719 146.476562 34.71875 144.125 42.988281 144.300781 L 43.078125 144.300781 C 51.351562 144.136719 57.804688 146.476562 62.234375 151.265625 C 67.871094 157.359375 69.144531 166.160156 69.363281 171.421875 C 68.929688 171.320312 68.476562 171.261719 68.015625 171.261719 L 63.992188 171.261719 C 60.792969 171.261719 58.199219 173.859375 58.199219 177.058594 L 58.199219 190.257812 C 58.199219 193.457031 60.792969 196.050781 63.992188 196.050781 L 68.015625 196.050781 C 71.214844 196.050781 73.808594 193.457031 73.808594 190.257812 L 73.808594 177.058594 C 73.808594 176.628906 73.757812 176.214844 73.671875 175.8125 Z M 73.671875 175.8125"/></g><g clip-path="url(#c)"><path fill="#004AAD" d="M 10.773438 177.378906 L 7.273438 179.433594 L 7.273438 187.28125 L 10.773438 189.574219"/></g><g clip-path="url(#d)"><path fill="#004AAD" d="M 75.09375 177.378906 L 78.59375 179.433594 L 78.59375 187.28125 L 75.09375 189.574219"/></g><path transform="matrix(1.05488 0 0 1.05488 85.755 144.131)" fill="none" d="M 20.665886 26.122801 L 6.383353 10.218347 L 4.057859 10.218347 L 4.057859 47.000405 L 11.404643 47.000405 L 11.404643 26.789344 L 20.665886 36.513464 L 29.941941 26.789344 L 29.893802 47.000405 L 37.240586 47.000405 L 37.240586 10.218347 L 34.952122 10.218347 Z M 71.378691 34.38423 L 71.378691 10.773799 L 64.180028 10.773799 L 64.180028 34.336091 C 64.180028 41.927273 52.430358 41.927273 52.430358 34.336091 L 52.430358 10.773799 L 45.183555 10.773799 L 45.183555 34.38423 C 45.183555 51.614363 71.378691 51.614363 71.378691 34.38423 Z M 77.714551 44.674911 C 82.624751 47.196665 87.123915 47.455876 89.153168 47.307756 C 95.944499 46.952266 100.099283 42.338308 100.099283 36.313501 C 100.099283 30.536796 95.237223 27.296657 89.612342 25.219265 C 87.53495 24.50088 85.764908 23.601047 85.553836 21.571794 C 85.405716 19.542541 86.568463 17.661409 89.153168 17.513289 C 90.267776 17.465149 92.55624 17.41701 96.548091 19.035228 L 97.466439 12.047637 C 92.800639 10.425716 90.315915 10.425716 88.449595 10.525697 C 82.413679 10.821939 78.207052 15.487739 78.207052 21.571794 C 78.207052 27.644741 83.280184 30.536796 88.956908 32.614188 C 90.982458 33.321464 92.55624 34.236109 92.70436 36.313501 C 92.90062 38.279803 91.082439 39.801742 88.956908 39.960972 C 87.286848 40.109093 82.772871 40.012814 78.614384 37.068916 Z M 113.415329 47.000405 L 113.415329 10.773799 L 106.179636 10.773799 L 106.179636 47.000405 Z M 113.415329 47.000405" stroke="#004AAD" stroke-width="1.9"/><g fill="#004AAD"><g><g><path d="M 18.222656 0 L 18.222656 -30.566406 L 27.734375 -30.566406 L 27.734375 -38.15625 L 1.070312 -38.15625 L 1.070312 -30.566406 L 10.582031 -30.566406 L 10.582031 0 Z M 18.222656 0" transform="translate(209.736 193.71)"/></g></g></g><g fill="#004AAD"><g><g><path d="M 11.917969 0 L 11.917969 -38.210938 L 4.273438 -38.210938 L 4.273438 0 Z M 11.917969 0" transform="translate(238.966 193.71)"/></g></g></g><g fill="#004AAD"><g><g><path d="M 16.140625 0.800781 L 17.847656 0.800781 L 33.667969 -38.210938 L 24.851562 -38.210938 L 19.71875 -25.222656 L 16.992188 -17.582031 L 14.214844 -25.492188 L 9.136719 -38.210938 L 0.320312 -38.210938 Z M 16.140625 0.800781" transform="translate(255.21 193.71)"/></g></g></g><g fill="#004AAD"><g><g><path d="M 11.917969 0 L 11.917969 -38.210938 L 4.273438 -38.210938 L 4.273438 0 Z M 11.917969 0" transform="translate(289.25 193.71)"/></g></g></g><g fill="#004AAD"><g><g><path d="M 18.222656 0 L 18.222656 -30.566406 L 27.734375 -30.566406 L 27.734375 -38.15625 L 1.070312 -38.15625 L 1.070312 -30.566406 L 10.582031 -30.566406 L 10.582031 0 Z M 18.222656 0" transform="translate(305.495 193.71)"/></g></g></g><g fill="#004AAD"><g><g><path d="M 13.628906 0 L 21.214844 0 L 21.214844 -17.207031 L 34.574219 -38.210938 L 25.222656 -38.210938 L 17.421875 -25.0625 L 9.621094 -38.210938 L 0.320312 -38.210938 L 13.628906 -17.207031 Z M 13.628906 0" transform="translate(334.724 193.71)"/></g></g></g></svg>